<svg xmlns="http://www.w3.org/2000/svg" xmlns:xlink="http://www.w3.org/1999/xlink" version="1.2" width="210.00mm" height="297.00mm" viewBox="0 0 79.6677 112.6729">
<style type="text/css">
<![CDATA[
tspan { white-space: pre; }
]]>
</style>
<!-- Page: 1/1 -->
<g transform="translate(26.6204, 5.5145)">
<text font-family="serif" font-weight="bold" font-size="3.4925" text-anchor="start" fill="currentColor">
<tspan>Epona’s Song</tspan>
</text>
</g>
<g transform="translate(63.7873, 9.0145)">
<text font-family="serif" font-size="2.2003" text-anchor="start" fill="currentColor">
<tspan>Kōji Kondo</tspan>
</text>
</g>
<g transform="translate(3.7937, 11.7224)">
<text font-family="serif" font-size="2.2003" text-anchor="start" fill="currentColor">
<tspan>The Legend of Zelda: Ocarina of Time</tspan>
</text>
</g>
<g transform="translate(3.7937, 25.2378)">
<line stroke-linejoin="round" stroke-linecap="round" stroke-width="0.0781" stroke="currentColor" x1="0.0390" y1="0" x2="72.0413" y2="0"/>
</g>
<g transform="translate(3.7937, 24.2378)">
<line stroke-linejoin="round" stroke-linecap="round" stroke-width="0.0781" stroke="currentColor" x1="0.0390" y1="0" x2="72.0413" y2="0"/>
</g>
<g transform="translate(3.7937, 23.2378)">
<line stroke-linejoin="round" stroke-linecap="round" stroke-width="0.0781" stroke="currentColor" x1="0.0390" y1="0" x2="72.0413" y2="0"/>
</g>
<g transform="translate(3.7937, 22.2378)">
<line stroke-linejoin="round" stroke-linecap="round" stroke-width="0.0781" stroke="currentColor" x1="0.0390" y1="0" x2="72.0413" y2="0"/>
</g>
<g transform="translate(3.7937, 21.2378)">
<line stroke-linejoin="round" stroke-linecap="round" stroke-width="0.0781" stroke="currentColor" x1="0.0390" y1="0" x2="72.0413" y2="0"/>
</g>
<g transform="translate(26.0451, 23.2378)">
<rect x="0.0000" y="-2.0000" width="0.1484" height="4.0000" ry="0.0000" fill="currentColor"/>
</g>
<g transform="translate(61.8669, 23.2378)">
<rect x="0.0000" y="-2.0000" width="0.1484" height="4.0000" ry="0.0000" fill="currentColor"/>
</g>
<g transform="translate(38.3702, 23.2378)">
<rect x="0.0000" y="-2.0000" width="0.1484" height="4.0000" ry="0.0000" fill="currentColor"/>
</g>
<g transform="translate(53.0801, 23.2378)">
<rect x="0.0000" y="-2.0000" width="0.1484" height="4.0000" ry="0.0000" fill="currentColor"/>
</g>
<g transform="translate(75.7256, 23.2378)">
<rect x="0.0000" y="-2.0000" width="0.1484" height="4.0000" ry="0.0000" fill="currentColor"/>
</g>
<g transform="translate(57.0430, 23.7378)">
<path transform="scale(0.0040, -0.0040)" d="M0 0c0 32 25 57 57 57s57 -25 57 -57s-25 -57 -57 -57s-57 25 -57 57z" fill="currentColor"/>
</g>
<g transform="translate(56.5355, 23.2378)">
<rect x="-0.0508" y="-3.0000" width="0.1015" height="3.2316" ry="0.0267" fill="currentColor"/>
</g>
<g transform="translate(63.0010, 24.7378)">
<path transform="scale(0.0040, -0.0040)" d="M222 135c53 0 104 -27 104 -86c0 -71 -56 -120 -103 -148c-36 -22 -76 -36 -118 -36c-53 0 -105 27 -105 86c0 71 57 120 104 148c36 22 76 36 118 36z" fill="currentColor"/>
</g>
<g transform="translate(46.1230, 23.2378)">
<rect x="-0.0508" y="-3.0000" width="0.1015" height="3.3033" ry="0.0267" fill="currentColor"/>
</g>
<g transform="translate(15.0143, 23.2378)">
<path stroke-width="0.0625" stroke-linejoin="round" stroke-linecap="round" stroke="currentColor" fill="currentColor" d="M0.7773 -2.1889C2.3002 -2.8880 5.3111 -1.9692 6.1842 -0.5389L6.1842 -0.5389C5.2838 -1.8795 2.2729 -2.7984 0.7773 -2.1889z"/>
</g>
<g transform="translate(42.1488, 23.2378)">
<path transform="scale(0.0040, -0.0040)" d="M222 135c53 0 104 -27 104 -86c0 -71 -56 -120 -103 -148c-36 -22 -76 -36 -118 -36c-53 0 -105 27 -105 86c0 71 57 120 104 148c36 22 76 36 118 36z" fill="currentColor"/>
</g>
<g transform="translate(42.1995, 23.2378)">
<rect x="-0.0508" y="0.1967" width="0.1015" height="2.5906" ry="0.0267" fill="currentColor"/>
</g>
<g transform="translate(44.8679, 23.7378)">
<path transform="scale(0.0040, -0.0040)" d="M222 135c53 0 104 -27 104 -86c0 -71 -56 -120 -103 -148c-36 -22 -76 -36 -118 -36c-53 0 -105 27 -105 86c0 71 57 120 104 148c36 22 76 36 118 36z" fill="currentColor"/>
</g>
<g transform="translate(49.0460, 23.2378)">
<path transform="scale(0.0040, -0.0040)" d="M222 135c53 0 104 -27 104 -86c0 -71 -56 -120 -103 -148c-36 -22 -76 -36 -118 -36c-53 0 -105 27 -105 86c0 71 57 120 104 148c36 22 76 36 118 36z" fill="currentColor"/>
</g>
<g transform="translate(49.0968, 23.2378)">
<rect x="-0.0508" y="0.1967" width="0.1015" height="3.1366" ry="0.0267" fill="currentColor"/>
</g>
<g transform="translate(55.2142, 23.7378)">
<path transform="scale(0.0040, -0.0040)" d="M316 67c0 25 -20 42 -42 42c-4 0 -9 -1 -13 -2c-31 -9 -79 -41 -117 -65s-86 -55 -107 -80c-7 -8 -10 -19 -10 -29c0 -25 20 -42 42 -42c4 0 9 1 13 2c31 9 79 41 117 65s86 55 107 80c7 8 10 19 10 29zM265 135c44 0 78 -21 78 -68c0 -19 -5 -39 -11 -57
c-12 -37 -33 -71 -65 -93c-53 -36 -114 -52 -189 -52c-44 0 -78 21 -78 68c0 19 5 39 11 57c12 37 33 71 65 93c53 36 114 52 189 52z" fill="currentColor"/>
</g>
<g transform="translate(72.5818, 23.2378)">
<rect x="-0.0508" y="-2.0000" width="0.1015" height="3.3033" ry="0.0267" fill="currentColor"/>
</g>
<g transform="translate(71.3268, 24.7378)">
<path transform="scale(0.0040, -0.0040)" d="M222 135c53 0 104 -27 104 -86c0 -71 -56 -120 -103 -148c-36 -22 -76 -36 -118 -36c-53 0 -105 27 -105 86c0 71 57 120 104 148c36 22 76 36 118 36z" fill="currentColor"/>
</g>
<g transform="translate(39.6644, 25.4388)">
<polygon stroke-linejoin="round" stroke-linecap="round" stroke-width="0.0533" fill="currentColor" stroke="currentColor" points="2.5592 0.3848 2.5592 0.8114 0.0267 0.2133 0.0267 -0.2133"/>
</g>
<g transform="translate(39.6644, 23.2378)">
<path stroke-width="0.0625" stroke-linejoin="round" stroke-linecap="round" stroke="currentColor" fill="currentColor" d="M0.6707 -2.6889C2.9815 -4.2468 14.3448 -3.7808 16.5203 -2.0389L16.5203 -2.0389C14.3409 -3.6872 2.9777 -4.1532 0.6707 -2.6889z"/>
</g>
<g transform="translate(27.3394, 25.4388)">
<polygon stroke-linejoin="round" stroke-linecap="round" stroke-width="0.0533" fill="currentColor" stroke="currentColor" points="2.5592 0.3848 2.5592 0.8114 0.0267 0.2133 0.0267 -0.2133"/>
</g>
<g transform="translate(27.3394, 23.2378)">
<path stroke-width="0.0625" stroke-linejoin="round" stroke-linecap="round" stroke="currentColor" fill="currentColor" d="M0.7773 -2.1889C2.3002 -2.8880 5.3111 -1.9692 6.1842 -0.5389L6.1842 -0.5389C5.2838 -1.8795 2.2729 -2.7984 0.7773 -2.1889z"/>
</g>
<g transform="translate(15.0143, 25.4388)">
<polygon stroke-linejoin="round" stroke-linecap="round" stroke-width="0.0533" fill="currentColor" stroke="currentColor" points="2.5592 0.3848 2.5592 0.8114 0.0267 0.2133 0.0267 -0.2133"/>
</g>
<g transform="translate(64.2560, 23.2378)">
<rect x="-0.0508" y="-2.0000" width="0.1015" height="3.3033" ry="0.0267" fill="currentColor"/>
</g>
<g transform="translate(67.1639, 25.2378)">
<path transform="scale(0.0040, -0.0040)" d="M222 135c53 0 104 -27 104 -86c0 -71 -56 -120 -103 -148c-36 -22 -76 -36 -118 -36c-53 0 -105 27 -105 86c0 71 57 120 104 148c36 22 76 36 118 36z" fill="currentColor"/>
</g>
<g transform="translate(68.4189, 23.2378)">
<rect x="-0.0508" y="-1.5000" width="0.1015" height="3.3033" ry="0.0267" fill="currentColor"/>
</g>
<g transform="translate(65.7139, 25.2378)">
<path transform="scale(0.0040, -0.0040)" d="M215 -316c0 -9 -8 -17 -17 -17s-17 8 -17 17v151l-87 -31v-162c0 -9 -8 -17 -17 -17s-17 8 -17 17v150l-39 -13c-10 -4 -21 4 -21 15v64c0 7 5 13 11 15l49 18v164l-39 -14c-10 -4 -21 4 -21 15v65c0 7 5 13 11 15l49 17v163c0 9 8 17 17 17s17 -8 17 -17v-151l87 31v162
c0 9 8 17 17 17s17 -8 17 -17v-150l39 13c10 4 21 -4 21 -15v-64c0 -7 -5 -13 -11 -15l-49 -18v-164l39 14c10 4 21 -4 21 -15v-65c0 -7 -5 -13 -11 -15l-49 -17v-163zM94 67v-164l87 30v164z" fill="currentColor"/>
</g>
<g transform="translate(17.4987, 23.2378)">
<path transform="scale(0.0040, -0.0040)" d="M222 135c53 0 104 -27 104 -86c0 -71 -56 -120 -103 -148c-36 -22 -76 -36 -118 -36c-53 0 -105 27 -105 86c0 71 57 120 104 148c36 22 76 36 118 36z" fill="currentColor"/>
</g>
<g transform="translate(17.5494, 23.2378)">
<rect x="-0.0508" y="0.1967" width="0.1015" height="2.5906" ry="0.0267" fill="currentColor"/>
</g>
<g transform="translate(20.2280, 23.7378)">
<path transform="scale(0.0040, -0.0040)" d="M316 67c0 25 -20 42 -42 42c-4 0 -9 -1 -13 -2c-31 -9 -79 -41 -117 -65s-86 -55 -107 -80c-7 -8 -10 -19 -10 -29c0 -25 20 -42 42 -42c4 0 9 1 13 2c31 9 79 41 117 65s86 55 107 80c7 8 10 19 10 29zM265 135c44 0 78 -21 78 -68c0 -19 -5 -39 -11 -57
c-12 -37 -33 -71 -65 -93c-53 -36 -114 -52 -189 -52c-44 0 -78 21 -78 68c0 19 5 39 11 57c12 37 33 71 65 93c53 36 114 52 189 52z" fill="currentColor"/>
</g>
<g transform="translate(21.5493, 23.2378)">
<rect x="-0.0508" y="-3.0000" width="0.1015" height="3.2316" ry="0.0267" fill="currentColor"/>
</g>
<g transform="translate(27.3394, 22.2378)">
<path transform="scale(0.0040, -0.0040)" d="M222 135c53 0 104 -27 104 -86c0 -71 -56 -120 -103 -148c-36 -22 -76 -36 -118 -36c-53 0 -105 27 -105 86c0 71 57 120 104 148c36 22 76 36 118 36z" fill="currentColor"/>
</g>
<g transform="translate(27.3901, 23.2378)">
<rect x="-0.0508" y="-0.8033" width="0.1015" height="3.0160" ry="0.0267" fill="currentColor"/>
</g>
<g transform="translate(11.4437, 19.8959)">
<rect x="1.0475" y="-2.6727" width="0.1158" height="2.4974" ry="0.0193" fill="currentColor"/>
</g>
<g transform="translate(11.4437, 19.8959)">
<path transform="scale(0.0036, -0.0036)" d="M222 135c53 0 104 -27 104 -86c0 -71 -56 -120 -103 -148c-36 -22 -76 -36 -118 -36c-53 0 -105 27 -105 86c0 71 57 120 104 148c36 22 76 36 118 36z" fill="currentColor"/>
</g>
<g transform="translate(12.6071, 20.3760)">
<text font-family="serif" font-size="2.2003" text-anchor="start" fill="currentColor">
<tspan> = 100</tspan>
</text>
</g>
<g transform="translate(63.0010, 23.2378)">
<path stroke-width="0.0625" stroke-linejoin="round" stroke-linecap="round" stroke="currentColor" fill="currentColor" d="M1.6058 -1.0389C3.2932 -2.7777 10.6453 -3.7438 12.7246 -2.5000L12.7246 -2.5000C10.6575 -3.6509 3.3055 -2.6847 1.6058 -1.0389z"/>
</g>
<g transform="translate(15.0143, 22.2378)">
<path transform="scale(0.0040, -0.0040)" d="M222 135c53 0 104 -27 104 -86c0 -71 -56 -120 -103 -148c-36 -22 -76 -36 -118 -36c-53 0 -105 27 -105 86c0 71 57 120 104 148c36 22 76 36 118 36z" fill="currentColor"/>
</g>
<g transform="translate(4.5937, 24.2378)">
<path transform="scale(0.0040, -0.0040)" d="M374 260c5 0 10 1 15 1c154 0 254 -127 254 -259c0 -76 -33 -153 -107 -208c-22 -17 -47 -29 -73 -37c3 -36 5 -72 5 -108c0 -19 0 -37 -1 -56c-7 -120 -88 -226 -206 -226c-108 0 -195 87 -195 195c0 58 53 104 112 104c54 0 95 -48 95 -104c0 -52 -43 -95 -95 -95
c-12 0 -24 4 -35 9c26 -41 70 -70 121 -70c1 0 2 1 3 1c93 2 154 93 160 192c1 18 2 35 2 53c0 32 -2 64 -5 96c-29 -5 -58 -8 -89 -8c-188 0 -333 171 -333 372c0 178 133 306 251 440c-18 63 -35 126 -42 191c-6 51 -7 102 -7 154c0 116 55 226 150 295c5 4 11 4 16 0
c70 -84 132 -246 132 -359c0 -144 -87 -256 -183 -365c20 -69 39 -138 55 -208zM459 -205c69 24 117 96 117 166c0 92 -69 184 -179 193c25 -117 48 -235 62 -359zM71 31c0 -136 131 -251 267 -251c28 0 55 2 82 6c-15 128 -38 247 -64 367c-79 -9 -125 -62 -125 -121
c0 -44 26 -92 82 -124c4 -4 7 -9 7 -14c0 -11 -9 -21 -20 -21c-3 0 -6 1 -9 2c-80 43 -116 114 -116 184c0 88 57 173 158 196c-14 60 -30 119 -46 178c-108 -121 -216 -242 -216 -402zM411 1050c-99 -50 -161 -151 -161 -262c0 -76 15 -137 33 -200c82 97 149 198 149 325
c0 58 -4 84 -21 137z" fill="currentColor"/>
</g>
<g transform="translate(8.0937, 21.2378)">
<path transform="scale(0.0040, -0.0040)" d="M215 -316c0 -9 -8 -17 -17 -17s-17 8 -17 17v151l-87 -31v-162c0 -9 -8 -17 -17 -17s-17 8 -17 17v150l-39 -13c-10 -4 -21 4 -21 15v64c0 7 5 13 11 15l49 18v164l-39 -14c-10 -4 -21 4 -21 15v65c0 7 5 13 11 15l49 17v163c0 9 8 17 17 17s17 -8 17 -17v-151l87 31v162
c0 9 8 17 17 17s17 -8 17 -17v-150l39 13c10 4 21 -4 21 -15v-64c0 -7 -5 -13 -11 -15l-49 -18v-164l39 14c10 4 21 -4 21 -15v-65c0 -7 -5 -13 -11 -15l-49 -17v-163zM94 67v-164l87 30v164z" fill="currentColor"/>
</g>
<g transform="translate(9.1937, 22.7378)">
<path transform="scale(0.0040, -0.0040)" d="M215 -316c0 -9 -8 -17 -17 -17s-17 8 -17 17v151l-87 -31v-162c0 -9 -8 -17 -17 -17s-17 8 -17 17v150l-39 -13c-10 -4 -21 4 -21 15v64c0 7 5 13 11 15l49 18v164l-39 -14c-10 -4 -21 4 -21 15v65c0 7 5 13 11 15l49 17v163c0 9 8 17 17 17s17 -8 17 -17v-151l87 31v162
c0 9 8 17 17 17s17 -8 17 -17v-150l39 13c10 4 21 -4 21 -15v-64c0 -7 -5 -13 -11 -15l-49 -18v-164l39 14c10 4 21 -4 21 -15v-65c0 -7 -5 -13 -11 -15l-49 -17v-163zM94 67v-164l87 30v164z" fill="currentColor"/>
</g>
<g transform="translate(11.5803, 23.2378)">
<path transform="scale(0.0040, -0.0040)" d="M147 479c-28 0 -58 -9 -58 -33c0 -22 36 -25 36 -47c0 -32 -25 -57 -57 -57s-57 25 -57 57c0 63 66 101 136 101c90 0 165 -35 165 -115c0 -44 -3 -83 -41 -101c-8 -4 -13 -12 -13 -20s5 -16 13 -20c41 -19 55 -58 55 -104c0 -91 -77 -140 -175 -140
c-77 0 -151 41 -151 111c0 36 29 65 65 65s65 -29 65 -65c0 -25 -40 -28 -40 -53c0 -26 31 -37 61 -37c50 0 66 61 66 119c0 62 -1 110 -54 110h-82c-9 0 -13 7 -13 14s4 13 13 13h82c52 0 54 47 54 108c0 56 -18 94 -70 94z" fill="currentColor"/>
</g>
<g transform="translate(11.4437, 25.2637)">
<path transform="scale(0.0040, -0.0040)" d="M208 319c21 13 42 27 57 47c11 15 18 32 25 49c4 9 20 7 20 -7v-256h68c9 0 13 -7 13 -14s-4 -13 -13 -13h-68v-16c0 -45 26 -88 68 -88c7 0 10 -5 10 -10s-3 -11 -10 -11c-41 0 -82 13 -123 13s-82 -13 -123 -13c-7 0 -10 6 -10 11s3 10 10 10c42 0 68 43 68 88v16h-173
c-21 0 -29 13 -29 21c0 2 1 5 2 6c81 96 146 208 146 333c0 10 7 18 15 15c22 -7 44 -13 67 -13s45 6 67 13c12 4 21 -8 15 -15l-283 -333h173v147c0 8 2 16 8 20z" fill="currentColor"/>
</g>
<g transform="translate(15.0651, 23.2378)">
<rect x="-0.0508" y="-0.8033" width="0.1015" height="3.0160" ry="0.0267" fill="currentColor"/>
</g>
<g transform="translate(32.5531, 23.7378)">
<path transform="scale(0.0040, -0.0040)" d="M316 67c0 25 -20 42 -42 42c-4 0 -9 -1 -13 -2c-31 -9 -79 -41 -117 -65s-86 -55 -107 -80c-7 -8 -10 -19 -10 -29c0 -25 20 -42 42 -42c4 0 9 1 13 2c31 9 79 41 117 65s86 55 107 80c7 8 10 19 10 29zM265 135c44 0 78 -21 78 -68c0 -19 -5 -39 -11 -57
c-12 -37 -33 -71 -65 -93c-53 -36 -114 -52 -189 -52c-44 0 -78 21 -78 68c0 19 5 39 11 57c12 37 33 71 65 93c53 36 114 52 189 52z" fill="currentColor"/>
</g>
<g transform="translate(33.8744, 23.2378)">
<rect x="-0.0508" y="-3.0000" width="0.1015" height="3.2316" ry="0.0267" fill="currentColor"/>
</g>
<g transform="translate(39.7152, 23.2378)">
<rect x="-0.0508" y="-0.8033" width="0.1015" height="3.0160" ry="0.0267" fill="currentColor"/>
</g>
<g transform="translate(39.6644, 22.2378)">
<path transform="scale(0.0040, -0.0040)" d="M222 135c53 0 104 -27 104 -86c0 -71 -56 -120 -103 -148c-36 -22 -76 -36 -118 -36c-53 0 -105 27 -105 86c0 71 57 120 104 148c36 22 76 36 118 36z" fill="currentColor"/>
</g>
<g transform="translate(29.8237, 23.2378)">
<path transform="scale(0.0040, -0.0040)" d="M222 135c53 0 104 -27 104 -86c0 -71 -56 -120 -103 -148c-36 -22 -76 -36 -118 -36c-53 0 -105 27 -105 86c0 71 57 120 104 148c36 22 76 36 118 36z" fill="currentColor"/>
</g>
<g transform="translate(29.8745, 23.2378)">
<rect x="-0.0508" y="0.1967" width="0.1015" height="2.5906" ry="0.0267" fill="currentColor"/>
</g>
<g transform="translate(3.7937, 40.5961)">
<line stroke-linejoin="round" stroke-linecap="round" stroke-width="0.0781" stroke="currentColor" x1="0.0390" y1="0" x2="72.0413" y2="0"/>
</g>
<g transform="translate(3.7937, 39.5961)">
<line stroke-linejoin="round" stroke-linecap="round" stroke-width="0.0781" stroke="currentColor" x1="0.0390" y1="0" x2="72.0413" y2="0"/>
</g>
<g transform="translate(3.7937, 38.5961)">
<line stroke-linejoin="round" stroke-linecap="round" stroke-width="0.0781" stroke="currentColor" x1="0.0390" y1="0" x2="72.0413" y2="0"/>
</g>
<g transform="translate(3.7937, 37.5961)">
<line stroke-linejoin="round" stroke-linecap="round" stroke-width="0.0781" stroke="currentColor" x1="0.0390" y1="0" x2="72.0413" y2="0"/>
</g>
<g transform="translate(3.7937, 36.5961)">
<line stroke-linejoin="round" stroke-linecap="round" stroke-width="0.0781" stroke="currentColor" x1="0.0390" y1="0" x2="72.0413" y2="0"/>
</g>
<g transform="translate(24.3253, 38.5961)">
<rect x="0.0000" y="-2.0000" width="0.1484" height="4.0000" ry="0.0000" fill="currentColor"/>
</g>
<g transform="translate(62.5913, 38.5961)">
<rect x="0.0000" y="-2.0000" width="0.1484" height="4.0000" ry="0.0000" fill="currentColor"/>
</g>
<g transform="translate(49.4570, 38.5961)">
<rect x="0.0000" y="-2.0000" width="0.1484" height="4.0000" ry="0.0000" fill="currentColor"/>
</g>
<g transform="translate(75.7256, 38.5961)">
<rect x="0.0000" y="-2.0000" width="0.1484" height="4.0000" ry="0.0000" fill="currentColor"/>
</g>
<g transform="translate(36.0732, 38.5961)">
<rect x="0.0000" y="-2.0000" width="0.1484" height="4.0000" ry="0.0000" fill="currentColor"/>
</g>
<g transform="translate(63.9948, 38.5961)">
<rect x="-0.0508" y="-0.8033" width="0.1015" height="2.8067" ry="0.0267" fill="currentColor"/>
</g>
<g transform="translate(53.6999, 38.0961)">
<path transform="scale(0.0040, -0.0040)" d="M222 135c53 0 104 -27 104 -86c0 -71 -56 -120 -103 -148c-36 -22 -76 -36 -118 -36c-53 0 -105 27 -105 86c0 71 57 120 104 148c36 22 76 36 118 36z" fill="currentColor"/>
</g>
<g transform="translate(53.7506, 38.5961)">
<rect x="-0.0508" y="-0.3033" width="0.1015" height="2.5008" ry="0.0267" fill="currentColor"/>
</g>
<g transform="translate(56.5900, 38.5961)">
<path transform="scale(0.0040, -0.0040)" d="M316 67c0 25 -20 42 -42 42c-4 0 -9 -1 -13 -2c-31 -9 -79 -41 -117 -65s-86 -55 -107 -80c-7 -8 -10 -19 -10 -29c0 -25 20 -42 42 -42c4 0 9 1 13 2c31 9 79 41 117 65s86 55 107 80c7 8 10 19 10 29zM265 135c44 0 78 -21 78 -68c0 -19 -5 -39 -11 -57
c-12 -37 -33 -71 -65 -93c-53 -36 -114 -52 -189 -52c-44 0 -78 21 -78 68c0 19 5 39 11 57c12 37 33 71 65 93c53 36 114 52 189 52z" fill="currentColor"/>
</g>
<g transform="translate(56.6408, 38.5961)">
<rect x="-0.0508" y="0.2684" width="0.1015" height="3.0649" ry="0.0267" fill="currentColor"/>
</g>
<g transform="translate(63.9440, 37.5961)">
<path transform="scale(0.0040, -0.0040)" d="M222 135c53 0 104 -27 104 -86c0 -71 -56 -120 -103 -148c-36 -22 -76 -36 -118 -36c-53 0 -105 27 -105 86c0 71 57 120 104 148c36 22 76 36 118 36z" fill="currentColor"/>
</g>
<g transform="translate(50.8605, 38.5961)">
<rect x="-0.0508" y="-0.8033" width="0.1015" height="2.8067" ry="0.0267" fill="currentColor"/>
</g>
<g transform="translate(12.7937, 40.7971)">
<polygon stroke-linejoin="round" stroke-linecap="round" stroke-width="0.0533" fill="currentColor" stroke="currentColor" points="2.9650 -0.4143 2.9650 0.0124 0.0267 0.2133 0.0267 -0.2133"/>
</g>
<g transform="translate(43.1726, 39.0961)">
<path transform="scale(0.0040, -0.0040)" d="M316 67c0 25 -20 42 -42 42c-4 0 -9 -1 -13 -2c-31 -9 -79 -41 -117 -65s-86 -55 -107 -80c-7 -8 -10 -19 -10 -29c0 -25 20 -42 42 -42c4 0 9 1 13 2c31 9 79 41 117 65s86 55 107 80c7 8 10 19 10 29zM265 135c44 0 78 -21 78 -68c0 -19 -5 -39 -11 -57
c-12 -37 -33 -71 -65 -93c-53 -36 -114 -52 -189 -52c-44 0 -78 21 -78 68c0 19 5 39 11 57c12 37 33 71 65 93c53 36 114 52 189 52z" fill="currentColor"/>
</g>
<g transform="translate(44.4939, 38.5961)">
<rect x="-0.0508" y="-3.0000" width="0.1015" height="3.2316" ry="0.0267" fill="currentColor"/>
</g>
<g transform="translate(50.8097, 37.5961)">
<path transform="scale(0.0040, -0.0040)" d="M222 135c53 0 104 -27 104 -86c0 -71 -56 -120 -103 -148c-36 -22 -76 -36 -118 -36c-53 0 -105 27 -105 86c0 71 57 120 104 148c36 22 76 36 118 36z" fill="currentColor"/>
</g>
<g transform="translate(69.7751, 38.5961)">
<rect x="-0.0508" y="0.2684" width="0.1015" height="3.0649" ry="0.0267" fill="currentColor"/>
</g>
<g transform="translate(63.9440, 40.5961)">
<polygon stroke-linejoin="round" stroke-linecap="round" stroke-width="0.0533" fill="currentColor" stroke="currentColor" points="2.9650 -0.0124 2.9650 0.4143 0.0267 0.2133 0.0267 -0.2133"/>
</g>
<g transform="translate(63.9440, 38.5961)">
<path stroke-width="0.0625" stroke-linejoin="round" stroke-linecap="round" stroke="currentColor" fill="currentColor" d="M0.7267 -2.1889C2.1912 -3.0943 5.4657 -2.5314 6.5438 -1.1889L6.5438 -1.1889C5.4498 -2.4390 2.1754 -3.0019 0.7267 -2.1889z"/>
</g>
<g transform="translate(50.8097, 40.5961)">
<polygon stroke-linejoin="round" stroke-linecap="round" stroke-width="0.0533" fill="currentColor" stroke="currentColor" points="2.9650 -0.0124 2.9650 0.4143 0.0267 0.2133 0.0267 -0.2133"/>
</g>
<g transform="translate(50.8097, 38.5961)">
<path stroke-width="0.0625" stroke-linejoin="round" stroke-linecap="round" stroke="currentColor" fill="currentColor" d="M0.7267 -2.1889C2.1912 -3.0943 5.4657 -2.5314 6.5438 -1.1889L6.5438 -1.1889C5.4498 -2.4390 2.1754 -3.0019 0.7267 -2.1889z"/>
</g>
<g transform="translate(37.3973, 41.3952)">
<polygon stroke-linejoin="round" stroke-linecap="round" stroke-width="0.0533" fill="currentColor" stroke="currentColor" points="2.9650 -0.0124 2.9650 0.4143 0.0267 0.2133 0.0267 -0.2133"/>
</g>
<g transform="translate(25.6739, 38.5961)">
<path stroke-width="0.0625" stroke-linejoin="round" stroke-linecap="round" stroke="currentColor" fill="currentColor" d="M0.7283 -2.1889C3.2334 -3.6556 16.2775 -2.4424 18.4692 -0.5389L18.4692 -0.5389C16.2688 -2.3491 3.2247 -3.5623 0.7283 -2.1889z"/>
</g>
<g transform="translate(66.8342, 38.0961)">
<path transform="scale(0.0040, -0.0040)" d="M222 135c53 0 104 -27 104 -86c0 -71 -56 -120 -103 -148c-36 -22 -76 -36 -118 -36c-53 0 -105 27 -105 86c0 71 57 120 104 148c36 22 76 36 118 36z" fill="currentColor"/>
</g>
<g transform="translate(66.8849, 38.5961)">
<rect x="-0.0508" y="-0.3033" width="0.1015" height="2.5008" ry="0.0267" fill="currentColor"/>
</g>
<g transform="translate(69.7243, 38.5961)">
<path transform="scale(0.0040, -0.0040)" d="M316 67c0 25 -20 42 -42 42c-4 0 -9 -1 -13 -2c-31 -9 -79 -41 -117 -65s-86 -55 -107 -80c-7 -8 -10 -19 -10 -29c0 -25 20 -42 42 -42c4 0 9 1 13 2c31 9 79 41 117 65s86 55 107 80c7 8 10 19 10 29zM265 135c44 0 78 -21 78 -68c0 -19 -5 -39 -11 -57
c-12 -37 -33 -71 -65 -93c-53 -36 -114 -52 -189 -52c-44 0 -78 21 -78 68c0 19 5 39 11 57c12 37 33 71 65 93c53 36 114 52 189 52z" fill="currentColor"/>
</g>
<g transform="translate(15.6839, 37.5961)">
<path transform="scale(0.0040, -0.0040)" d="M222 135c53 0 104 -27 104 -86c0 -71 -56 -120 -103 -148c-36 -22 -76 -36 -118 -36c-53 0 -105 27 -105 86c0 71 57 120 104 148c36 22 76 36 118 36z" fill="currentColor"/>
</g>
<g transform="translate(15.7346, 38.5961)">
<rect x="-0.0508" y="-0.8033" width="0.1015" height="2.8067" ry="0.0267" fill="currentColor"/>
</g>
<g transform="translate(18.3240, 38.5961)">
<path transform="scale(0.0040, -0.0040)" d="M316 67c0 25 -20 42 -42 42c-4 0 -9 -1 -13 -2c-31 -9 -79 -41 -117 -65s-86 -55 -107 -80c-7 -8 -10 -19 -10 -29c0 -25 20 -42 42 -42c4 0 9 1 13 2c31 9 79 41 117 65s86 55 107 80c7 8 10 19 10 29zM265 135c44 0 78 -21 78 -68c0 -19 -5 -39 -11 -57
c-12 -37 -33 -71 -65 -93c-53 -36 -114 -52 -189 -52c-44 0 -78 21 -78 68c0 19 5 39 11 57c12 37 33 71 65 93c53 36 114 52 189 52z" fill="currentColor"/>
</g>
<g transform="translate(18.3748, 38.5961)">
<rect x="-0.0508" y="0.2684" width="0.1015" height="3.0649" ry="0.0267" fill="currentColor"/>
</g>
<g transform="translate(25.6739, 37.5961)">
<path transform="scale(0.0040, -0.0040)" d="M316 67c0 25 -20 42 -42 42c-4 0 -9 -1 -13 -2c-31 -9 -79 -41 -117 -65s-86 -55 -107 -80c-7 -8 -10 -19 -10 -29c0 -25 20 -42 42 -42c4 0 9 1 13 2c31 9 79 41 117 65s86 55 107 80c7 8 10 19 10 29zM265 135c44 0 78 -21 78 -68c0 -19 -5 -39 -11 -57
c-12 -37 -33 -71 -65 -93c-53 -36 -114 -52 -189 -52c-44 0 -78 21 -78 68c0 19 5 39 11 57c12 37 33 71 65 93c53 36 114 52 189 52z" fill="currentColor"/>
</g>
<g transform="translate(25.7247, 38.5961)">
<rect x="-0.0508" y="-0.7316" width="0.1015" height="3.2316" ry="0.0267" fill="currentColor"/>
</g>
<g transform="translate(8.0937, 36.5961)">
<path transform="scale(0.0040, -0.0040)" d="M215 -316c0 -9 -8 -17 -17 -17s-17 8 -17 17v151l-87 -31v-162c0 -9 -8 -17 -17 -17s-17 8 -17 17v150l-39 -13c-10 -4 -21 4 -21 15v64c0 7 5 13 11 15l49 18v164l-39 -14c-10 -4 -21 4 -21 15v65c0 7 5 13 11 15l49 17v163c0 9 8 17 17 17s17 -8 17 -17v-151l87 31v162
c0 9 8 17 17 17s17 -8 17 -17v-150l39 13c10 4 21 -4 21 -15v-64c0 -7 -5 -13 -11 -15l-49 -18v-164l39 14c10 4 21 -4 21 -15v-65c0 -7 -5 -13 -11 -15l-49 -17v-163zM94 67v-164l87 30v164z" fill="currentColor"/>
</g>
<g transform="translate(9.1937, 38.0961)">
<path transform="scale(0.0040, -0.0040)" d="M215 -316c0 -9 -8 -17 -17 -17s-17 8 -17 17v151l-87 -31v-162c0 -9 -8 -17 -17 -17s-17 8 -17 17v150l-39 -13c-10 -4 -21 4 -21 15v64c0 7 5 13 11 15l49 18v164l-39 -14c-10 -4 -21 4 -21 15v65c0 7 5 13 11 15l49 17v163c0 9 8 17 17 17s17 -8 17 -17v-151l87 31v162
c0 9 8 17 17 17s17 -8 17 -17v-150l39 13c10 4 21 -4 21 -15v-64c0 -7 -5 -13 -11 -15l-49 -18v-164l39 14c10 4 21 -4 21 -15v-65c0 -7 -5 -13 -11 -15l-49 -17v-163zM94 67v-164l87 30v164z" fill="currentColor"/>
</g>
<g transform="translate(3.7937, 38.5961)">
<path stroke-width="0.0625" stroke-linejoin="round" stroke-linecap="round" stroke="currentColor" fill="currentColor" d="M6.5000 -1.5389C8.2077 -2.8468 13.6371 -2.6292 15.2347 -1.1889L15.2347 -1.1889C13.6334 -2.5356 8.2039 -2.7531 6.5000 -1.5389z"/>
</g>
<g transform="translate(2.6784, 35.5571)">
<text font-family="serif" font-size="1.7461" text-anchor="start" fill="currentColor">
<tspan>6</tspan>
</text>
</g>
<g transform="translate(4.5937, 39.5961)">
<path transform="scale(0.0040, -0.0040)" d="M374 260c5 0 10 1 15 1c154 0 254 -127 254 -259c0 -76 -33 -153 -107 -208c-22 -17 -47 -29 -73 -37c3 -36 5 -72 5 -108c0 -19 0 -37 -1 -56c-7 -120 -88 -226 -206 -226c-108 0 -195 87 -195 195c0 58 53 104 112 104c54 0 95 -48 95 -104c0 -52 -43 -95 -95 -95
c-12 0 -24 4 -35 9c26 -41 70 -70 121 -70c1 0 2 1 3 1c93 2 154 93 160 192c1 18 2 35 2 53c0 32 -2 64 -5 96c-29 -5 -58 -8 -89 -8c-188 0 -333 171 -333 372c0 178 133 306 251 440c-18 63 -35 126 -42 191c-6 51 -7 102 -7 154c0 116 55 226 150 295c5 4 11 4 16 0
c70 -84 132 -246 132 -359c0 -144 -87 -256 -183 -365c20 -69 39 -138 55 -208zM459 -205c69 24 117 96 117 166c0 92 -69 184 -179 193c25 -117 48 -235 62 -359zM71 31c0 -136 131 -251 267 -251c28 0 55 2 82 6c-15 128 -38 247 -64 367c-79 -9 -125 -62 -125 -121
c0 -44 26 -92 82 -124c4 -4 7 -9 7 -14c0 -11 -9 -21 -20 -21c-3 0 -6 1 -9 2c-80 43 -116 114 -116 184c0 88 57 173 158 196c-14 60 -30 119 -46 178c-108 -121 -216 -242 -216 -402zM411 1050c-99 -50 -161 -151 -161 -262c0 -76 15 -137 33 -200c82 97 149 198 149 325
c0 58 -4 84 -21 137z" fill="currentColor"/>
</g>
<g transform="translate(12.7937, 38.0961)">
<path transform="scale(0.0040, -0.0040)" d="M222 135c53 0 104 -27 104 -86c0 -71 -56 -120 -103 -148c-36 -22 -76 -36 -118 -36c-53 0 -105 27 -105 86c0 71 57 120 104 148c36 22 76 36 118 36z" fill="currentColor"/>
</g>
<g transform="translate(12.8445, 38.5961)">
<rect x="-0.0508" y="-0.3033" width="0.1015" height="2.5008" ry="0.0267" fill="currentColor"/>
</g>
<g transform="translate(37.3973, 38.0961)">
<path transform="scale(0.0040, -0.0040)" d="M222 135c53 0 104 -27 104 -86c0 -71 -56 -120 -103 -148c-36 -22 -76 -36 -118 -36c-53 0 -105 27 -105 86c0 71 57 120 104 148c36 22 76 36 118 36z" fill="currentColor"/>
</g>
<g transform="translate(37.4481, 38.5961)">
<rect x="-0.0508" y="-0.3033" width="0.1015" height="3.1057" ry="0.0267" fill="currentColor"/>
</g>
<g transform="translate(40.3382, 38.5961)">
<rect x="-0.0508" y="0.1967" width="0.1015" height="2.7999" ry="0.0267" fill="currentColor"/>
</g>
<g transform="translate(31.8497, 38.5961)">
<rect x="-0.0508" y="-0.8033" width="0.1015" height="3.3033" ry="0.0267" fill="currentColor"/>
</g>
<g transform="translate(31.7989, 37.5961)">
<path transform="scale(0.0040, -0.0040)" d="M222 135c53 0 104 -27 104 -86c0 -71 -56 -120 -103 -148c-36 -22 -76 -36 -118 -36c-53 0 -105 27 -105 86c0 71 57 120 104 148c36 22 76 36 118 36z" fill="currentColor"/>
</g>
<g transform="translate(40.2874, 38.5961)">
<path transform="scale(0.0040, -0.0040)" d="M222 135c53 0 104 -27 104 -86c0 -71 -56 -120 -103 -148c-36 -22 -76 -36 -118 -36c-53 0 -105 27 -105 86c0 71 57 120 104 148c36 22 76 36 118 36z" fill="currentColor"/>
</g>
<g transform="translate(3.7937, 55.9544)">
<line stroke-linejoin="round" stroke-linecap="round" stroke-width="0.0781" stroke="currentColor" x1="0.0390" y1="0" x2="72.0413" y2="0"/>
</g>
<g transform="translate(3.7937, 54.9544)">
<line stroke-linejoin="round" stroke-linecap="round" stroke-width="0.0781" stroke="currentColor" x1="0.0390" y1="0" x2="72.0413" y2="0"/>
</g>
<g transform="translate(3.7937, 53.9544)">
<line stroke-linejoin="round" stroke-linecap="round" stroke-width="0.0781" stroke="currentColor" x1="0.0390" y1="0" x2="72.0413" y2="0"/>
</g>
<g transform="translate(3.7937, 52.9544)">
<line stroke-linejoin="round" stroke-linecap="round" stroke-width="0.0781" stroke="currentColor" x1="0.0390" y1="0" x2="72.0413" y2="0"/>
</g>
<g transform="translate(3.7937, 51.9544)">
<line stroke-linejoin="round" stroke-linecap="round" stroke-width="0.0781" stroke="currentColor" x1="0.0390" y1="0" x2="72.0413" y2="0"/>
</g>
<g transform="translate(67.7828, 53.9544)">
<rect x="0.0000" y="-2.0000" width="0.1484" height="4.0000" ry="0.0000" fill="currentColor"/>
</g>
<g transform="translate(33.4829, 53.9544)">
<rect x="0.0000" y="-2.0000" width="0.1484" height="4.0000" ry="0.0000" fill="currentColor"/>
</g>
<g transform="translate(75.4054, 53.9544)">
<rect x="0.0000" y="-2.0000" width="0.4686" height="4.0000" ry="0.0000" fill="currentColor"/>
</g>
<g transform="translate(75.0228, 53.9544)">
<rect x="0.0000" y="-2.0000" width="0.1484" height="4.0000" ry="0.0000" fill="currentColor"/>
</g>
<g transform="translate(46.3730, 53.9544)">
<rect x="0.0000" y="-2.0000" width="0.1484" height="4.0000" ry="0.0000" fill="currentColor"/>
</g>
<g transform="translate(25.2978, 53.9544)">
<rect x="0.0000" y="-2.0000" width="0.1484" height="4.0000" ry="0.0000" fill="currentColor"/>
</g>
<g transform="translate(57.7247, 53.9544)">
<rect x="0.0000" y="-2.0000" width="0.1484" height="4.0000" ry="0.0000" fill="currentColor"/>
</g>
<g transform="translate(52.7688, 53.9544)">
<rect x="-0.0508" y="-0.7316" width="0.1015" height="3.2316" ry="0.0267" fill="currentColor"/>
</g>
<g transform="translate(50.1356, 53.4544)">
<path transform="scale(0.0040, -0.0040)" d="M222 135c53 0 104 -27 104 -86c0 -71 -56 -120 -103 -148c-36 -22 -76 -36 -118 -36c-53 0 -105 27 -105 86c0 71 57 120 104 148c36 22 76 36 118 36z" fill="currentColor"/>
</g>
<g transform="translate(50.1863, 53.9544)">
<rect x="-0.0508" y="-0.3033" width="0.1015" height="3.1061" ry="0.0267" fill="currentColor"/>
</g>
<g transform="translate(52.7180, 52.9544)">
<path transform="scale(0.0040, -0.0040)" d="M316 67c0 25 -20 42 -42 42c-4 0 -9 -1 -13 -2c-31 -9 -79 -41 -117 -65s-86 -55 -107 -80c-7 -8 -10 -19 -10 -29c0 -25 20 -42 42 -42c4 0 9 1 13 2c31 9 79 41 117 65s86 55 107 80c7 8 10 19 10 29zM265 135c44 0 78 -21 78 -68c0 -19 -5 -39 -11 -57
c-12 -37 -33 -71 -65 -93c-53 -36 -114 -52 -189 -52c-44 0 -78 21 -78 68c0 19 5 39 11 57c12 37 33 71 65 93c53 36 114 52 189 52z" fill="currentColor"/>
</g>
<g transform="translate(42.2780, 55.4544)">
<path transform="scale(0.0040, -0.0040)" d="M222 135c53 0 104 -27 104 -86c0 -71 -56 -120 -103 -148c-36 -22 -76 -36 -118 -36c-53 0 -105 27 -105 86c0 71 57 120 104 148c36 22 76 36 118 36z" fill="currentColor"/>
</g>
<g transform="translate(58.9579, 52.9544)">
<path transform="scale(0.0040, -0.0040)" d="M316 67c0 25 -20 42 -42 42c-4 0 -9 -1 -13 -2c-31 -9 -79 -41 -117 -65s-86 -55 -107 -80c-7 -8 -10 -19 -10 -29c0 -25 20 -42 42 -42c4 0 9 1 13 2c31 9 79 41 117 65s86 55 107 80c7 8 10 19 10 29zM265 135c44 0 78 -21 78 -68c0 -19 -5 -39 -11 -57
c-12 -37 -33 -71 -65 -93c-53 -36 -114 -52 -189 -52c-44 0 -78 21 -78 68c0 19 5 39 11 57c12 37 33 71 65 93c53 36 114 52 189 52z" fill="currentColor"/>
</g>
<g transform="translate(59.0087, 53.9544)">
<rect x="-0.0508" y="-0.7316" width="0.1015" height="3.2316" ry="0.0267" fill="currentColor"/>
</g>
<g transform="translate(12.7937, 53.9544)">
<path stroke-width="0.0625" stroke-linejoin="round" stroke-linecap="round" stroke="currentColor" fill="currentColor" d="M0.6719 -2.6889C2.9236 -4.2194 13.4420 -3.7600 15.5517 -2.0389L15.5517 -2.0389C13.4379 -3.6663 2.9195 -4.1258 0.6719 -2.6889z"/>
</g>
<g transform="translate(43.5331, 53.9544)">
<rect x="-0.0508" y="-2.0000" width="0.1015" height="3.3033" ry="0.0267" fill="currentColor"/>
</g>
<g transform="translate(47.5532, 53.9544)">
<path transform="scale(0.0040, -0.0040)" d="M222 135c53 0 104 -27 104 -86c0 -71 -56 -120 -103 -148c-36 -22 -76 -36 -118 -36c-53 0 -105 27 -105 86c0 71 57 120 104 148c36 22 76 36 118 36z" fill="currentColor"/>
</g>
<g transform="translate(47.6039, 53.9544)">
<rect x="-0.0508" y="0.1967" width="0.1015" height="2.7995" ry="0.0267" fill="currentColor"/>
</g>
<g transform="translate(58.9579, 53.9544)">
<path stroke-width="0.0625" stroke-linejoin="round" stroke-linecap="round" stroke="currentColor" fill="currentColor" d="M0.6860 -2.1889C2.5716 -3.6862 9.8585 -3.6862 11.7441 -2.1889L11.7441 -2.1889C9.8585 -3.5925 2.5716 -3.5925 0.6860 -2.1889z"/>
</g>
<g transform="translate(47.5532, 56.9544)">
<polygon stroke-linejoin="round" stroke-linecap="round" stroke-width="0.0533" fill="currentColor" stroke="currentColor" points="2.6573 -0.4143 2.6573 0.0124 0.0267 0.2133 0.0267 -0.2133"/>
</g>
<g transform="translate(34.5600, 53.9544)">
<path stroke-width="0.0625" stroke-linejoin="round" stroke-linecap="round" stroke="currentColor" fill="currentColor" d="M1.6058 -1.0389C3.8155 -2.8716 16.3797 -3.7112 18.8136 -2.1889L18.8136 -2.1889C16.3859 -3.6177 3.8217 -2.7781 1.6058 -1.0389z"/>
</g>
<g transform="translate(12.7937, 56.1554)">
<polygon stroke-linejoin="round" stroke-linecap="round" stroke-width="0.0533" fill="currentColor" stroke="currentColor" points="2.4073 0.3848 2.4073 0.8114 0.0267 0.2133 0.0267 -0.2133"/>
</g>
<g transform="translate(64.1598, 52.4544)">
<path transform="scale(0.0040, -0.0040)" d="M222 135c53 0 104 -27 104 -86c0 -71 -56 -120 -103 -148c-36 -22 -76 -36 -118 -36c-53 0 -105 27 -105 86c0 71 57 120 104 148c36 22 76 36 118 36z" fill="currentColor"/>
</g>
<g transform="translate(64.2105, 53.9544)">
<rect x="-0.0508" y="-1.3033" width="0.1015" height="3.3033" ry="0.0267" fill="currentColor"/>
</g>
<g transform="translate(70.0160, 52.9544)">
<path transform="scale(0.0040, -0.0040)" d="M316 67c0 25 -20 42 -42 42c-4 0 -9 -1 -13 -2c-31 -9 -79 -41 -117 -65s-86 -55 -107 -80c-7 -8 -10 -19 -10 -29c0 -25 20 -42 42 -42c4 0 9 1 13 2c31 9 79 41 117 65s86 55 107 80c7 8 10 19 10 29zM265 135c44 0 78 -21 78 -68c0 -19 -5 -39 -11 -57
c-12 -37 -33 -71 -65 -93c-53 -36 -114 -52 -189 -52c-44 0 -78 21 -78 68c0 19 5 39 11 57c12 37 33 71 65 93c53 36 114 52 189 52z" fill="currentColor"/>
</g>
<g transform="translate(70.0668, 53.9544)">
<rect x="-0.0508" y="-0.7316" width="0.1015" height="3.2316" ry="0.0267" fill="currentColor"/>
</g>
<g transform="translate(15.1261, 53.9544)">
<path transform="scale(0.0040, -0.0040)" d="M222 135c53 0 104 -27 104 -86c0 -71 -56 -120 -103 -148c-36 -22 -76 -36 -118 -36c-53 0 -105 27 -105 86c0 71 57 120 104 148c36 22 76 36 118 36z" fill="currentColor"/>
</g>
<g transform="translate(15.1769, 53.9544)">
<rect x="-0.0508" y="0.1967" width="0.1015" height="2.5898" ry="0.0267" fill="currentColor"/>
</g>
<g transform="translate(17.6933, 54.4544)">
<path transform="scale(0.0040, -0.0040)" d="M222 135c53 0 104 -27 104 -86c0 -71 -56 -120 -103 -148c-36 -22 -76 -36 -118 -36c-53 0 -105 27 -105 86c0 71 57 120 104 148c36 22 76 36 118 36z" fill="currentColor"/>
</g>
<g transform="translate(18.9484, 53.9544)">
<rect x="-0.0508" y="-3.0000" width="0.1015" height="3.3033" ry="0.0267" fill="currentColor"/>
</g>
<g transform="translate(21.5676, 53.9544)">
<path transform="scale(0.0040, -0.0040)" d="M222 135c53 0 104 -27 104 -86c0 -71 -56 -120 -103 -148c-36 -22 -76 -36 -118 -36c-53 0 -105 27 -105 86c0 71 57 120 104 148c36 22 76 36 118 36z" fill="currentColor"/>
</g>
<g transform="translate(21.6183, 53.9544)">
<rect x="-0.0508" y="0.1967" width="0.1015" height="3.1366" ry="0.0267" fill="currentColor"/>
</g>
<g transform="translate(29.2037, 54.4544)">
<path transform="scale(0.0040, -0.0040)" d="M0 0c0 32 25 57 57 57s57 -25 57 -57s-25 -57 -57 -57s-57 25 -57 57z" fill="currentColor"/>
</g>
<g transform="translate(28.6961, 53.9544)">
<rect x="-0.0508" y="-3.0000" width="0.1015" height="3.2316" ry="0.0267" fill="currentColor"/>
</g>
<g transform="translate(1.5630, 50.9154)">
<text font-family="serif" font-size="1.7461" text-anchor="start" fill="currentColor">
<tspan>11</tspan>
</text>
</g>
<g transform="translate(4.5937, 54.9544)">
<path transform="scale(0.0040, -0.0040)" d="M374 260c5 0 10 1 15 1c154 0 254 -127 254 -259c0 -76 -33 -153 -107 -208c-22 -17 -47 -29 -73 -37c3 -36 5 -72 5 -108c0 -19 0 -37 -1 -56c-7 -120 -88 -226 -206 -226c-108 0 -195 87 -195 195c0 58 53 104 112 104c54 0 95 -48 95 -104c0 -52 -43 -95 -95 -95
c-12 0 -24 4 -35 9c26 -41 70 -70 121 -70c1 0 2 1 3 1c93 2 154 93 160 192c1 18 2 35 2 53c0 32 -2 64 -5 96c-29 -5 -58 -8 -89 -8c-188 0 -333 171 -333 372c0 178 133 306 251 440c-18 63 -35 126 -42 191c-6 51 -7 102 -7 154c0 116 55 226 150 295c5 4 11 4 16 0
c70 -84 132 -246 132 -359c0 -144 -87 -256 -183 -365c20 -69 39 -138 55 -208zM459 -205c69 24 117 96 117 166c0 92 -69 184 -179 193c25 -117 48 -235 62 -359zM71 31c0 -136 131 -251 267 -251c28 0 55 2 82 6c-15 128 -38 247 -64 367c-79 -9 -125 -62 -125 -121
c0 -44 26 -92 82 -124c4 -4 7 -9 7 -14c0 -11 -9 -21 -20 -21c-3 0 -6 1 -9 2c-80 43 -116 114 -116 184c0 88 57 173 158 196c-14 60 -30 119 -46 178c-108 -121 -216 -242 -216 -402zM411 1050c-99 -50 -161 -151 -161 -262c0 -76 15 -137 33 -200c82 97 149 198 149 325
c0 58 -4 84 -21 137z" fill="currentColor"/>
</g>
<g transform="translate(8.0937, 51.9544)">
<path transform="scale(0.0040, -0.0040)" d="M215 -316c0 -9 -8 -17 -17 -17s-17 8 -17 17v151l-87 -31v-162c0 -9 -8 -17 -17 -17s-17 8 -17 17v150l-39 -13c-10 -4 -21 4 -21 15v64c0 7 5 13 11 15l49 18v164l-39 -14c-10 -4 -21 4 -21 15v65c0 7 5 13 11 15l49 17v163c0 9 8 17 17 17s17 -8 17 -17v-151l87 31v162
c0 9 8 17 17 17s17 -8 17 -17v-150l39 13c10 4 21 -4 21 -15v-64c0 -7 -5 -13 -11 -15l-49 -18v-164l39 14c10 4 21 -4 21 -15v-65c0 -7 -5 -13 -11 -15l-49 -17v-163zM94 67v-164l87 30v164z" fill="currentColor"/>
</g>
<g transform="translate(9.1937, 53.4544)">
<path transform="scale(0.0040, -0.0040)" d="M215 -316c0 -9 -8 -17 -17 -17s-17 8 -17 17v151l-87 -31v-162c0 -9 -8 -17 -17 -17s-17 8 -17 17v150l-39 -13c-10 -4 -21 4 -21 15v64c0 7 5 13 11 15l49 18v164l-39 -14c-10 -4 -21 4 -21 15v65c0 7 5 13 11 15l49 17v163c0 9 8 17 17 17s17 -8 17 -17v-151l87 31v162
c0 9 8 17 17 17s17 -8 17 -17v-150l39 13c10 4 21 -4 21 -15v-64c0 -7 -5 -13 -11 -15l-49 -18v-164l39 14c10 4 21 -4 21 -15v-65c0 -7 -5 -13 -11 -15l-49 -17v-163zM94 67v-164l87 30v164z" fill="currentColor"/>
</g>
<g transform="translate(27.3749, 54.4544)">
<path transform="scale(0.0040, -0.0040)" d="M316 67c0 25 -20 42 -42 42c-4 0 -9 -1 -13 -2c-31 -9 -79 -41 -117 -65s-86 -55 -107 -80c-7 -8 -10 -19 -10 -29c0 -25 20 -42 42 -42c4 0 9 1 13 2c31 9 79 41 117 65s86 55 107 80c7 8 10 19 10 29zM265 135c44 0 78 -21 78 -68c0 -19 -5 -39 -11 -57
c-12 -37 -33 -71 -65 -93c-53 -36 -114 -52 -189 -52c-44 0 -78 21 -78 68c0 19 5 39 11 57c12 37 33 71 65 93c53 36 114 52 189 52z" fill="currentColor"/>
</g>
<g transform="translate(12.7937, 52.9544)">
<path transform="scale(0.0040, -0.0040)" d="M222 135c53 0 104 -27 104 -86c0 -71 -56 -120 -103 -148c-36 -22 -76 -36 -118 -36c-53 0 -105 27 -105 86c0 71 57 120 104 148c36 22 76 36 118 36z" fill="currentColor"/>
</g>
<g transform="translate(12.8445, 53.9544)">
<rect x="-0.0508" y="-0.8033" width="0.1015" height="3.0167" ry="0.0267" fill="currentColor"/>
</g>
<g transform="translate(34.5600, 55.4544)">
<path transform="scale(0.0040, -0.0040)" d="M222 135c53 0 104 -27 104 -86c0 -71 -56 -120 -103 -148c-36 -22 -76 -36 -118 -36c-53 0 -105 27 -105 86c0 71 57 120 104 148c36 22 76 36 118 36z" fill="currentColor"/>
</g>
<g transform="translate(35.8151, 53.9544)">
<rect x="-0.0508" y="-2.0000" width="0.1015" height="3.3033" ry="0.0267" fill="currentColor"/>
</g>
<g transform="translate(38.4190, 55.9544)">
<path transform="scale(0.0040, -0.0040)" d="M222 135c53 0 104 -27 104 -86c0 -71 -56 -120 -103 -148c-36 -22 -76 -36 -118 -36c-53 0 -105 27 -105 86c0 71 57 120 104 148c36 22 76 36 118 36z" fill="currentColor"/>
</g>
<g transform="translate(39.6741, 53.9544)">
<rect x="-0.0508" y="-1.5000" width="0.1015" height="3.3033" ry="0.0267" fill="currentColor"/>
</g>
<g transform="translate(36.9690, 55.9544)">
<path transform="scale(0.0040, -0.0040)" d="M215 -316c0 -9 -8 -17 -17 -17s-17 8 -17 17v151l-87 -31v-162c0 -9 -8 -17 -17 -17s-17 8 -17 17v150l-39 -13c-10 -4 -21 4 -21 15v64c0 7 5 13 11 15l49 18v164l-39 -14c-10 -4 -21 4 -21 15v65c0 7 5 13 11 15l49 17v163c0 9 8 17 17 17s17 -8 17 -17v-151l87 31v162
c0 9 8 17 17 17s17 -8 17 -17v-150l39 13c10 4 21 -4 21 -15v-64c0 -7 -5 -13 -11 -15l-49 -18v-164l39 14c10 4 21 -4 21 -15v-65c0 -7 -5 -13 -11 -15l-49 -17v-163zM94 67v-164l87 30v164z" fill="currentColor"/>
</g>
</svg>
