<svg xmlns="http://www.w3.org/2000/svg" xmlns:xlink="http://www.w3.org/1999/xlink" version="1.2" width="210.00mm" height="297.00mm" viewBox="0 0 79.6677 112.6729">
<style type="text/css">
<![CDATA[
tspan { white-space: pre; }
]]>
</style>
<!-- Page: 1/1 -->
<g transform="translate(22.5004, 5.5600)">
<text font-family="serif" font-weight="bold" font-size="3.4925" text-anchor="start" fill="currentColor">
<tspan>Requiem of Spirit</tspan>
</text>
</g>
<g transform="translate(63.7873, 9.0600)">
<text font-family="serif" font-size="2.2003" text-anchor="start" fill="currentColor">
<tspan>Kōji Kondo</tspan>
</text>
</g>
<g transform="translate(3.7937, 11.7680)">
<text font-family="serif" font-size="2.2003" text-anchor="start" fill="currentColor">
<tspan>The Legend of Zelda:</tspan>
</text>
</g>
<g transform="translate(3.7937, 14.7680)">
<text font-family="serif" font-size="2.2003" text-anchor="start" fill="currentColor">
<tspan>Ocarina of Time</tspan>
</text>
</g>
<g transform="translate(3.7937, 27.8053)">
<line stroke-linejoin="round" stroke-linecap="round" stroke-width="0.0781" stroke="currentColor" x1="0.0390" y1="0" x2="60.9783" y2="0"/>
</g>
<g transform="translate(3.7937, 26.8053)">
<line stroke-linejoin="round" stroke-linecap="round" stroke-width="0.0781" stroke="currentColor" x1="0.0390" y1="0" x2="60.9783" y2="0"/>
</g>
<g transform="translate(3.7937, 25.8053)">
<line stroke-linejoin="round" stroke-linecap="round" stroke-width="0.0781" stroke="currentColor" x1="0.0390" y1="0" x2="60.9783" y2="0"/>
</g>
<g transform="translate(3.7937, 24.8053)">
<line stroke-linejoin="round" stroke-linecap="round" stroke-width="0.0781" stroke="currentColor" x1="0.0390" y1="0" x2="60.9783" y2="0"/>
</g>
<g transform="translate(3.7937, 23.8053)">
<line stroke-linejoin="round" stroke-linecap="round" stroke-width="0.0781" stroke="currentColor" x1="0.0390" y1="0" x2="60.9783" y2="0"/>
</g>
<g transform="translate(37.7093, 25.8053)">
<rect x="0.0000" y="-2.0000" width="0.1484" height="4.0000" ry="0.0000" fill="currentColor"/>
</g>
<g transform="translate(28.8722, 25.8053)">
<rect x="0.0000" y="-2.0000" width="0.1484" height="4.0000" ry="0.0000" fill="currentColor"/>
</g>
<g transform="translate(55.1227, 25.8053)">
<rect x="0.0000" y="-2.0000" width="0.1484" height="4.0000" ry="0.0000" fill="currentColor"/>
</g>
<g transform="translate(64.3425, 25.8053)">
<rect x="0.0000" y="-2.0000" width="0.4686" height="4.0000" ry="0.0000" fill="currentColor"/>
</g>
<g transform="translate(63.9598, 25.8053)">
<rect x="0.0000" y="-2.0000" width="0.1484" height="4.0000" ry="0.0000" fill="currentColor"/>
</g>
<g transform="translate(44.9693, 28.3053)">
<path transform="scale(0.0040, -0.0040)" d="M222 135c53 0 104 -27 104 -86c0 -71 -56 -120 -103 -148c-36 -22 -76 -36 -118 -36c-53 0 -105 27 -105 86c0 71 57 120 104 148c36 22 76 36 118 36z" fill="currentColor"/>
</g>
<g transform="translate(46.2244, 25.8053)">
<rect x="-0.0508" y="-1.2138" width="0.1015" height="3.5171" ry="0.0267" fill="currentColor"/>
</g>
<g transform="translate(47.7251, 26.3053)">
<path transform="scale(0.0040, -0.0040)" d="M222 135c53 0 104 -27 104 -86c0 -71 -56 -120 -103 -148c-36 -22 -76 -36 -118 -36c-53 0 -105 27 -105 86c0 71 57 120 104 148c36 22 76 36 118 36z" fill="currentColor"/>
</g>
<g transform="translate(48.9802, 25.8053)">
<rect x="-0.0508" y="-3.0000" width="0.1015" height="3.3033" ry="0.0267" fill="currentColor"/>
</g>
<g transform="translate(40.0128, 25.8053)">
<rect x="-0.0508" y="-1.0000" width="0.1015" height="3.3033" ry="0.0267" fill="currentColor"/>
</g>
<g transform="translate(43.9686, 25.8053)">
<rect x="-0.0508" y="-1.7862" width="0.1015" height="3.0894" ry="0.0267" fill="currentColor"/>
</g>
<g transform="translate(42.7135, 27.3053)">
<path transform="scale(0.0040, -0.0040)" d="M222 135c53 0 104 -27 104 -86c0 -71 -56 -120 -103 -148c-36 -22 -76 -36 -118 -36c-53 0 -105 27 -105 86c0 71 57 120 104 148c36 22 76 36 118 36z" fill="currentColor"/>
</g>
<g transform="translate(17.6673, 24.0063)">
<polygon stroke-linejoin="round" stroke-linecap="round" stroke-width="0.0533" fill="currentColor" stroke="currentColor" points="2.3307 0.3848 2.3307 0.8114 0.0267 0.2133 0.0267 -0.2133"/>
</g>
<g transform="translate(43.9178, 24.0063)">
<polygon stroke-linejoin="round" stroke-linecap="round" stroke-width="0.0533" fill="currentColor" stroke="currentColor" points="2.3307 0.3848 2.3307 0.8114 0.0267 0.2133 0.0267 -0.2133"/>
</g>
<g transform="translate(51.1810, 27.3053)">
<path transform="scale(0.0040, -0.0040)" d="M222 135c53 0 104 -27 104 -86c0 -71 -56 -120 -103 -148c-36 -22 -76 -36 -118 -36c-53 0 -105 27 -105 86c0 71 57 120 104 148c36 22 76 36 118 36z" fill="currentColor"/>
</g>
<g transform="translate(57.1711, 28.3053)">
<path transform="scale(0.0040, -0.0040)" d="M215 114c-50 0 -71 -42 -71 -88c0 -79 60 -140 139 -140c50 0 70 42 70 88c0 79 -59 140 -138 140zM497 0c0 -43 -35 -74 -73 -95c-54 -29 -114 -40 -175 -40s-122 11 -176 40c-38 21 -73 52 -73 95s35 74 73 95c54 29 115 40 176 40s121 -11 175 -40
c38 -21 73 -52 73 -95z" fill="currentColor"/>
</g>
<g transform="translate(52.4360, 25.8053)">
<rect x="-0.0508" y="-2.0000" width="0.1015" height="3.3033" ry="0.0267" fill="currentColor"/>
</g>
<g transform="translate(18.7189, 28.3053)">
<path transform="scale(0.0040, -0.0040)" d="M222 135c53 0 104 -27 104 -86c0 -71 -56 -120 -103 -148c-36 -22 -76 -36 -118 -36c-53 0 -105 27 -105 86c0 71 57 120 104 148c36 22 76 36 118 36z" fill="currentColor"/>
</g>
<g transform="translate(16.4631, 27.3053)">
<path transform="scale(0.0040, -0.0040)" d="M222 135c53 0 104 -27 104 -86c0 -71 -56 -120 -103 -148c-36 -22 -76 -36 -118 -36c-53 0 -105 27 -105 86c0 71 57 120 104 148c36 22 76 36 118 36z" fill="currentColor"/>
</g>
<g transform="translate(17.7181, 25.8053)">
<rect x="-0.0508" y="-1.7862" width="0.1015" height="3.0894" ry="0.0267" fill="currentColor"/>
</g>
<g transform="translate(19.9739, 25.8053)">
<rect x="-0.0508" y="-1.2138" width="0.1015" height="3.5171" ry="0.0267" fill="currentColor"/>
</g>
<g transform="translate(21.4747, 26.3053)">
<path transform="scale(0.0040, -0.0040)" d="M222 135c53 0 104 -27 104 -86c0 -71 -56 -120 -103 -148c-36 -22 -76 -36 -118 -36c-53 0 -105 27 -105 86c0 71 57 120 104 148c36 22 76 36 118 36z" fill="currentColor"/>
</g>
<g transform="translate(22.7297, 25.8053)">
<rect x="-0.0508" y="-3.0000" width="0.1015" height="3.3033" ry="0.0267" fill="currentColor"/>
</g>
<g transform="translate(8.7937, 22.4634)">
<rect x="1.0475" y="-2.6727" width="0.1158" height="2.4974" ry="0.0193" fill="currentColor"/>
</g>
<g transform="translate(8.7937, 22.4634)">
<path transform="scale(0.0036, -0.0036)" d="M222 135c53 0 104 -27 104 -86c0 -71 -56 -120 -103 -148c-36 -22 -76 -36 -118 -36c-53 0 -105 27 -105 86c0 71 57 120 104 148c36 22 76 36 118 36z" fill="currentColor"/>
</g>
<g transform="translate(9.9570, 22.9435)">
<text font-family="serif" font-size="2.2003" text-anchor="start" fill="currentColor">
<tspan> = 80</tspan>
</text>
</g>
<g transform="translate(12.5072, 28.3053)">
<path transform="scale(0.0040, -0.0040)" d="M222 135c53 0 104 -27 104 -86c0 -71 -56 -120 -103 -148c-36 -22 -76 -36 -118 -36c-53 0 -105 27 -105 86c0 71 57 120 104 148c36 22 76 36 118 36z" fill="currentColor"/>
</g>
<g transform="translate(4.5937, 26.8053)">
<path transform="scale(0.0040, -0.0040)" d="M374 260c5 0 10 1 15 1c154 0 254 -127 254 -259c0 -76 -33 -153 -107 -208c-22 -17 -47 -29 -73 -37c3 -36 5 -72 5 -108c0 -19 0 -37 -1 -56c-7 -120 -88 -226 -206 -226c-108 0 -195 87 -195 195c0 58 53 104 112 104c54 0 95 -48 95 -104c0 -52 -43 -95 -95 -95
c-12 0 -24 4 -35 9c26 -41 70 -70 121 -70c1 0 2 1 3 1c93 2 154 93 160 192c1 18 2 35 2 53c0 32 -2 64 -5 96c-29 -5 -58 -8 -89 -8c-188 0 -333 171 -333 372c0 178 133 306 251 440c-18 63 -35 126 -42 191c-6 51 -7 102 -7 154c0 116 55 226 150 295c5 4 11 4 16 0
c70 -84 132 -246 132 -359c0 -144 -87 -256 -183 -365c20 -69 39 -138 55 -208zM459 -205c69 24 117 96 117 166c0 92 -69 184 -179 193c25 -117 48 -235 62 -359zM71 31c0 -136 131 -251 267 -251c28 0 55 2 82 6c-15 128 -38 247 -64 367c-79 -9 -125 -62 -125 -121
c0 -44 26 -92 82 -124c4 -4 7 -9 7 -14c0 -11 -9 -21 -20 -21c-3 0 -6 1 -9 2c-80 43 -116 114 -116 184c0 88 57 173 158 196c-14 60 -30 119 -46 178c-108 -121 -216 -242 -216 -402zM411 1050c-99 -50 -161 -151 -161 -262c0 -76 15 -137 33 -200c82 97 149 198 149 325
c0 58 -4 84 -21 137z" fill="currentColor"/>
</g>
<g transform="translate(8.7937, 25.8053)">
<path transform="scale(0.0040, -0.0040)" d="M360 25c-51 0 -76 43 -76 77c0 39 28 78 74 78c6 0 13 0 18 -1c-29 37 -76 60 -126 60c-106 0 -113 -73 -113 -185v-54v-54c0 -112 7 -185 113 -185c82 0 145 68 164 151c1 6 6 9 10 9c6 0 11 -4 11 -11c0 -94 -107 -171 -185 -171c-68 0 -137 20 -184 69
c-49 51 -66 122 -66 192s17 141 66 192c47 49 116 69 184 69c88 0 163 -62 178 -148c1 -5 2 -9 2 -14c0 -40 -32 -74 -70 -74z" fill="currentColor"/>
</g>
<g transform="translate(13.7623, 25.8053)">
<rect x="-0.0508" y="-1.0000" width="0.1015" height="3.3033" ry="0.0267" fill="currentColor"/>
</g>
<g transform="translate(30.9206, 28.3053)">
<path transform="scale(0.0040, -0.0040)" d="M215 114c-50 0 -71 -42 -71 -88c0 -79 60 -140 139 -140c50 0 70 42 70 88c0 79 -59 140 -138 140zM497 0c0 -43 -35 -74 -73 -95c-54 -29 -114 -40 -175 -40s-122 11 -176 40c-38 21 -73 52 -73 95s35 74 73 95c54 29 115 40 176 40s121 -11 175 -40
c38 -21 73 -52 73 -95z" fill="currentColor"/>
</g>
<g transform="translate(38.7577, 28.3053)">
<path transform="scale(0.0040, -0.0040)" d="M222 135c53 0 104 -27 104 -86c0 -71 -56 -120 -103 -148c-36 -22 -76 -36 -118 -36c-53 0 -105 27 -105 86c0 71 57 120 104 148c36 22 76 36 118 36z" fill="currentColor"/>
</g>
<g transform="translate(26.1855, 25.8053)">
<rect x="-0.0508" y="-2.0000" width="0.1015" height="3.3033" ry="0.0267" fill="currentColor"/>
</g>
<g transform="translate(24.9305, 27.3053)">
<path transform="scale(0.0040, -0.0040)" d="M222 135c53 0 104 -27 104 -86c0 -71 -56 -120 -103 -148c-36 -22 -76 -36 -118 -36c-53 0 -105 27 -105 86c0 71 57 120 104 148c36 22 76 36 118 36z" fill="currentColor"/>
</g>
</svg>
