<svg xmlns="http://www.w3.org/2000/svg" xmlns:xlink="http://www.w3.org/1999/xlink" version="1.2" width="210.00mm" height="297.00mm" viewBox="0 0 79.6677 112.6729">
<style type="text/css">
<![CDATA[
tspan { white-space: pre; }
]]>
</style>
<!-- Page: 1/1 -->
<g transform="translate(24.0938, 5.5503)">
<text font-family="serif" font-weight="bold" font-size="3.4925" text-anchor="start" fill="currentColor">
<tspan>Song of Healing</tspan>
</text>
</g>
<g transform="translate(28.2365, 9.0503)">
<text font-family="serif" font-weight="bold" font-size="1.9602" text-anchor="start" fill="currentColor">
<tspan>The Legend of Zelda:</tspan>
</text>
</g>
<g transform="translate(31.7874, 12.1685)">
<text font-family="serif" font-weight="bold" font-size="1.9602" text-anchor="start" fill="currentColor">
<tspan>Majora’s Mask</tspan>
</text>
</g>
<g transform="translate(63.7645, 14.2757)">
<text font-family="serif" font-size="2.2003" text-anchor="start" fill="currentColor">
<tspan>Kōji Kondo</tspan>
</text>
</g>
<g transform="translate(3.7937, 28.7875)">
<line stroke-linejoin="round" stroke-linecap="round" stroke-width="0.0781" stroke="currentColor" x1="0.0390" y1="0" x2="72.0413" y2="0"/>
</g>
<g transform="translate(3.7937, 27.7875)">
<line stroke-linejoin="round" stroke-linecap="round" stroke-width="0.0781" stroke="currentColor" x1="0.0390" y1="0" x2="72.0413" y2="0"/>
</g>
<g transform="translate(3.7937, 26.7875)">
<line stroke-linejoin="round" stroke-linecap="round" stroke-width="0.0781" stroke="currentColor" x1="0.0390" y1="0" x2="72.0413" y2="0"/>
</g>
<g transform="translate(3.7937, 25.7875)">
<line stroke-linejoin="round" stroke-linecap="round" stroke-width="0.0781" stroke="currentColor" x1="0.0390" y1="0" x2="72.0413" y2="0"/>
</g>
<g transform="translate(3.7937, 24.7875)">
<line stroke-linejoin="round" stroke-linecap="round" stroke-width="0.0781" stroke="currentColor" x1="0.0390" y1="0" x2="72.0413" y2="0"/>
</g>
<g transform="translate(20.5362, 26.7875)">
<rect x="0.0000" y="-2.0000" width="0.1484" height="4.0000" ry="0.0000" fill="currentColor"/>
</g>
<g transform="translate(65.2365, 26.7875)">
<rect x="0.0000" y="-2.0000" width="0.1484" height="4.0000" ry="0.0000" fill="currentColor"/>
</g>
<g transform="translate(46.7330, 26.7875)">
<rect x="0.0000" y="-2.0000" width="0.1484" height="4.0000" ry="0.0000" fill="currentColor"/>
</g>
<g transform="translate(29.7880, 26.7875)">
<rect x="0.0000" y="-2.0000" width="0.1484" height="4.0000" ry="0.0000" fill="currentColor"/>
</g>
<g transform="translate(55.9847, 26.7875)">
<rect x="0.0000" y="-2.0000" width="0.1484" height="4.0000" ry="0.0000" fill="currentColor"/>
</g>
<g transform="translate(75.7256, 26.7875)">
<rect x="0.0000" y="-2.0000" width="0.1484" height="4.0000" ry="0.0000" fill="currentColor"/>
</g>
<g transform="translate(40.2771, 26.7875)">
<rect x="0.0000" y="-2.0000" width="0.1484" height="4.0000" ry="0.0000" fill="currentColor"/>
</g>
<g transform="translate(53.0150, 28.2875)">
<path transform="scale(0.0040, -0.0040)" d="M222 135c53 0 104 -27 104 -86c0 -71 -56 -120 -103 -148c-36 -22 -76 -36 -118 -36c-53 0 -105 27 -105 86c0 71 57 120 104 148c36 22 76 36 118 36z" fill="currentColor"/>
</g>
<g transform="translate(54.2701, 26.7875)">
<rect x="-0.0508" y="-2.0000" width="0.1015" height="3.3033" ry="0.0267" fill="currentColor"/>
</g>
<g transform="translate(57.0646, 26.7875)">
<path transform="scale(0.0040, -0.0040)" d="M222 135c53 0 104 -27 104 -86c0 -71 -56 -120 -103 -148c-36 -22 -76 -36 -118 -36c-53 0 -105 27 -105 86c0 71 57 120 104 148c36 22 76 36 118 36z" fill="currentColor"/>
</g>
<g transform="translate(57.1153, 26.7875)">
<rect x="-0.0508" y="0.1967" width="0.1015" height="3.1366" ry="0.0267" fill="currentColor"/>
</g>
<g transform="translate(37.2743, 25.7875)">
<polygon stroke-linejoin="round" stroke-linecap="round" stroke-width="0.0533" fill="currentColor" stroke="currentColor" points="2.0534 -0.0124 2.0534 0.4143 0.0267 0.2133 0.0267 -0.2133"/>
</g>
<g transform="translate(47.8128, 26.7875)">
<path transform="scale(0.0040, -0.0040)" d="M222 135c53 0 104 -27 104 -86c0 -71 -56 -120 -103 -148c-36 -22 -76 -36 -118 -36c-53 0 -105 27 -105 86c0 71 57 120 104 148c36 22 76 36 118 36z" fill="currentColor"/>
</g>
<g transform="translate(47.8636, 26.7875)">
<rect x="-0.0508" y="0.1967" width="0.1015" height="3.1366" ry="0.0267" fill="currentColor"/>
</g>
<g transform="translate(50.5313, 27.2875)">
<path transform="scale(0.0040, -0.0040)" d="M222 135c53 0 104 -27 104 -86c0 -71 -56 -120 -103 -148c-36 -22 -76 -36 -118 -36c-53 0 -105 27 -105 86c0 71 57 120 104 148c36 22 76 36 118 36z" fill="currentColor"/>
</g>
<g transform="translate(51.7864, 26.7875)">
<rect x="-0.0508" y="-3.0000" width="0.1015" height="3.3033" ry="0.0267" fill="currentColor"/>
</g>
<g transform="translate(71.5185, 28.7875)">
<path transform="scale(0.0040, -0.0040)" d="M222 135c53 0 104 -27 104 -86c0 -71 -56 -120 -103 -148c-36 -22 -76 -36 -118 -36c-53 0 -105 27 -105 86c0 71 57 120 104 148c36 22 76 36 118 36z" fill="currentColor"/>
</g>
<g transform="translate(72.7736, 26.7875)">
<rect x="-0.0508" y="-0.9951" width="0.1015" height="2.7984" ry="0.0267" fill="currentColor"/>
</g>
<g transform="translate(73.4971, 29.2875)">
<path transform="scale(0.0040, -0.0040)" d="M222 135c53 0 104 -27 104 -86c0 -71 -56 -120 -103 -148c-36 -22 -76 -36 -118 -36c-53 0 -105 27 -105 86c0 71 57 120 104 148c36 22 76 36 118 36z" fill="currentColor"/>
</g>
<g transform="translate(74.7521, 26.7875)">
<rect x="-0.0508" y="-0.8040" width="0.1015" height="3.1072" ry="0.0267" fill="currentColor"/>
</g>
<g transform="translate(70.2899, 26.7875)">
<rect x="-0.0508" y="-3.0000" width="0.1015" height="3.3033" ry="0.0267" fill="currentColor"/>
</g>
<g transform="translate(72.7228, 25.7875)">
<polygon stroke-linejoin="round" stroke-linecap="round" stroke-width="0.0533" fill="currentColor" stroke="currentColor" points="2.0534 -0.0124 2.0534 0.4143 0.0267 0.2133 0.0267 -0.2133"/>
</g>
<g transform="translate(61.0381, 26.7875)">
<rect x="-0.0508" y="-3.0000" width="0.1015" height="3.3033" ry="0.0267" fill="currentColor"/>
</g>
<g transform="translate(62.2668, 28.2875)">
<path transform="scale(0.0040, -0.0040)" d="M222 135c53 0 104 -27 104 -86c0 -71 -56 -120 -103 -148c-36 -22 -76 -36 -118 -36c-53 0 -105 27 -105 86c0 71 57 120 104 148c36 22 76 36 118 36z" fill="currentColor"/>
</g>
<g transform="translate(63.5218, 26.7875)">
<rect x="-0.0508" y="-2.0000" width="0.1015" height="3.3033" ry="0.0267" fill="currentColor"/>
</g>
<g transform="translate(66.3163, 26.7875)">
<path transform="scale(0.0040, -0.0040)" d="M222 135c53 0 104 -27 104 -86c0 -71 -56 -120 -103 -148c-36 -22 -76 -36 -118 -36c-53 0 -105 27 -105 86c0 71 57 120 104 148c36 22 76 36 118 36z" fill="currentColor"/>
</g>
<g transform="translate(66.3671, 26.7875)">
<rect x="-0.0508" y="0.1967" width="0.1015" height="3.1366" ry="0.0267" fill="currentColor"/>
</g>
<g transform="translate(59.7831, 27.2875)">
<path transform="scale(0.0040, -0.0040)" d="M222 135c53 0 104 -27 104 -86c0 -71 -56 -120 -103 -148c-36 -22 -76 -36 -118 -36c-53 0 -105 27 -105 86c0 71 57 120 104 148c36 22 76 36 118 36z" fill="currentColor"/>
</g>
<g transform="translate(69.0348, 27.2875)">
<path transform="scale(0.0040, -0.0040)" d="M222 135c53 0 104 -27 104 -86c0 -71 -56 -120 -103 -148c-36 -22 -76 -36 -118 -36c-53 0 -105 27 -105 86c0 71 57 120 104 148c36 22 76 36 118 36z" fill="currentColor"/>
</g>
<g transform="translate(21.6160, 26.7875)">
<path transform="scale(0.0040, -0.0040)" d="M222 135c53 0 104 -27 104 -86c0 -71 -56 -120 -103 -148c-36 -22 -76 -36 -118 -36c-53 0 -105 27 -105 86c0 71 57 120 104 148c36 22 76 36 118 36z" fill="currentColor"/>
</g>
<g transform="translate(21.6668, 26.7875)">
<rect x="-0.0508" y="0.1967" width="0.1015" height="3.1366" ry="0.0267" fill="currentColor"/>
</g>
<g transform="translate(24.3346, 27.2875)">
<path transform="scale(0.0040, -0.0040)" d="M222 135c53 0 104 -27 104 -86c0 -71 -56 -120 -103 -148c-36 -22 -76 -36 -118 -36c-53 0 -105 27 -105 86c0 71 57 120 104 148c36 22 76 36 118 36z" fill="currentColor"/>
</g>
<g transform="translate(25.5896, 26.7875)">
<rect x="-0.0508" y="-3.0000" width="0.1015" height="3.3033" ry="0.0267" fill="currentColor"/>
</g>
<g transform="translate(26.8183, 28.2875)">
<path transform="scale(0.0040, -0.0040)" d="M222 135c53 0 104 -27 104 -86c0 -71 -56 -120 -103 -148c-36 -22 -76 -36 -118 -36c-53 0 -105 27 -105 86c0 71 57 120 104 148c36 22 76 36 118 36z" fill="currentColor"/>
</g>
<g transform="translate(28.0733, 26.7875)">
<rect x="-0.0508" y="-2.0000" width="0.1015" height="3.3033" ry="0.0267" fill="currentColor"/>
</g>
<g transform="translate(12.3643, 26.7875)">
<path transform="scale(0.0040, -0.0040)" d="M222 135c53 0 104 -27 104 -86c0 -71 -56 -120 -103 -148c-36 -22 -76 -36 -118 -36c-53 0 -105 27 -105 86c0 71 57 120 104 148c36 22 76 36 118 36z" fill="currentColor"/>
</g>
<g transform="translate(4.5937, 27.7875)">
<path transform="scale(0.0040, -0.0040)" d="M374 260c5 0 10 1 15 1c154 0 254 -127 254 -259c0 -76 -33 -153 -107 -208c-22 -17 -47 -29 -73 -37c3 -36 5 -72 5 -108c0 -19 0 -37 -1 -56c-7 -120 -88 -226 -206 -226c-108 0 -195 87 -195 195c0 58 53 104 112 104c54 0 95 -48 95 -104c0 -52 -43 -95 -95 -95
c-12 0 -24 4 -35 9c26 -41 70 -70 121 -70c1 0 2 1 3 1c93 2 154 93 160 192c1 18 2 35 2 53c0 32 -2 64 -5 96c-29 -5 -58 -8 -89 -8c-188 0 -333 171 -333 372c0 178 133 306 251 440c-18 63 -35 126 -42 191c-6 51 -7 102 -7 154c0 116 55 226 150 295c5 4 11 4 16 0
c70 -84 132 -246 132 -359c0 -144 -87 -256 -183 -365c20 -69 39 -138 55 -208zM459 -205c69 24 117 96 117 166c0 92 -69 184 -179 193c25 -117 48 -235 62 -359zM71 31c0 -136 131 -251 267 -251c28 0 55 2 82 6c-15 128 -38 247 -64 367c-79 -9 -125 -62 -125 -121
c0 -44 26 -92 82 -124c4 -4 7 -9 7 -14c0 -11 -9 -21 -20 -21c-3 0 -6 1 -9 2c-80 43 -116 114 -116 184c0 88 57 173 158 196c-14 60 -30 119 -46 178c-108 -121 -216 -242 -216 -402zM411 1050c-99 -50 -161 -151 -161 -262c0 -76 15 -137 33 -200c82 97 149 198 149 325
c0 58 -4 84 -21 137z" fill="currentColor"/>
</g>
<g transform="translate(8.9303, 26.7875)">
<path transform="scale(0.0040, -0.0040)" d="M147 479c-28 0 -58 -9 -58 -33c0 -22 36 -25 36 -47c0 -32 -25 -57 -57 -57s-57 25 -57 57c0 63 66 101 136 101c90 0 165 -35 165 -115c0 -44 -3 -83 -41 -101c-8 -4 -13 -12 -13 -20s5 -16 13 -20c41 -19 55 -58 55 -104c0 -91 -77 -140 -175 -140
c-77 0 -151 41 -151 111c0 36 29 65 65 65s65 -29 65 -65c0 -25 -40 -28 -40 -53c0 -26 31 -37 61 -37c50 0 66 61 66 119c0 62 -1 110 -54 110h-82c-9 0 -13 7 -13 14s4 13 13 13h82c52 0 54 47 54 108c0 56 -18 94 -70 94z" fill="currentColor"/>
</g>
<g transform="translate(8.7937, 28.8034)">
<path transform="scale(0.0040, -0.0040)" d="M208 319c21 13 42 27 57 47c11 15 18 32 25 49c4 9 20 7 20 -7v-256h68c9 0 13 -7 13 -14s-4 -13 -13 -13h-68v-16c0 -45 26 -88 68 -88c7 0 10 -5 10 -10s-3 -11 -10 -11c-41 0 -82 13 -123 13s-82 -13 -123 -13c-7 0 -10 6 -10 11s3 10 10 10c42 0 68 43 68 88v16h-173
c-21 0 -29 13 -29 21c0 2 1 5 2 6c81 96 146 208 146 333c0 10 7 18 15 15c22 -7 44 -13 67 -13s45 6 67 13c12 4 21 -8 15 -15l-283 -333h173v147c0 8 2 16 8 20z" fill="currentColor"/>
</g>
<g transform="translate(8.7937, 23.4372)">
<rect x="1.0475" y="-2.6727" width="0.1158" height="2.4974" ry="0.0193" fill="currentColor"/>
</g>
<g transform="translate(8.7937, 23.4372)">
<path transform="scale(0.0036, -0.0036)" d="M222 135c53 0 104 -27 104 -86c0 -71 -56 -120 -103 -148c-36 -22 -76 -36 -118 -36c-53 0 -105 27 -105 86c0 71 57 120 104 148c36 22 76 36 118 36z" fill="currentColor"/>
</g>
<g transform="translate(9.9570, 23.9173)">
<text font-family="serif" font-size="2.2003" text-anchor="start" fill="currentColor">
<tspan> = 80</tspan>
</text>
</g>
<g transform="translate(12.4151, 26.7875)">
<rect x="-0.0508" y="0.1967" width="0.1015" height="3.1366" ry="0.0267" fill="currentColor"/>
</g>
<g transform="translate(15.0828, 27.2875)">
<path transform="scale(0.0040, -0.0040)" d="M222 135c53 0 104 -27 104 -86c0 -71 -56 -120 -103 -148c-36 -22 -76 -36 -118 -36c-53 0 -105 27 -105 86c0 71 57 120 104 148c36 22 76 36 118 36z" fill="currentColor"/>
</g>
<g transform="translate(16.3378, 26.7875)">
<rect x="-0.0508" y="-3.0000" width="0.1015" height="3.3033" ry="0.0267" fill="currentColor"/>
</g>
<g transform="translate(17.5665, 28.2875)">
<path transform="scale(0.0040, -0.0040)" d="M222 135c53 0 104 -27 104 -86c0 -71 -56 -120 -103 -148c-36 -22 -76 -36 -118 -36c-53 0 -105 27 -105 86c0 71 57 120 104 148c36 22 76 36 118 36z" fill="currentColor"/>
</g>
<g transform="translate(18.8216, 26.7875)">
<rect x="-0.0508" y="-2.0000" width="0.1015" height="3.3033" ry="0.0267" fill="currentColor"/>
</g>
<g transform="translate(39.3036, 26.7875)">
<rect x="-0.0508" y="-0.8040" width="0.1015" height="3.1072" ry="0.0267" fill="currentColor"/>
</g>
<g transform="translate(33.5863, 27.2875)">
<path transform="scale(0.0040, -0.0040)" d="M222 135c53 0 104 -27 104 -86c0 -71 -56 -120 -103 -148c-36 -22 -76 -36 -118 -36c-53 0 -105 27 -105 86c0 71 57 120 104 148c36 22 76 36 118 36z" fill="currentColor"/>
</g>
<g transform="translate(34.8414, 26.7875)">
<rect x="-0.0508" y="-3.0000" width="0.1015" height="3.3033" ry="0.0267" fill="currentColor"/>
</g>
<g transform="translate(36.0700, 28.7875)">
<path transform="scale(0.0040, -0.0040)" d="M222 135c53 0 104 -27 104 -86c0 -71 -56 -120 -103 -148c-36 -22 -76 -36 -118 -36c-53 0 -105 27 -105 86c0 71 57 120 104 148c36 22 76 36 118 36z" fill="currentColor"/>
</g>
<g transform="translate(37.3251, 26.7875)">
<rect x="-0.0508" y="-0.9951" width="0.1015" height="2.7984" ry="0.0267" fill="currentColor"/>
</g>
<g transform="translate(38.0486, 29.2875)">
<path transform="scale(0.0040, -0.0040)" d="M222 135c53 0 104 -27 104 -86c0 -71 -56 -120 -103 -148c-36 -22 -76 -36 -118 -36c-53 0 -105 27 -105 86c0 71 57 120 104 148c36 22 76 36 118 36z" fill="currentColor"/>
</g>
<g transform="translate(42.1028, 28.7875)">
<path transform="scale(0.0040, -0.0040)" d="M316 67c0 25 -20 42 -42 42c-4 0 -9 -1 -13 -2c-31 -9 -79 -41 -117 -65s-86 -55 -107 -80c-7 -8 -10 -19 -10 -29c0 -25 20 -42 42 -42c4 0 9 1 13 2c31 9 79 41 117 65s86 55 107 80c7 8 10 19 10 29zM265 135c44 0 78 -21 78 -68c0 -19 -5 -39 -11 -57
c-12 -37 -33 -71 -65 -93c-53 -36 -114 -52 -189 -52c-44 0 -78 21 -78 68c0 19 5 39 11 57c12 37 33 71 65 93c53 36 114 52 189 52z" fill="currentColor"/>
</g>
<g transform="translate(43.9316, 28.2875)">
<path transform="scale(0.0040, -0.0040)" d="M0 0c0 32 25 57 57 57s57 -25 57 -57s-25 -57 -57 -57s-57 25 -57 57z" fill="currentColor"/>
</g>
<g transform="translate(43.4241, 26.7875)">
<rect x="-0.0508" y="-1.5000" width="0.1015" height="3.2316" ry="0.0267" fill="currentColor"/>
</g>
<g transform="translate(30.9186, 26.7875)">
<rect x="-0.0508" y="0.1967" width="0.1015" height="3.1366" ry="0.0267" fill="currentColor"/>
</g>
<g transform="translate(30.8678, 26.7875)">
<path transform="scale(0.0040, -0.0040)" d="M222 135c53 0 104 -27 104 -86c0 -71 -56 -120 -103 -148c-36 -22 -76 -36 -118 -36c-53 0 -105 27 -105 86c0 71 57 120 104 148c36 22 76 36 118 36z" fill="currentColor"/>
</g>
<g transform="translate(3.7937, 44.1463)">
<line stroke-linejoin="round" stroke-linecap="round" stroke-width="0.0781" stroke="currentColor" x1="0.0390" y1="0" x2="72.0413" y2="0"/>
</g>
<g transform="translate(3.7937, 43.1463)">
<line stroke-linejoin="round" stroke-linecap="round" stroke-width="0.0781" stroke="currentColor" x1="0.0390" y1="0" x2="72.0413" y2="0"/>
</g>
<g transform="translate(3.7937, 42.1463)">
<line stroke-linejoin="round" stroke-linecap="round" stroke-width="0.0781" stroke="currentColor" x1="0.0390" y1="0" x2="72.0413" y2="0"/>
</g>
<g transform="translate(3.7937, 41.1463)">
<line stroke-linejoin="round" stroke-linecap="round" stroke-width="0.0781" stroke="currentColor" x1="0.0390" y1="0" x2="72.0413" y2="0"/>
</g>
<g transform="translate(3.7937, 40.1463)">
<line stroke-linejoin="round" stroke-linecap="round" stroke-width="0.0781" stroke="currentColor" x1="0.0390" y1="0" x2="72.0413" y2="0"/>
</g>
<g transform="translate(57.5643, 42.1463)">
<rect x="0.0000" y="-2.0000" width="0.1484" height="4.0000" ry="0.0000" fill="currentColor"/>
</g>
<g transform="translate(23.1338, 42.1463)">
<rect x="0.0000" y="-2.0000" width="0.1484" height="4.0000" ry="0.0000" fill="currentColor"/>
</g>
<g transform="translate(66.5410, 42.1463)">
<rect x="0.0000" y="-2.0000" width="0.1484" height="4.0000" ry="0.0000" fill="currentColor"/>
</g>
<g transform="translate(48.5875, 42.1463)">
<rect x="0.0000" y="-2.0000" width="0.1484" height="4.0000" ry="0.0000" fill="currentColor"/>
</g>
<g transform="translate(14.1570, 42.1463)">
<rect x="0.0000" y="-2.0000" width="0.1484" height="4.0000" ry="0.0000" fill="currentColor"/>
</g>
<g transform="translate(32.1105, 42.1463)">
<rect x="0.0000" y="-2.0000" width="0.1484" height="4.0000" ry="0.0000" fill="currentColor"/>
</g>
<g transform="translate(42.3125, 42.1463)">
<rect x="0.0000" y="-2.0000" width="0.1484" height="4.0000" ry="0.0000" fill="currentColor"/>
</g>
<g transform="translate(75.7256, 42.1463)">
<rect x="0.0000" y="-2.0000" width="0.1484" height="4.0000" ry="0.0000" fill="currentColor"/>
</g>
<g transform="translate(3.7937, 45.1463)">
<rect x="59.5758" y="-0.0890" width="1.9587" height="0.1781" ry="0.0890" fill="currentColor"/>
</g>
<g transform="translate(3.7937, 45.1463)">
<rect x="56.8736" y="-0.0890" width="1.9587" height="0.1781" ry="0.0890" fill="currentColor"/>
</g>
<g transform="translate(3.7937, 45.1463)">
<rect x="50.5991" y="-0.0890" width="1.9587" height="0.1781" ry="0.0890" fill="currentColor"/>
</g>
<g transform="translate(3.7937, 45.1463)">
<rect x="47.8969" y="-0.0890" width="1.9587" height="0.1781" ry="0.0890" fill="currentColor"/>
</g>
<g transform="translate(3.7937, 45.1463)">
<rect x="39.9754" y="-0.0890" width="2.0580" height="0.1781" ry="0.0890" fill="currentColor"/>
</g>
<g transform="translate(3.7937, 45.1463)">
<rect x="36.1333" y="-0.0890" width="1.9112" height="0.1781" ry="0.0890" fill="currentColor"/>
</g>
<g transform="translate(3.7937, 46.1463)">
<rect x="36.1333" y="-0.0890" width="1.9112" height="0.1781" ry="0.0890" fill="currentColor"/>
</g>
<g transform="translate(3.7937, 45.1463)">
<rect x="34.1221" y="-0.0890" width="1.9112" height="0.1781" ry="0.0890" fill="currentColor"/>
</g>
<g transform="translate(3.7937, 45.1463)">
<rect x="25.1453" y="-0.0890" width="1.9587" height="0.1781" ry="0.0890" fill="currentColor"/>
</g>
<g transform="translate(3.7937, 45.1463)">
<rect x="22.4431" y="-0.0890" width="1.9587" height="0.1781" ry="0.0890" fill="currentColor"/>
</g>
<g transform="translate(3.7937, 45.1463)">
<rect x="16.1686" y="-0.0890" width="1.9587" height="0.1781" ry="0.0890" fill="currentColor"/>
</g>
<g transform="translate(3.7937, 45.1463)">
<rect x="13.4664" y="-0.0890" width="1.9587" height="0.1781" ry="0.0890" fill="currentColor"/>
</g>
<g transform="translate(52.0170, 45.1463)">
<path transform="scale(0.0040, -0.0040)" d="M222 135c53 0 104 -27 104 -86c0 -71 -56 -120 -103 -148c-36 -22 -76 -36 -118 -36c-53 0 -105 27 -105 86c0 71 57 120 104 148c36 22 76 36 118 36z" fill="currentColor"/>
</g>
<g transform="translate(53.2721, 42.1463)">
<rect x="-0.0508" y="-0.5000" width="0.1015" height="3.3033" ry="0.0267" fill="currentColor"/>
</g>
<g transform="translate(39.4465, 41.9453)">
<polygon stroke-linejoin="round" stroke-linecap="round" stroke-width="0.0533" fill="currentColor" stroke="currentColor" points="2.0385 -0.0124 2.0385 0.4143 0.0267 0.2133 0.0267 -0.2133"/>
</g>
<g transform="translate(54.7192, 45.6463)">
<path transform="scale(0.0040, -0.0040)" d="M222 135c53 0 104 -27 104 -86c0 -71 -56 -120 -103 -148c-36 -22 -76 -36 -118 -36c-53 0 -105 27 -105 86c0 71 57 120 104 148c36 22 76 36 118 36z" fill="currentColor"/>
</g>
<g transform="translate(55.9743, 42.1463)">
<rect x="-0.0508" y="-0.0000" width="0.1015" height="3.3033" ry="0.0267" fill="currentColor"/>
</g>
<g transform="translate(58.5416, 43.6463)">
<path transform="scale(0.0040, -0.0040)" d="M222 135c53 0 104 -27 104 -86c0 -71 -56 -120 -103 -148c-36 -22 -76 -36 -118 -36c-53 0 -105 27 -105 86c0 71 57 120 104 148c36 22 76 36 118 36z" fill="currentColor"/>
</g>
<g transform="translate(59.7966, 42.1463)">
<rect x="-0.0508" y="-2.0000" width="0.1015" height="3.3033" ry="0.0267" fill="currentColor"/>
</g>
<g transform="translate(41.4610, 42.1463)">
<rect x="-0.0508" y="-0.0049" width="0.1015" height="3.8082" ry="0.0267" fill="currentColor"/>
</g>
<g transform="translate(45.4334, 42.1463)">
<rect x="-0.0508" y="-0.0000" width="0.1015" height="3.2316" ry="0.0267" fill="currentColor"/>
</g>
<g transform="translate(44.1122, 45.6463)">
<path transform="scale(0.0040, -0.0040)" d="M316 67c0 25 -20 42 -42 42c-4 0 -9 -1 -13 -2c-31 -9 -79 -41 -117 -65s-86 -55 -107 -80c-7 -8 -10 -19 -10 -29c0 -25 20 -42 42 -42c4 0 9 1 13 2c31 9 79 41 117 65s86 55 107 80c7 8 10 19 10 29zM265 135c44 0 78 -21 78 -68c0 -19 -5 -39 -11 -57
c-12 -37 -33 -71 -65 -93c-53 -36 -114 -52 -189 -52c-44 0 -78 21 -78 68c0 19 5 39 11 57c12 37 33 71 65 93c53 36 114 52 189 52z" fill="currentColor"/>
</g>
<g transform="translate(45.9410, 45.6463)">
<path transform="scale(0.0040, -0.0040)" d="M0 0c0 32 25 57 57 57s57 -25 57 -57s-25 -57 -57 -57s-57 25 -57 57z" fill="currentColor"/>
</g>
<g transform="translate(49.5648, 43.6463)">
<path transform="scale(0.0040, -0.0040)" d="M222 135c53 0 104 -27 104 -86c0 -71 -56 -120 -103 -148c-36 -22 -76 -36 -118 -36c-53 0 -105 27 -105 86c0 71 57 120 104 148c36 22 76 36 118 36z" fill="currentColor"/>
</g>
<g transform="translate(50.8199, 42.1463)">
<rect x="-0.0508" y="-2.0000" width="0.1015" height="3.3033" ry="0.0267" fill="currentColor"/>
</g>
<g transform="translate(70.2205, 44.1463)">
<path transform="scale(0.0040, -0.0040)" d="M222 135c53 0 104 -27 104 -86c0 -71 -56 -120 -103 -148c-36 -22 -76 -36 -118 -36c-53 0 -105 27 -105 86c0 71 57 120 104 148c36 22 76 36 118 36z" fill="currentColor"/>
</g>
<g transform="translate(71.4756, 42.1463)">
<rect x="-0.0508" y="-1.5000" width="0.1015" height="3.3033" ry="0.0267" fill="currentColor"/>
</g>
<g transform="translate(73.1522, 42.1463)">
<path transform="scale(0.0040, -0.0040)" d="M222 135c53 0 104 -27 104 -86c0 -71 -56 -120 -103 -148c-36 -22 -76 -36 -118 -36c-53 0 -105 27 -105 86c0 71 57 120 104 148c36 22 76 36 118 36z" fill="currentColor"/>
</g>
<g transform="translate(73.2030, 42.1463)">
<rect x="-0.0508" y="0.1967" width="0.1015" height="3.1366" ry="0.0267" fill="currentColor"/>
</g>
<g transform="translate(60.9938, 45.1463)">
<path transform="scale(0.0040, -0.0040)" d="M222 135c53 0 104 -27 104 -86c0 -71 -56 -120 -103 -148c-36 -22 -76 -36 -118 -36c-53 0 -105 27 -105 86c0 71 57 120 104 148c36 22 76 36 118 36z" fill="currentColor"/>
</g>
<g transform="translate(62.2488, 42.1463)">
<rect x="-0.0508" y="-0.5000" width="0.1015" height="3.3033" ry="0.0267" fill="currentColor"/>
</g>
<g transform="translate(63.6960, 45.6463)">
<path transform="scale(0.0040, -0.0040)" d="M222 135c53 0 104 -27 104 -86c0 -71 -56 -120 -103 -148c-36 -22 -76 -36 -118 -36c-53 0 -105 27 -105 86c0 71 57 120 104 148c36 22 76 36 118 36z" fill="currentColor"/>
</g>
<g transform="translate(64.9510, 42.1463)">
<rect x="-0.0508" y="-0.0000" width="0.1015" height="3.3033" ry="0.0267" fill="currentColor"/>
</g>
<g transform="translate(67.5184, 43.6463)">
<path transform="scale(0.0040, -0.0040)" d="M222 135c53 0 104 -27 104 -86c0 -71 -56 -120 -103 -148c-36 -22 -76 -36 -118 -36c-53 0 -105 27 -105 86c0 71 57 120 104 148c36 22 76 36 118 36z" fill="currentColor"/>
</g>
<g transform="translate(68.7734, 42.1463)">
<rect x="-0.0508" y="-2.0000" width="0.1015" height="3.3033" ry="0.0267" fill="currentColor"/>
</g>
<g transform="translate(17.5865, 45.1463)">
<path transform="scale(0.0040, -0.0040)" d="M222 135c53 0 104 -27 104 -86c0 -71 -56 -120 -103 -148c-36 -22 -76 -36 -118 -36c-53 0 -105 27 -105 86c0 71 57 120 104 148c36 22 76 36 118 36z" fill="currentColor"/>
</g>
<g transform="translate(18.8416, 42.1463)">
<rect x="-0.0508" y="-0.5000" width="0.1015" height="3.3033" ry="0.0267" fill="currentColor"/>
</g>
<g transform="translate(20.2887, 45.6463)">
<path transform="scale(0.0040, -0.0040)" d="M222 135c53 0 104 -27 104 -86c0 -71 -56 -120 -103 -148c-36 -22 -76 -36 -118 -36c-53 0 -105 27 -105 86c0 71 57 120 104 148c36 22 76 36 118 36z" fill="currentColor"/>
</g>
<g transform="translate(21.5438, 42.1463)">
<rect x="-0.0508" y="-0.0000" width="0.1015" height="3.3033" ry="0.0267" fill="currentColor"/>
</g>
<g transform="translate(24.1111, 43.6463)">
<path transform="scale(0.0040, -0.0040)" d="M222 135c53 0 104 -27 104 -86c0 -71 -56 -120 -103 -148c-36 -22 -76 -36 -118 -36c-53 0 -105 27 -105 86c0 71 57 120 104 148c36 22 76 36 118 36z" fill="currentColor"/>
</g>
<g transform="translate(25.3661, 42.1463)">
<rect x="-0.0508" y="-2.0000" width="0.1015" height="3.3033" ry="0.0267" fill="currentColor"/>
</g>
<g transform="translate(40.2059, 46.1463)">
<path transform="scale(0.0040, -0.0040)" d="M222 135c53 0 104 -27 104 -86c0 -71 -56 -120 -103 -148c-36 -22 -76 -36 -118 -36c-53 0 -105 27 -105 86c0 71 57 120 104 148c36 22 76 36 118 36z" fill="currentColor"/>
</g>
<g transform="translate(4.5937, 43.1463)">
<path transform="scale(0.0040, -0.0040)" d="M374 260c5 0 10 1 15 1c154 0 254 -127 254 -259c0 -76 -33 -153 -107 -208c-22 -17 -47 -29 -73 -37c3 -36 5 -72 5 -108c0 -19 0 -37 -1 -56c-7 -120 -88 -226 -206 -226c-108 0 -195 87 -195 195c0 58 53 104 112 104c54 0 95 -48 95 -104c0 -52 -43 -95 -95 -95
c-12 0 -24 4 -35 9c26 -41 70 -70 121 -70c1 0 2 1 3 1c93 2 154 93 160 192c1 18 2 35 2 53c0 32 -2 64 -5 96c-29 -5 -58 -8 -89 -8c-188 0 -333 171 -333 372c0 178 133 306 251 440c-18 63 -35 126 -42 191c-6 51 -7 102 -7 154c0 116 55 226 150 295c5 4 11 4 16 0
c70 -84 132 -246 132 -359c0 -144 -87 -256 -183 -365c20 -69 39 -138 55 -208zM459 -205c69 24 117 96 117 166c0 92 -69 184 -179 193c25 -117 48 -235 62 -359zM71 31c0 -136 131 -251 267 -251c28 0 55 2 82 6c-15 128 -38 247 -64 367c-79 -9 -125 -62 -125 -121
c0 -44 26 -92 82 -124c4 -4 7 -9 7 -14c0 -11 -9 -21 -20 -21c-3 0 -6 1 -9 2c-80 43 -116 114 -116 184c0 88 57 173 158 196c-14 60 -30 119 -46 178c-108 -121 -216 -242 -216 -402zM411 1050c-99 -50 -161 -151 -161 -262c0 -76 15 -137 33 -200c82 97 149 198 149 325
c0 58 -4 84 -21 137z" fill="currentColor"/>
</g>
<g transform="translate(2.6784, 39.0825)">
<text font-family="serif" font-size="1.7461" text-anchor="start" fill="currentColor">
<tspan>8</tspan>
</text>
</g>
<g transform="translate(9.5937, 44.1463)">
<path transform="scale(0.0040, -0.0040)" d="M316 67c0 25 -20 42 -42 42c-4 0 -9 -1 -13 -2c-31 -9 -79 -41 -117 -65s-86 -55 -107 -80c-7 -8 -10 -19 -10 -29c0 -25 20 -42 42 -42c4 0 9 1 13 2c31 9 79 41 117 65s86 55 107 80c7 8 10 19 10 29zM265 135c44 0 78 -21 78 -68c0 -19 -5 -39 -11 -57
c-12 -37 -33 -71 -65 -93c-53 -36 -114 -52 -189 -52c-44 0 -78 21 -78 68c0 19 5 39 11 57c12 37 33 71 65 93c53 36 114 52 189 52z" fill="currentColor"/>
</g>
<g transform="translate(11.4225, 43.6463)">
<path transform="scale(0.0040, -0.0040)" d="M0 0c0 32 25 57 57 57s57 -25 57 -57s-25 -57 -57 -57s-57 25 -57 57z" fill="currentColor"/>
</g>
<g transform="translate(10.9150, 42.1463)">
<rect x="-0.0508" y="-1.5000" width="0.1015" height="3.2316" ry="0.0267" fill="currentColor"/>
</g>
<g transform="translate(15.1343, 43.6463)">
<path transform="scale(0.0040, -0.0040)" d="M222 135c53 0 104 -27 104 -86c0 -71 -56 -120 -103 -148c-36 -22 -76 -36 -118 -36c-53 0 -105 27 -105 86c0 71 57 120 104 148c36 22 76 36 118 36z" fill="currentColor"/>
</g>
<g transform="translate(16.3894, 42.1463)">
<rect x="-0.0508" y="-2.0000" width="0.1015" height="3.3033" ry="0.0267" fill="currentColor"/>
</g>
<g transform="translate(37.0451, 42.1463)">
<rect x="-0.0508" y="-1.5000" width="0.1015" height="3.3033" ry="0.0267" fill="currentColor"/>
</g>
<g transform="translate(33.0879, 43.6463)">
<path transform="scale(0.0040, -0.0040)" d="M222 135c53 0 104 -27 104 -86c0 -71 -56 -120 -103 -148c-36 -22 -76 -36 -118 -36c-53 0 -105 27 -105 86c0 71 57 120 104 148c36 22 76 36 118 36z" fill="currentColor"/>
</g>
<g transform="translate(34.3429, 42.1463)">
<rect x="-0.0508" y="-2.0000" width="0.1015" height="3.3033" ry="0.0267" fill="currentColor"/>
</g>
<g transform="translate(35.7901, 44.1463)">
<path transform="scale(0.0040, -0.0040)" d="M222 135c53 0 104 -27 104 -86c0 -71 -56 -120 -103 -148c-36 -22 -76 -36 -118 -36c-53 0 -105 27 -105 86c0 71 57 120 104 148c36 22 76 36 118 36z" fill="currentColor"/>
</g>
<g transform="translate(30.5205, 42.1463)">
<rect x="-0.0508" y="-0.0000" width="0.1015" height="3.3033" ry="0.0267" fill="currentColor"/>
</g>
<g transform="translate(26.5633, 45.1463)">
<path transform="scale(0.0040, -0.0040)" d="M222 135c53 0 104 -27 104 -86c0 -71 -56 -120 -103 -148c-36 -22 -76 -36 -118 -36c-53 0 -105 27 -105 86c0 71 57 120 104 148c36 22 76 36 118 36z" fill="currentColor"/>
</g>
<g transform="translate(27.8183, 42.1463)">
<rect x="-0.0508" y="-0.5000" width="0.1015" height="3.3033" ry="0.0267" fill="currentColor"/>
</g>
<g transform="translate(39.4973, 42.1463)">
<rect x="-0.0508" y="-0.1960" width="0.1015" height="3.4993" ry="0.0267" fill="currentColor"/>
</g>
<g transform="translate(38.2423, 45.6463)">
<path transform="scale(0.0040, -0.0040)" d="M222 135c53 0 104 -27 104 -86c0 -71 -56 -120 -103 -148c-36 -22 -76 -36 -118 -36c-53 0 -105 27 -105 86c0 71 57 120 104 148c36 22 76 36 118 36z" fill="currentColor"/>
</g>
<g transform="translate(29.2655, 45.6463)">
<path transform="scale(0.0040, -0.0040)" d="M222 135c53 0 104 -27 104 -86c0 -71 -56 -120 -103 -148c-36 -22 -76 -36 -118 -36c-53 0 -105 27 -105 86c0 71 57 120 104 148c36 22 76 36 118 36z" fill="currentColor"/>
</g>
<g transform="translate(3.7937, 59.5050)">
<line stroke-linejoin="round" stroke-linecap="round" stroke-width="0.0781" stroke="currentColor" x1="0.0390" y1="0" x2="72.0413" y2="0"/>
</g>
<g transform="translate(3.7937, 58.5050)">
<line stroke-linejoin="round" stroke-linecap="round" stroke-width="0.0781" stroke="currentColor" x1="0.0390" y1="0" x2="72.0413" y2="0"/>
</g>
<g transform="translate(3.7937, 57.5050)">
<line stroke-linejoin="round" stroke-linecap="round" stroke-width="0.0781" stroke="currentColor" x1="0.0390" y1="0" x2="72.0413" y2="0"/>
</g>
<g transform="translate(3.7937, 56.5050)">
<line stroke-linejoin="round" stroke-linecap="round" stroke-width="0.0781" stroke="currentColor" x1="0.0390" y1="0" x2="72.0413" y2="0"/>
</g>
<g transform="translate(3.7937, 55.5050)">
<line stroke-linejoin="round" stroke-linecap="round" stroke-width="0.0781" stroke="currentColor" x1="0.0390" y1="0" x2="72.0413" y2="0"/>
</g>
<g transform="translate(14.8379, 57.5050)">
<rect x="0.0000" y="-2.0000" width="0.1484" height="4.0000" ry="0.0000" fill="currentColor"/>
</g>
<g transform="translate(64.7221, 57.5050)">
<rect x="0.0000" y="-2.0000" width="0.1484" height="4.0000" ry="0.0000" fill="currentColor"/>
</g>
<g transform="translate(45.6984, 57.5050)">
<rect x="0.0000" y="-2.0000" width="0.1484" height="4.0000" ry="0.0000" fill="currentColor"/>
</g>
<g transform="translate(54.3076, 57.5050)">
<rect x="0.0000" y="-2.0000" width="0.1484" height="4.0000" ry="0.0000" fill="currentColor"/>
</g>
<g transform="translate(25.1810, 57.5050)">
<rect x="0.0000" y="-2.0000" width="0.1484" height="4.0000" ry="0.0000" fill="currentColor"/>
</g>
<g transform="translate(75.7256, 57.5050)">
<rect x="0.0000" y="-2.0000" width="0.1484" height="4.0000" ry="0.0000" fill="currentColor"/>
</g>
<g transform="translate(35.3195, 57.5050)">
<rect x="0.0000" y="-2.0000" width="0.1484" height="4.0000" ry="0.0000" fill="currentColor"/>
</g>
<g transform="translate(56.6206, 57.5050)">
<rect x="-0.0508" y="-2.0000" width="0.1015" height="3.3033" ry="0.0267" fill="currentColor"/>
</g>
<g transform="translate(49.7804, 58.5050)">
<path transform="scale(0.0040, -0.0040)" d="M316 67c0 25 -20 42 -42 42c-4 0 -9 -1 -13 -2c-31 -9 -79 -41 -117 -65s-86 -55 -107 -80c-7 -8 -10 -19 -10 -29c0 -25 20 -42 42 -42c4 0 9 1 13 2c31 9 79 41 117 65s86 55 107 80c7 8 10 19 10 29zM265 135c44 0 78 -21 78 -68c0 -19 -5 -39 -11 -57
c-12 -37 -33 -71 -65 -93c-53 -36 -114 -52 -189 -52c-44 0 -78 21 -78 68c0 19 5 39 11 57c12 37 33 71 65 93c53 36 114 52 189 52z" fill="currentColor"/>
</g>
<g transform="translate(51.1016, 57.5050)">
<rect x="-0.0508" y="-2.5000" width="0.1015" height="3.2316" ry="0.0267" fill="currentColor"/>
</g>
<g transform="translate(55.3656, 59.0050)">
<path transform="scale(0.0040, -0.0040)" d="M222 135c53 0 104 -27 104 -86c0 -71 -56 -120 -103 -148c-36 -22 -76 -36 -118 -36c-53 0 -105 27 -105 86c0 71 57 120 104 148c36 22 76 36 118 36z" fill="currentColor"/>
</g>
<g transform="translate(46.9388, 57.5050)">
<rect x="-0.0508" y="-0.3033" width="0.1015" height="3.3033" ry="0.0267" fill="currentColor"/>
</g>
<g transform="translate(39.4178, 58.5050)">
<path transform="scale(0.0040, -0.0040)" d="M222 135c53 0 104 -27 104 -86c0 -71 -56 -120 -103 -148c-36 -22 -76 -36 -118 -36c-53 0 -105 27 -105 86c0 71 57 120 104 148c36 22 76 36 118 36z" fill="currentColor"/>
</g>
<g transform="translate(40.6728, 57.5050)">
<rect x="-0.0508" y="-2.5000" width="0.1015" height="3.3033" ry="0.0267" fill="currentColor"/>
</g>
<g transform="translate(42.4579, 58.5050)">
<path transform="scale(0.0040, -0.0040)" d="M222 135c53 0 104 -27 104 -86c0 -71 -56 -120 -103 -148c-36 -22 -76 -36 -118 -36c-53 0 -105 27 -105 86c0 71 57 120 104 148c36 22 76 36 118 36z" fill="currentColor"/>
</g>
<g transform="translate(43.7130, 57.5050)">
<rect x="-0.0508" y="-2.5000" width="0.1015" height="3.3033" ry="0.0267" fill="currentColor"/>
</g>
<g transform="translate(46.8880, 57.0050)">
<path transform="scale(0.0040, -0.0040)" d="M222 135c53 0 104 -27 104 -86c0 -71 -56 -120 -103 -148c-36 -22 -76 -36 -118 -36c-53 0 -105 27 -105 86c0 71 57 120 104 148c36 22 76 36 118 36z" fill="currentColor"/>
</g>
<g transform="translate(69.7741, 57.5050)">
<path transform="scale(0.0040, -0.0040)" d="M222 135c53 0 104 -27 104 -86c0 -71 -56 -120 -103 -148c-36 -22 -76 -36 -118 -36c-53 0 -105 27 -105 86c0 71 57 120 104 148c36 22 76 36 118 36z" fill="currentColor"/>
</g>
<g transform="translate(69.8248, 57.5050)">
<rect x="-0.0508" y="0.1967" width="0.1015" height="3.1366" ry="0.0267" fill="currentColor"/>
</g>
<g transform="translate(72.8142, 57.5050)">
<path transform="scale(0.0040, -0.0040)" d="M222 135c53 0 104 -27 104 -86c0 -71 -56 -120 -103 -148c-36 -22 -76 -36 -118 -36c-53 0 -105 27 -105 86c0 71 57 120 104 148c36 22 76 36 118 36z" fill="currentColor"/>
</g>
<g transform="translate(72.8650, 57.5050)">
<rect x="-0.0508" y="0.1967" width="0.1015" height="3.1366" ry="0.0267" fill="currentColor"/>
</g>
<g transform="translate(66.7846, 57.5050)">
<rect x="-0.0508" y="0.1967" width="0.1015" height="3.1366" ry="0.0267" fill="currentColor"/>
</g>
<g transform="translate(58.4058, 59.0050)">
<path transform="scale(0.0040, -0.0040)" d="M222 135c53 0 104 -27 104 -86c0 -71 -56 -120 -103 -148c-36 -22 -76 -36 -118 -36c-53 0 -105 27 -105 86c0 71 57 120 104 148c36 22 76 36 118 36z" fill="currentColor"/>
</g>
<g transform="translate(59.6608, 57.5050)">
<rect x="-0.0508" y="-2.0000" width="0.1015" height="3.3033" ry="0.0267" fill="currentColor"/>
</g>
<g transform="translate(61.4460, 59.0050)">
<path transform="scale(0.0040, -0.0040)" d="M222 135c53 0 104 -27 104 -86c0 -71 -56 -120 -103 -148c-36 -22 -76 -36 -118 -36c-53 0 -105 27 -105 86c0 71 57 120 104 148c36 22 76 36 118 36z" fill="currentColor"/>
</g>
<g transform="translate(62.7010, 57.5050)">
<rect x="-0.0508" y="-2.0000" width="0.1015" height="3.3033" ry="0.0267" fill="currentColor"/>
</g>
<g transform="translate(66.7339, 57.5050)">
<path transform="scale(0.0040, -0.0040)" d="M222 135c53 0 104 -27 104 -86c0 -71 -56 -120 -103 -148c-36 -22 -76 -36 -118 -36c-53 0 -105 27 -105 86c0 71 57 120 104 148c36 22 76 36 118 36z" fill="currentColor"/>
</g>
<g transform="translate(65.5839, 57.5050)">
<path transform="scale(0.0040, -0.0040)" d="M25 44l-1 -69c0 -4 -1 -7 -1 -11c0 -22 2 -44 4 -66c46 38 96 80 96 139c0 34 -14 69 -44 69c-31 0 -53 -29 -54 -62zM-25 463c8 4 16 7 25 7s17 -3 25 -7l-6 -349c26 19 56 30 88 30c53 0 93 -46 93 -100c0 -82 -90 -118 -153 -169c-14 -11 -22 -32 -40 -32
c-12 0 -21 9 -21 21z" fill="currentColor"/>
</g>
<g transform="translate(17.1509, 57.5050)">
<rect x="-0.0508" y="-3.0000" width="0.1015" height="3.3033" ry="0.0267" fill="currentColor"/>
</g>
<g transform="translate(18.9361, 58.0050)">
<path transform="scale(0.0040, -0.0040)" d="M222 135c53 0 104 -27 104 -86c0 -71 -56 -120 -103 -148c-36 -22 -76 -36 -118 -36c-53 0 -105 27 -105 86c0 71 57 120 104 148c36 22 76 36 118 36z" fill="currentColor"/>
</g>
<g transform="translate(20.1911, 57.5050)">
<rect x="-0.0508" y="-3.0000" width="0.1015" height="3.3033" ry="0.0267" fill="currentColor"/>
</g>
<g transform="translate(21.9763, 58.0050)">
<path transform="scale(0.0040, -0.0040)" d="M222 135c53 0 104 -27 104 -86c0 -71 -56 -120 -103 -148c-36 -22 -76 -36 -118 -36c-53 0 -105 27 -105 86c0 71 57 120 104 148c36 22 76 36 118 36z" fill="currentColor"/>
</g>
<g transform="translate(23.2313, 57.5050)">
<rect x="-0.0508" y="-3.0000" width="0.1015" height="3.3033" ry="0.0267" fill="currentColor"/>
</g>
<g transform="translate(26.3992, 56.5050)">
<path transform="scale(0.0040, -0.0040)" d="M222 135c53 0 104 -27 104 -86c0 -71 -56 -120 -103 -148c-36 -22 -76 -36 -118 -36c-53 0 -105 27 -105 86c0 71 57 120 104 148c36 22 76 36 118 36z" fill="currentColor"/>
</g>
<g transform="translate(4.5937, 58.5050)">
<path transform="scale(0.0040, -0.0040)" d="M374 260c5 0 10 1 15 1c154 0 254 -127 254 -259c0 -76 -33 -153 -107 -208c-22 -17 -47 -29 -73 -37c3 -36 5 -72 5 -108c0 -19 0 -37 -1 -56c-7 -120 -88 -226 -206 -226c-108 0 -195 87 -195 195c0 58 53 104 112 104c54 0 95 -48 95 -104c0 -52 -43 -95 -95 -95
c-12 0 -24 4 -35 9c26 -41 70 -70 121 -70c1 0 2 1 3 1c93 2 154 93 160 192c1 18 2 35 2 53c0 32 -2 64 -5 96c-29 -5 -58 -8 -89 -8c-188 0 -333 171 -333 372c0 178 133 306 251 440c-18 63 -35 126 -42 191c-6 51 -7 102 -7 154c0 116 55 226 150 295c5 4 11 4 16 0
c70 -84 132 -246 132 -359c0 -144 -87 -256 -183 -365c20 -69 39 -138 55 -208zM459 -205c69 24 117 96 117 166c0 92 -69 184 -179 193c25 -117 48 -235 62 -359zM71 31c0 -136 131 -251 267 -251c28 0 55 2 82 6c-15 128 -38 247 -64 367c-79 -9 -125 -62 -125 -121
c0 -44 26 -92 82 -124c4 -4 7 -9 7 -14c0 -11 -9 -21 -20 -21c-3 0 -6 1 -9 2c-80 43 -116 114 -116 184c0 88 57 173 158 196c-14 60 -30 119 -46 178c-108 -121 -216 -242 -216 -402zM411 1050c-99 -50 -161 -151 -161 -262c0 -76 15 -137 33 -200c82 97 149 198 149 325
c0 58 -4 84 -21 137z" fill="currentColor"/>
</g>
<g transform="translate(1.5630, 54.4412)">
<text font-family="serif" font-size="1.7461" text-anchor="start" fill="currentColor">
<tspan>16</tspan>
</text>
</g>
<g transform="translate(9.5937, 58.5050)">
<path transform="scale(0.0040, -0.0040)" d="M316 67c0 25 -20 42 -42 42c-4 0 -9 -1 -13 -2c-31 -9 -79 -41 -117 -65s-86 -55 -107 -80c-7 -8 -10 -19 -10 -29c0 -25 20 -42 42 -42c4 0 9 1 13 2c31 9 79 41 117 65s86 55 107 80c7 8 10 19 10 29zM265 135c44 0 78 -21 78 -68c0 -19 -5 -39 -11 -57
c-12 -37 -33 -71 -65 -93c-53 -36 -114 -52 -189 -52c-44 0 -78 21 -78 68c0 19 5 39 11 57c12 37 33 71 65 93c53 36 114 52 189 52z" fill="currentColor"/>
</g>
<g transform="translate(11.4225, 58.0050)">
<path transform="scale(0.0040, -0.0040)" d="M0 0c0 32 25 57 57 57s57 -25 57 -57s-25 -57 -57 -57s-57 25 -57 57z" fill="currentColor"/>
</g>
<g transform="translate(10.9150, 57.5050)">
<rect x="-0.0508" y="-2.5000" width="0.1015" height="3.2316" ry="0.0267" fill="currentColor"/>
</g>
<g transform="translate(15.8959, 58.0050)">
<path transform="scale(0.0040, -0.0040)" d="M222 135c53 0 104 -27 104 -86c0 -71 -56 -120 -103 -148c-36 -22 -76 -36 -118 -36c-53 0 -105 27 -105 86c0 71 57 120 104 148c36 22 76 36 118 36z" fill="currentColor"/>
</g>
<g transform="translate(32.4796, 56.5050)">
<path transform="scale(0.0040, -0.0040)" d="M222 135c53 0 104 -27 104 -86c0 -71 -56 -120 -103 -148c-36 -22 -76 -36 -118 -36c-53 0 -105 27 -105 86c0 71 57 120 104 148c36 22 76 36 118 36z" fill="currentColor"/>
</g>
<g transform="translate(29.4394, 56.5050)">
<path transform="scale(0.0040, -0.0040)" d="M222 135c53 0 104 -27 104 -86c0 -71 -56 -120 -103 -148c-36 -22 -76 -36 -118 -36c-53 0 -105 27 -105 86c0 71 57 120 104 148c36 22 76 36 118 36z" fill="currentColor"/>
</g>
<g transform="translate(29.4902, 57.5050)">
<rect x="-0.0508" y="-0.8033" width="0.1015" height="3.3033" ry="0.0267" fill="currentColor"/>
</g>
<g transform="translate(26.4500, 57.5050)">
<rect x="-0.0508" y="-0.8033" width="0.1015" height="3.3033" ry="0.0267" fill="currentColor"/>
</g>
<g transform="translate(32.5303, 57.5050)">
<rect x="-0.0508" y="-0.8033" width="0.1015" height="3.3033" ry="0.0267" fill="currentColor"/>
</g>
<g transform="translate(36.3776, 58.5050)">
<path transform="scale(0.0040, -0.0040)" d="M222 135c53 0 104 -27 104 -86c0 -71 -56 -120 -103 -148c-36 -22 -76 -36 -118 -36c-53 0 -105 27 -105 86c0 71 57 120 104 148c36 22 76 36 118 36z" fill="currentColor"/>
</g>
<g transform="translate(37.6326, 57.5050)">
<rect x="-0.0508" y="-2.5000" width="0.1015" height="3.3033" ry="0.0267" fill="currentColor"/>
</g>
<g transform="translate(3.7937, 74.8638)">
<line stroke-linejoin="round" stroke-linecap="round" stroke-width="0.0781" stroke="currentColor" x1="0.0390" y1="0" x2="72.0413" y2="0"/>
</g>
<g transform="translate(3.7937, 73.8638)">
<line stroke-linejoin="round" stroke-linecap="round" stroke-width="0.0781" stroke="currentColor" x1="0.0390" y1="0" x2="72.0413" y2="0"/>
</g>
<g transform="translate(3.7937, 72.8638)">
<line stroke-linejoin="round" stroke-linecap="round" stroke-width="0.0781" stroke="currentColor" x1="0.0390" y1="0" x2="72.0413" y2="0"/>
</g>
<g transform="translate(3.7937, 71.8638)">
<line stroke-linejoin="round" stroke-linecap="round" stroke-width="0.0781" stroke="currentColor" x1="0.0390" y1="0" x2="72.0413" y2="0"/>
</g>
<g transform="translate(3.7937, 70.8638)">
<line stroke-linejoin="round" stroke-linecap="round" stroke-width="0.0781" stroke="currentColor" x1="0.0390" y1="0" x2="72.0413" y2="0"/>
</g>
<g transform="translate(65.4047, 72.8638)">
<rect x="0.0000" y="-2.0000" width="0.1484" height="4.0000" ry="0.0000" fill="currentColor"/>
</g>
<g transform="translate(46.4592, 72.8638)">
<rect x="0.0000" y="-2.0000" width="0.1484" height="4.0000" ry="0.0000" fill="currentColor"/>
</g>
<g transform="translate(26.0220, 72.8638)">
<rect x="0.0000" y="-2.0000" width="0.1484" height="4.0000" ry="0.0000" fill="currentColor"/>
</g>
<g transform="translate(18.7003, 72.8638)">
<rect x="0.0000" y="-2.0000" width="0.1484" height="4.0000" ry="0.0000" fill="currentColor"/>
</g>
<g transform="translate(75.7256, 72.8638)">
<rect x="0.0000" y="-2.0000" width="0.1484" height="4.0000" ry="0.0000" fill="currentColor"/>
</g>
<g transform="translate(36.3429, 72.8638)">
<rect x="0.0000" y="-2.0000" width="0.1484" height="4.0000" ry="0.0000" fill="currentColor"/>
</g>
<g transform="translate(56.8158, 72.8638)">
<rect x="0.0000" y="-2.0000" width="0.1484" height="4.0000" ry="0.0000" fill="currentColor"/>
</g>
<g transform="translate(54.8372, 72.8638)">
<rect x="-0.0508" y="-2.5000" width="0.1015" height="3.3033" ry="0.0267" fill="currentColor"/>
</g>
<g transform="translate(50.5488, 73.8638)">
<path transform="scale(0.0040, -0.0040)" d="M222 135c53 0 104 -27 104 -86c0 -71 -56 -120 -103 -148c-36 -22 -76 -36 -118 -36c-53 0 -105 27 -105 86c0 71 57 120 104 148c36 22 76 36 118 36z" fill="currentColor"/>
</g>
<g transform="translate(51.8038, 72.8638)">
<rect x="-0.0508" y="-2.5000" width="0.1015" height="3.3033" ry="0.0267" fill="currentColor"/>
</g>
<g transform="translate(53.5822, 73.8638)">
<path transform="scale(0.0040, -0.0040)" d="M222 135c53 0 104 -27 104 -86c0 -71 -56 -120 -103 -148c-36 -22 -76 -36 -118 -36c-53 0 -105 27 -105 86c0 71 57 120 104 148c36 22 76 36 118 36z" fill="currentColor"/>
</g>
<g transform="translate(58.0036, 72.3638)">
<path transform="scale(0.0040, -0.0040)" d="M222 135c53 0 104 -27 104 -86c0 -71 -56 -120 -103 -148c-36 -22 -76 -36 -118 -36c-53 0 -105 27 -105 86c0 71 57 120 104 148c36 22 76 36 118 36z" fill="currentColor"/>
</g>
<g transform="translate(58.0544, 72.8638)">
<rect x="-0.0508" y="-0.3033" width="0.1015" height="3.3033" ry="0.0267" fill="currentColor"/>
</g>
<g transform="translate(47.5154, 73.8638)">
<path transform="scale(0.0040, -0.0040)" d="M222 135c53 0 104 -27 104 -86c0 -71 -56 -120 -103 -148c-36 -22 -76 -36 -118 -36c-53 0 -105 27 -105 86c0 71 57 120 104 148c36 22 76 36 118 36z" fill="currentColor"/>
</g>
<g transform="translate(40.5926, 71.8638)">
<path transform="scale(0.0040, -0.0040)" d="M222 135c53 0 104 -27 104 -86c0 -71 -56 -120 -103 -148c-36 -22 -76 -36 -118 -36c-53 0 -105 27 -105 86c0 71 57 120 104 148c36 22 76 36 118 36z" fill="currentColor"/>
</g>
<g transform="translate(40.6434, 72.8638)">
<rect x="-0.0508" y="-0.8033" width="0.1015" height="3.3033" ry="0.0267" fill="currentColor"/>
</g>
<g transform="translate(43.6260, 71.8638)">
<path transform="scale(0.0040, -0.0040)" d="M222 135c53 0 104 -27 104 -86c0 -71 -56 -120 -103 -148c-36 -22 -76 -36 -118 -36c-53 0 -105 27 -105 86c0 71 57 120 104 148c36 22 76 36 118 36z" fill="currentColor"/>
</g>
<g transform="translate(43.6768, 72.8638)">
<rect x="-0.0508" y="-0.8033" width="0.1015" height="3.3033" ry="0.0267" fill="currentColor"/>
</g>
<g transform="translate(48.7704, 72.8638)">
<rect x="-0.0508" y="-2.5000" width="0.1015" height="3.3033" ry="0.0267" fill="currentColor"/>
</g>
<g transform="translate(69.4943, 73.8638)">
<path transform="scale(0.0040, -0.0040)" d="M222 135c53 0 104 -27 104 -86c0 -71 -56 -120 -103 -148c-36 -22 -76 -36 -118 -36c-53 0 -105 27 -105 86c0 71 57 120 104 148c36 22 76 36 118 36z" fill="currentColor"/>
</g>
<g transform="translate(70.7494, 72.8638)">
<rect x="-0.0508" y="-2.5000" width="0.1015" height="3.3033" ry="0.0267" fill="currentColor"/>
</g>
<g transform="translate(72.5277, 73.3638)">
<path transform="scale(0.0040, -0.0040)" d="M222 135c53 0 104 -27 104 -86c0 -71 -56 -120 -103 -148c-36 -22 -76 -36 -118 -36c-53 0 -105 27 -105 86c0 71 57 120 104 148c36 22 76 36 118 36z" fill="currentColor"/>
</g>
<g transform="translate(73.7828, 72.8638)">
<rect x="-0.0508" y="-3.0000" width="0.1015" height="3.3033" ry="0.0267" fill="currentColor"/>
</g>
<g transform="translate(60.8892, 73.8638)">
<path transform="scale(0.0040, -0.0040)" d="M316 67c0 25 -20 42 -42 42c-4 0 -9 -1 -13 -2c-31 -9 -79 -41 -117 -65s-86 -55 -107 -80c-7 -8 -10 -19 -10 -29c0 -25 20 -42 42 -42c4 0 9 1 13 2c31 9 79 41 117 65s86 55 107 80c7 8 10 19 10 29zM265 135c44 0 78 -21 78 -68c0 -19 -5 -39 -11 -57
c-12 -37 -33 -71 -65 -93c-53 -36 -114 -52 -189 -52c-44 0 -78 21 -78 68c0 19 5 39 11 57c12 37 33 71 65 93c53 36 114 52 189 52z" fill="currentColor"/>
</g>
<g transform="translate(62.2104, 72.8638)">
<rect x="-0.0508" y="-2.5000" width="0.1015" height="3.2316" ry="0.0267" fill="currentColor"/>
</g>
<g transform="translate(66.4610, 74.3638)">
<path transform="scale(0.0040, -0.0040)" d="M222 135c53 0 104 -27 104 -86c0 -71 -56 -120 -103 -148c-36 -22 -76 -36 -118 -36c-53 0 -105 27 -105 86c0 71 57 120 104 148c36 22 76 36 118 36z" fill="currentColor"/>
</g>
<g transform="translate(67.7160, 72.8638)">
<rect x="-0.0508" y="-2.0000" width="0.1015" height="3.3033" ry="0.0267" fill="currentColor"/>
</g>
<g transform="translate(15.5024, 73.3638)">
<path transform="scale(0.0040, -0.0040)" d="M222 135c53 0 104 -27 104 -86c0 -71 -56 -120 -103 -148c-36 -22 -76 -36 -118 -36c-53 0 -105 27 -105 86c0 71 57 120 104 148c36 22 76 36 118 36z" fill="currentColor"/>
</g>
<g transform="translate(16.7574, 72.8638)">
<rect x="-0.0508" y="-3.0000" width="0.1015" height="3.3033" ry="0.0267" fill="currentColor"/>
</g>
<g transform="translate(20.7565, 74.8638)">
<path transform="scale(0.0040, -0.0040)" d="M316 67c0 25 -20 42 -42 42c-4 0 -9 -1 -13 -2c-31 -9 -79 -41 -117 -65s-86 -55 -107 -80c-7 -8 -10 -19 -10 -29c0 -25 20 -42 42 -42c4 0 9 1 13 2c31 9 79 41 117 65s86 55 107 80c7 8 10 19 10 29zM265 135c44 0 78 -21 78 -68c0 -19 -5 -39 -11 -57
c-12 -37 -33 -71 -65 -93c-53 -36 -114 -52 -189 -52c-44 0 -78 21 -78 68c0 19 5 39 11 57c12 37 33 71 65 93c53 36 114 52 189 52z" fill="currentColor"/>
</g>
<g transform="translate(22.5853, 74.3638)">
<path transform="scale(0.0040, -0.0040)" d="M0 0c0 32 25 57 57 57s57 -25 57 -57s-25 -57 -57 -57s-57 25 -57 57z" fill="currentColor"/>
</g>
<g transform="translate(22.0778, 72.8638)">
<rect x="-0.0508" y="-1.5000" width="0.1015" height="3.2316" ry="0.0267" fill="currentColor"/>
</g>
<g transform="translate(27.0782, 73.3638)">
<path transform="scale(0.0040, -0.0040)" d="M222 135c53 0 104 -27 104 -86c0 -71 -56 -120 -103 -148c-36 -22 -76 -36 -118 -36c-53 0 -105 27 -105 86c0 71 57 120 104 148c36 22 76 36 118 36z" fill="currentColor"/>
</g>
<g transform="translate(4.5937, 73.8638)">
<path transform="scale(0.0040, -0.0040)" d="M374 260c5 0 10 1 15 1c154 0 254 -127 254 -259c0 -76 -33 -153 -107 -208c-22 -17 -47 -29 -73 -37c3 -36 5 -72 5 -108c0 -19 0 -37 -1 -56c-7 -120 -88 -226 -206 -226c-108 0 -195 87 -195 195c0 58 53 104 112 104c54 0 95 -48 95 -104c0 -52 -43 -95 -95 -95
c-12 0 -24 4 -35 9c26 -41 70 -70 121 -70c1 0 2 1 3 1c93 2 154 93 160 192c1 18 2 35 2 53c0 32 -2 64 -5 96c-29 -5 -58 -8 -89 -8c-188 0 -333 171 -333 372c0 178 133 306 251 440c-18 63 -35 126 -42 191c-6 51 -7 102 -7 154c0 116 55 226 150 295c5 4 11 4 16 0
c70 -84 132 -246 132 -359c0 -144 -87 -256 -183 -365c20 -69 39 -138 55 -208zM459 -205c69 24 117 96 117 166c0 92 -69 184 -179 193c25 -117 48 -235 62 -359zM71 31c0 -136 131 -251 267 -251c28 0 55 2 82 6c-15 128 -38 247 -64 367c-79 -9 -125 -62 -125 -121
c0 -44 26 -92 82 -124c4 -4 7 -9 7 -14c0 -11 -9 -21 -20 -21c-3 0 -6 1 -9 2c-80 43 -116 114 -116 184c0 88 57 173 158 196c-14 60 -30 119 -46 178c-108 -121 -216 -242 -216 -402zM411 1050c-99 -50 -161 -151 -161 -262c0 -76 15 -137 33 -200c82 97 149 198 149 325
c0 58 -4 84 -21 137z" fill="currentColor"/>
</g>
<g transform="translate(1.5630, 69.8000)">
<text font-family="serif" font-size="1.7461" text-anchor="start" fill="currentColor">
<tspan>23</tspan>
</text>
</g>
<g transform="translate(9.5937, 71.3638)">
<path transform="scale(0.0040, -0.0040)" d="M222 135c53 0 104 -27 104 -86c0 -71 -56 -120 -103 -148c-36 -22 -76 -36 -118 -36c-53 0 -105 27 -105 86c0 71 57 120 104 148c36 22 76 36 118 36z" fill="currentColor"/>
</g>
<g transform="translate(9.6445, 72.8638)">
<rect x="-0.0508" y="-1.3033" width="0.1015" height="3.3033" ry="0.0267" fill="currentColor"/>
</g>
<g transform="translate(12.6271, 71.8638)">
<path transform="scale(0.0040, -0.0040)" d="M222 135c53 0 104 -27 104 -86c0 -71 -56 -120 -103 -148c-36 -22 -76 -36 -118 -36c-53 0 -105 27 -105 86c0 71 57 120 104 148c36 22 76 36 118 36z" fill="currentColor"/>
</g>
<g transform="translate(12.6778, 72.8638)">
<rect x="-0.0508" y="-0.8033" width="0.1015" height="3.3033" ry="0.0267" fill="currentColor"/>
</g>
<g transform="translate(37.6100, 72.8638)">
<rect x="-0.0508" y="-0.8033" width="0.1015" height="3.3033" ry="0.0267" fill="currentColor"/>
</g>
<g transform="translate(30.1116, 73.3638)">
<path transform="scale(0.0040, -0.0040)" d="M222 135c53 0 104 -27 104 -86c0 -71 -56 -120 -103 -148c-36 -22 -76 -36 -118 -36c-53 0 -105 27 -105 86c0 71 57 120 104 148c36 22 76 36 118 36z" fill="currentColor"/>
</g>
<g transform="translate(31.3666, 72.8638)">
<rect x="-0.0508" y="-3.0000" width="0.1015" height="3.3033" ry="0.0267" fill="currentColor"/>
</g>
<g transform="translate(28.3332, 72.8638)">
<rect x="-0.0508" y="-3.0000" width="0.1015" height="3.3033" ry="0.0267" fill="currentColor"/>
</g>
<g transform="translate(33.1450, 73.3638)">
<path transform="scale(0.0040, -0.0040)" d="M222 135c53 0 104 -27 104 -86c0 -71 -56 -120 -103 -148c-36 -22 -76 -36 -118 -36c-53 0 -105 27 -105 86c0 71 57 120 104 148c36 22 76 36 118 36z" fill="currentColor"/>
</g>
<g transform="translate(34.4000, 72.8638)">
<rect x="-0.0508" y="-3.0000" width="0.1015" height="3.3033" ry="0.0267" fill="currentColor"/>
</g>
<g transform="translate(37.5593, 71.8638)">
<path transform="scale(0.0040, -0.0040)" d="M222 135c53 0 104 -27 104 -86c0 -71 -56 -120 -103 -148c-36 -22 -76 -36 -118 -36c-53 0 -105 27 -105 86c0 71 57 120 104 148c36 22 76 36 118 36z" fill="currentColor"/>
</g>
<g transform="translate(3.7937, 90.2225)">
<line stroke-linejoin="round" stroke-linecap="round" stroke-width="0.0781" stroke="currentColor" x1="0.0390" y1="0" x2="72.0413" y2="0"/>
</g>
<g transform="translate(3.7937, 89.2225)">
<line stroke-linejoin="round" stroke-linecap="round" stroke-width="0.0781" stroke="currentColor" x1="0.0390" y1="0" x2="72.0413" y2="0"/>
</g>
<g transform="translate(3.7937, 88.2225)">
<line stroke-linejoin="round" stroke-linecap="round" stroke-width="0.0781" stroke="currentColor" x1="0.0390" y1="0" x2="72.0413" y2="0"/>
</g>
<g transform="translate(3.7937, 87.2225)">
<line stroke-linejoin="round" stroke-linecap="round" stroke-width="0.0781" stroke="currentColor" x1="0.0390" y1="0" x2="72.0413" y2="0"/>
</g>
<g transform="translate(3.7937, 86.2225)">
<line stroke-linejoin="round" stroke-linecap="round" stroke-width="0.0781" stroke="currentColor" x1="0.0390" y1="0" x2="72.0413" y2="0"/>
</g>
<g transform="translate(46.6602, 88.2225)">
<rect x="0.0000" y="-2.0000" width="0.1484" height="4.0000" ry="0.0000" fill="currentColor"/>
</g>
<g transform="translate(28.2797, 88.2225)">
<rect x="0.0000" y="-2.0000" width="0.1484" height="4.0000" ry="0.0000" fill="currentColor"/>
</g>
<g transform="translate(67.8897, 88.2225)">
<rect x="0.0000" y="-2.0000" width="0.1484" height="4.0000" ry="0.0000" fill="currentColor"/>
</g>
<g transform="translate(56.6629, 88.2225)">
<rect x="0.0000" y="-2.0000" width="0.1484" height="4.0000" ry="0.0000" fill="currentColor"/>
</g>
<g transform="translate(18.2846, 88.2225)">
<rect x="0.0000" y="-2.0000" width="0.1484" height="4.0000" ry="0.0000" fill="currentColor"/>
</g>
<g transform="translate(75.4054, 88.2225)">
<rect x="0.0000" y="-2.0000" width="0.4686" height="4.0000" ry="0.0000" fill="currentColor"/>
</g>
<g transform="translate(75.0228, 88.2225)">
<rect x="0.0000" y="-2.0000" width="0.1484" height="4.0000" ry="0.0000" fill="currentColor"/>
</g>
<g transform="translate(35.3655, 87.7225)">
<path transform="scale(0.0040, -0.0040)" d="M0 0c0 32 25 57 57 57s57 -25 57 -57s-25 -57 -57 -57s-57 25 -57 57z" fill="currentColor"/>
</g>
<g transform="translate(35.3655, 88.7225)">
<path transform="scale(0.0040, -0.0040)" d="M0 0c0 32 25 57 57 57s57 -25 57 -57s-25 -57 -57 -57s-57 25 -57 57z" fill="currentColor"/>
</g>
<g transform="translate(36.4392, 88.2225)">
<rect x="0.0000" y="-2.0000" width="0.4686" height="4.0000" ry="0.0000" fill="currentColor"/>
</g>
<g transform="translate(36.0565, 88.2225)">
<rect x="0.0000" y="-2.0000" width="0.1484" height="4.0000" ry="0.0000" fill="currentColor"/>
</g>
<g transform="translate(54.7183, 88.2225)">
<rect x="-0.0508" y="-2.0000" width="0.1015" height="3.3033" ry="0.0267" fill="currentColor"/>
</g>
<g transform="translate(53.4632, 89.7225)">
<path transform="scale(0.0040, -0.0040)" d="M222 135c53 0 104 -27 104 -86c0 -71 -56 -120 -103 -148c-36 -22 -76 -36 -118 -36c-53 0 -105 27 -105 86c0 71 57 120 104 148c36 22 76 36 118 36z" fill="currentColor"/>
</g>
<g transform="translate(52.0045, 88.2225)">
<rect x="-0.0508" y="-3.0000" width="0.1015" height="3.3033" ry="0.0267" fill="currentColor"/>
</g>
<g transform="translate(50.7495, 88.7225)">
<path transform="scale(0.0040, -0.0040)" d="M222 135c53 0 104 -27 104 -86c0 -71 -56 -120 -103 -148c-36 -22 -76 -36 -118 -36c-53 0 -105 27 -105 86c0 71 57 120 104 148c36 22 76 36 118 36z" fill="currentColor"/>
</g>
<g transform="translate(57.8037, 88.2225)">
<path transform="scale(0.0040, -0.0040)" d="M222 135c53 0 104 -27 104 -86c0 -71 -56 -120 -103 -148c-36 -22 -76 -36 -118 -36c-53 0 -105 27 -105 86c0 71 57 120 104 148c36 22 76 36 118 36z" fill="currentColor"/>
</g>
<g transform="translate(57.8544, 88.2225)">
<rect x="-0.0508" y="0.1967" width="0.1015" height="3.1366" ry="0.0267" fill="currentColor"/>
</g>
<g transform="translate(47.8517, 88.2225)">
<rect x="-0.0508" y="0.1967" width="0.1015" height="3.1366" ry="0.0267" fill="currentColor"/>
</g>
<g transform="translate(64.6702, 87.2225)">
<polygon stroke-linejoin="round" stroke-linecap="round" stroke-width="0.0533" fill="currentColor" stroke="currentColor" points="2.1618 -0.0124 2.1618 0.4143 0.0267 0.2133 0.0267 -0.2133"/>
</g>
<g transform="translate(40.7468, 88.7225)">
<path transform="scale(0.0040, -0.0040)" d="M222 135c53 0 104 -27 104 -86c0 -71 -56 -120 -103 -148c-36 -22 -76 -36 -118 -36c-53 0 -105 27 -105 86c0 71 57 120 104 148c36 22 76 36 118 36z" fill="currentColor"/>
</g>
<g transform="translate(42.0018, 88.2225)">
<rect x="-0.0508" y="-3.0000" width="0.1015" height="3.3033" ry="0.0267" fill="currentColor"/>
</g>
<g transform="translate(43.4605, 89.7225)">
<path transform="scale(0.0040, -0.0040)" d="M222 135c53 0 104 -27 104 -86c0 -71 -56 -120 -103 -148c-36 -22 -76 -36 -118 -36c-53 0 -105 27 -105 86c0 71 57 120 104 148c36 22 76 36 118 36z" fill="currentColor"/>
</g>
<g transform="translate(44.7156, 88.2225)">
<rect x="-0.0508" y="-2.0000" width="0.1015" height="3.3033" ry="0.0267" fill="currentColor"/>
</g>
<g transform="translate(47.8010, 88.2225)">
<path transform="scale(0.0040, -0.0040)" d="M222 135c53 0 104 -27 104 -86c0 -71 -56 -120 -103 -148c-36 -22 -76 -36 -118 -36c-53 0 -105 27 -105 86c0 71 57 120 104 148c36 22 76 36 118 36z" fill="currentColor"/>
</g>
<g transform="translate(60.7522, 88.7225)">
<path transform="scale(0.0040, -0.0040)" d="M222 135c53 0 104 -27 104 -86c0 -71 -56 -120 -103 -148c-36 -22 -76 -36 -118 -36c-53 0 -105 27 -105 86c0 71 57 120 104 148c36 22 76 36 118 36z" fill="currentColor"/>
</g>
<g transform="translate(62.0072, 88.2225)">
<rect x="-0.0508" y="-3.0000" width="0.1015" height="3.3033" ry="0.0267" fill="currentColor"/>
</g>
<g transform="translate(63.4659, 90.2225)">
<path transform="scale(0.0040, -0.0040)" d="M222 135c53 0 104 -27 104 -86c0 -71 -56 -120 -103 -148c-36 -22 -76 -36 -118 -36c-53 0 -105 27 -105 86c0 71 57 120 104 148c36 22 76 36 118 36z" fill="currentColor"/>
</g>
<g transform="translate(64.7209, 88.2225)">
<rect x="-0.0508" y="-0.9953" width="0.1015" height="2.7986" ry="0.0267" fill="currentColor"/>
</g>
<g transform="translate(65.5528, 90.7225)">
<path transform="scale(0.0040, -0.0040)" d="M222 135c53 0 104 -27 104 -86c0 -71 -56 -120 -103 -148c-36 -22 -76 -36 -118 -36c-53 0 -105 27 -105 86c0 71 57 120 104 148c36 22 76 36 118 36z" fill="currentColor"/>
</g>
<g transform="translate(66.8078, 88.2225)">
<rect x="-0.0508" y="-0.8037" width="0.1015" height="3.1070" ry="0.0267" fill="currentColor"/>
</g>
<g transform="translate(69.9050, 90.2225)">
<path transform="scale(0.0040, -0.0040)" d="M316 67c0 25 -20 42 -42 42c-4 0 -9 -1 -13 -2c-31 -9 -79 -41 -117 -65s-86 -55 -107 -80c-7 -8 -10 -19 -10 -29c0 -25 20 -42 42 -42c4 0 9 1 13 2c31 9 79 41 117 65s86 55 107 80c7 8 10 19 10 29zM265 135c44 0 78 -21 78 -68c0 -19 -5 -39 -11 -57
c-12 -37 -33 -71 -65 -93c-53 -36 -114 -52 -189 -52c-44 0 -78 21 -78 68c0 19 5 39 11 57c12 37 33 71 65 93c53 36 114 52 189 52z" fill="currentColor"/>
</g>
<g transform="translate(71.7338, 89.7225)">
<path transform="scale(0.0040, -0.0040)" d="M0 0c0 32 25 57 57 57s57 -25 57 -57s-25 -57 -57 -57s-57 25 -57 57z" fill="currentColor"/>
</g>
<g transform="translate(71.2263, 88.2225)">
<rect x="-0.0508" y="-1.5000" width="0.1015" height="3.2316" ry="0.0267" fill="currentColor"/>
</g>
<g transform="translate(15.5211, 87.2225)">
<path transform="scale(0.0040, -0.0040)" d="M222 135c53 0 104 -27 104 -86c0 -71 -56 -120 -103 -148c-36 -22 -76 -36 -118 -36c-53 0 -105 27 -105 86c0 71 57 120 104 148c36 22 76 36 118 36z" fill="currentColor"/>
</g>
<g transform="translate(15.5719, 88.2225)">
<rect x="-0.0508" y="-0.8033" width="0.1015" height="3.3033" ry="0.0267" fill="currentColor"/>
</g>
<g transform="translate(19.3236, 88.7225)">
<path transform="scale(0.0040, -0.0040)" d="M222 135c53 0 104 -27 104 -86c0 -71 -56 -120 -103 -148c-36 -22 -76 -36 -118 -36c-53 0 -105 27 -105 86c0 71 57 120 104 148c36 22 76 36 118 36z" fill="currentColor"/>
</g>
<g transform="translate(20.5786, 88.2225)">
<rect x="-0.0508" y="-3.0000" width="0.1015" height="3.3033" ry="0.0267" fill="currentColor"/>
</g>
<g transform="translate(22.3025, 88.2225)">
<path transform="scale(0.0040, -0.0040)" d="M222 135c53 0 104 -27 104 -86c0 -71 -56 -120 -103 -148c-36 -22 -76 -36 -118 -36c-53 0 -105 27 -105 86c0 71 57 120 104 148c36 22 76 36 118 36z" fill="currentColor"/>
</g>
<g transform="translate(22.3533, 88.2225)">
<rect x="-0.0508" y="0.1967" width="0.1015" height="3.1366" ry="0.0267" fill="currentColor"/>
</g>
<g transform="translate(4.5937, 89.2225)">
<path transform="scale(0.0040, -0.0040)" d="M374 260c5 0 10 1 15 1c154 0 254 -127 254 -259c0 -76 -33 -153 -107 -208c-22 -17 -47 -29 -73 -37c3 -36 5 -72 5 -108c0 -19 0 -37 -1 -56c-7 -120 -88 -226 -206 -226c-108 0 -195 87 -195 195c0 58 53 104 112 104c54 0 95 -48 95 -104c0 -52 -43 -95 -95 -95
c-12 0 -24 4 -35 9c26 -41 70 -70 121 -70c1 0 2 1 3 1c93 2 154 93 160 192c1 18 2 35 2 53c0 32 -2 64 -5 96c-29 -5 -58 -8 -89 -8c-188 0 -333 171 -333 372c0 178 133 306 251 440c-18 63 -35 126 -42 191c-6 51 -7 102 -7 154c0 116 55 226 150 295c5 4 11 4 16 0
c70 -84 132 -246 132 -359c0 -144 -87 -256 -183 -365c20 -69 39 -138 55 -208zM459 -205c69 24 117 96 117 166c0 92 -69 184 -179 193c25 -117 48 -235 62 -359zM71 31c0 -136 131 -251 267 -251c28 0 55 2 82 6c-15 128 -38 247 -64 367c-79 -9 -125 -62 -125 -121
c0 -44 26 -92 82 -124c4 -4 7 -9 7 -14c0 -11 -9 -21 -20 -21c-3 0 -6 1 -9 2c-80 43 -116 114 -116 184c0 88 57 173 158 196c-14 60 -30 119 -46 178c-108 -121 -216 -242 -216 -402zM411 1050c-99 -50 -161 -151 -161 -262c0 -76 15 -137 33 -200c82 97 149 198 149 325
c0 58 -4 84 -21 137z" fill="currentColor"/>
</g>
<g transform="translate(1.5630, 85.1587)">
<text font-family="serif" font-size="1.7461" text-anchor="start" fill="currentColor">
<tspan>30</tspan>
</text>
</g>
<g transform="translate(9.5937, 88.2225)">
<path transform="scale(0.0040, -0.0040)" d="M222 135c53 0 104 -27 104 -86c0 -71 -56 -120 -103 -148c-36 -22 -76 -36 -118 -36c-53 0 -105 27 -105 86c0 71 57 120 104 148c36 22 76 36 118 36z" fill="currentColor"/>
</g>
<g transform="translate(9.6445, 88.2225)">
<rect x="-0.0508" y="0.1967" width="0.1015" height="3.1366" ry="0.0267" fill="currentColor"/>
</g>
<g transform="translate(8.4437, 88.2225)">
<path transform="scale(0.0040, -0.0040)" d="M25 44l-1 -69c0 -4 -1 -7 -1 -11c0 -22 2 -44 4 -66c46 38 96 80 96 139c0 34 -14 69 -44 69c-31 0 -53 -29 -54 -62zM-25 463c8 4 16 7 25 7s17 -3 25 -7l-6 -349c26 19 56 30 88 30c53 0 93 -46 93 -100c0 -82 -90 -118 -153 -169c-14 -11 -22 -32 -40 -32
c-12 0 -21 9 -21 21z" fill="currentColor"/>
</g>
<g transform="translate(12.5574, 87.7225)">
<path transform="scale(0.0040, -0.0040)" d="M222 135c53 0 104 -27 104 -86c0 -71 -56 -120 -103 -148c-36 -22 -76 -36 -118 -36c-53 0 -105 27 -105 86c0 71 57 120 104 148c36 22 76 36 118 36z" fill="currentColor"/>
</g>
<g transform="translate(12.6082, 88.2225)">
<rect x="-0.0508" y="-0.3033" width="0.1015" height="3.3033" ry="0.0267" fill="currentColor"/>
</g>
<g transform="translate(37.7983, 88.2225)">
<path transform="scale(0.0040, -0.0040)" d="M222 135c53 0 104 -27 104 -86c0 -71 -56 -120 -103 -148c-36 -22 -76 -36 -118 -36c-53 0 -105 27 -105 86c0 71 57 120 104 148c36 22 76 36 118 36z" fill="currentColor"/>
</g>
<g transform="translate(37.8491, 88.2225)">
<rect x="-0.0508" y="0.1967" width="0.1015" height="3.1366" ry="0.0267" fill="currentColor"/>
</g>
<g transform="translate(25.5162, 87.2225)">
<path transform="scale(0.0040, -0.0040)" d="M222 135c53 0 104 -27 104 -86c0 -71 -56 -120 -103 -148c-36 -22 -76 -36 -118 -36c-53 0 -105 27 -105 86c0 71 57 120 104 148c36 22 76 36 118 36z" fill="currentColor"/>
</g>
<g transform="translate(25.5670, 88.2225)">
<rect x="-0.0508" y="-0.8033" width="0.1015" height="3.3033" ry="0.0267" fill="currentColor"/>
</g>
<g transform="translate(30.4785, 86.7225)">
<path transform="scale(0.0040, -0.0040)" d="M316 67c0 25 -20 42 -42 42c-4 0 -9 -1 -13 -2c-31 -9 -79 -41 -117 -65s-86 -55 -107 -80c-7 -8 -10 -19 -10 -29c0 -25 20 -42 42 -42c4 0 9 1 13 2c31 9 79 41 117 65s86 55 107 80c7 8 10 19 10 29zM265 135c44 0 78 -21 78 -68c0 -19 -5 -39 -11 -57
c-12 -37 -33 -71 -65 -93c-53 -36 -114 -52 -189 -52c-44 0 -78 21 -78 68c0 19 5 39 11 57c12 37 33 71 65 93c53 36 114 52 189 52z" fill="currentColor"/>
</g>
<g transform="translate(32.3073, 86.7225)">
<path transform="scale(0.0040, -0.0040)" d="M0 0c0 32 25 57 57 57s57 -25 57 -57s-25 -57 -57 -57s-57 25 -57 57z" fill="currentColor"/>
</g>
<g transform="translate(30.5293, 88.2225)">
<rect x="-0.0508" y="-1.2316" width="0.1015" height="3.2316" ry="0.0267" fill="currentColor"/>
</g>
</svg>
