<svg xmlns="http://www.w3.org/2000/svg" xmlns:xlink="http://www.w3.org/1999/xlink" version="1.2" width="210.00mm" height="297.00mm" viewBox="0 0 79.6677 112.6729">
<style type="text/css">
<![CDATA[
tspan { white-space: pre; }
]]>
</style>
<!-- Page: 1/1 -->
<g transform="translate(24.8222, 5.5600)">
<text font-family="serif" font-weight="bold" font-size="3.4925" text-anchor="start" fill="currentColor">
<tspan>Song of Storms</tspan>
</text>
</g>
<g transform="translate(28.2365, 9.0600)">
<text font-family="serif" font-weight="bold" font-size="1.9602" text-anchor="start" fill="currentColor">
<tspan>The Legend of Zelda:</tspan>
</text>
</g>
<g transform="translate(30.9907, 12.1782)">
<text font-family="serif" font-weight="bold" font-size="1.9602" text-anchor="start" fill="currentColor">
<tspan>Ocarina of Time</tspan>
</text>
</g>
<g transform="translate(63.7873, 13.9081)">
<text font-family="serif" font-size="2.2003" text-anchor="start" fill="currentColor">
<tspan>Kōji Kondo</tspan>
</text>
</g>
<g transform="translate(3.7937, 28.4235)">
<line stroke-linejoin="round" stroke-linecap="round" stroke-width="0.0781" stroke="currentColor" x1="0.0390" y1="0" x2="72.0413" y2="0"/>
</g>
<g transform="translate(3.7937, 27.4235)">
<line stroke-linejoin="round" stroke-linecap="round" stroke-width="0.0781" stroke="currentColor" x1="0.0390" y1="0" x2="72.0413" y2="0"/>
</g>
<g transform="translate(3.7937, 26.4235)">
<line stroke-linejoin="round" stroke-linecap="round" stroke-width="0.0781" stroke="currentColor" x1="0.0390" y1="0" x2="72.0413" y2="0"/>
</g>
<g transform="translate(3.7937, 25.4235)">
<line stroke-linejoin="round" stroke-linecap="round" stroke-width="0.0781" stroke="currentColor" x1="0.0390" y1="0" x2="72.0413" y2="0"/>
</g>
<g transform="translate(3.7937, 24.4235)">
<line stroke-linejoin="round" stroke-linecap="round" stroke-width="0.0781" stroke="currentColor" x1="0.0390" y1="0" x2="72.0413" y2="0"/>
</g>
<g transform="translate(45.4379, 26.4235)">
<rect x="0.0000" y="-2.0000" width="0.1484" height="4.0000" ry="0.0000" fill="currentColor"/>
</g>
<g transform="translate(37.5095, 26.4235)">
<rect x="0.0000" y="-2.0000" width="0.1484" height="4.0000" ry="0.0000" fill="currentColor"/>
</g>
<g transform="translate(55.4272, 26.4235)">
<rect x="0.0000" y="-2.0000" width="0.1484" height="4.0000" ry="0.0000" fill="currentColor"/>
</g>
<g transform="translate(28.0627, 26.4235)">
<rect x="0.0000" y="-2.0000" width="0.1484" height="4.0000" ry="0.0000" fill="currentColor"/>
</g>
<g transform="translate(60.5461, 26.4235)">
<rect x="0.0000" y="-2.0000" width="0.1484" height="4.0000" ry="0.0000" fill="currentColor"/>
</g>
<g transform="translate(19.7862, 26.4235)">
<rect x="0.0000" y="-2.0000" width="0.1484" height="4.0000" ry="0.0000" fill="currentColor"/>
</g>
<g transform="translate(70.5353, 26.4235)">
<rect x="0.0000" y="-2.0000" width="0.1484" height="4.0000" ry="0.0000" fill="currentColor"/>
</g>
<g transform="translate(75.7256, 26.4235)">
<rect x="0.0000" y="-2.0000" width="0.1484" height="4.0000" ry="0.0000" fill="currentColor"/>
</g>
<g transform="translate(58.1185, 26.4235)">
<rect x="-0.0508" y="-3.0000" width="0.1015" height="3.2316" ry="0.0267" fill="currentColor"/>
</g>
<g transform="translate(58.6260, 26.9235)">
<path transform="scale(0.0040, -0.0040)" d="M0 0c0 32 25 57 57 57s57 -25 57 -57s-25 -57 -57 -57s-57 25 -57 57z" fill="currentColor"/>
</g>
<g transform="translate(56.7972, 26.9235)">
<path transform="scale(0.0040, -0.0040)" d="M316 67c0 25 -20 42 -42 42c-4 0 -9 -1 -13 -2c-31 -9 -79 -41 -117 -65s-86 -55 -107 -80c-7 -8 -10 -19 -10 -29c0 -25 20 -42 42 -42c4 0 9 1 13 2c31 9 79 41 117 65s86 55 107 80c7 8 10 19 10 29zM265 135c44 0 78 -21 78 -68c0 -19 -5 -39 -11 -57
c-12 -37 -33 -71 -65 -93c-53 -36 -114 -52 -189 -52c-44 0 -78 21 -78 68c0 19 5 39 11 57c12 37 33 71 65 93c53 36 114 52 189 52z" fill="currentColor"/>
</g>
<g transform="translate(54.5577, 26.4235)">
<rect x="-0.0508" y="-1.9950" width="0.1015" height="2.7982" ry="0.0267" fill="currentColor"/>
</g>
<g transform="translate(53.3026, 27.4235)">
<path transform="scale(0.0040, -0.0040)" d="M222 135c53 0 104 -27 104 -86c0 -71 -56 -120 -103 -148c-36 -22 -76 -36 -118 -36c-53 0 -105 27 -105 86c0 71 57 120 104 148c36 22 76 36 118 36z" fill="currentColor"/>
</g>
<g transform="translate(52.6333, 26.4235)">
<rect x="-0.0508" y="-1.8041" width="0.1015" height="3.1074" ry="0.0267" fill="currentColor"/>
</g>
<g transform="translate(21.8451, 25.2225)">
<polygon stroke-linejoin="round" stroke-linecap="round" stroke-width="0.0533" fill="currentColor" stroke="currentColor" points="2.2492 -0.8114 2.2492 -0.3848 0.0267 0.2133 0.0267 -0.2133"/>
</g>
<g transform="translate(31.9865, 27.4235)">
<polygon stroke-linejoin="round" stroke-linecap="round" stroke-width="0.0533" fill="currentColor" stroke="currentColor" points="3.9235 -0.2133 3.9235 0.2133 0.0267 0.2133 0.0267 -0.2133"/>
</g>
<g transform="translate(61.4006, 26.9235)">
<path transform="scale(0.0040, -0.0040)" d="M222 135c53 0 104 -27 104 -86c0 -71 -56 -120 -103 -148c-36 -22 -76 -36 -118 -36c-53 0 -105 27 -105 86c0 71 57 120 104 148c36 22 76 36 118 36z" fill="currentColor"/>
</g>
<g transform="translate(42.0509, 26.9235)">
<path transform="scale(0.0040, -0.0040)" d="M316 67c0 25 -20 42 -42 42c-4 0 -9 -1 -13 -2c-31 -9 -79 -41 -117 -65s-86 -55 -107 -80c-7 -8 -10 -19 -10 -29c0 -25 20 -42 42 -42c4 0 9 1 13 2c31 9 79 41 117 65s86 55 107 80c7 8 10 19 10 29zM265 135c44 0 78 -21 78 -68c0 -19 -5 -39 -11 -57
c-12 -37 -33 -71 -65 -93c-53 -36 -114 -52 -189 -52c-44 0 -78 21 -78 68c0 19 5 39 11 57c12 37 33 71 65 93c53 36 114 52 189 52z" fill="currentColor"/>
</g>
<g transform="translate(43.3722, 26.4235)">
<rect x="-0.0508" y="-3.0000" width="0.1015" height="3.2316" ry="0.0267" fill="currentColor"/>
</g>
<g transform="translate(46.2925, 26.9235)">
<path transform="scale(0.0040, -0.0040)" d="M222 135c53 0 104 -27 104 -86c0 -71 -56 -120 -103 -148c-36 -22 -76 -36 -118 -36c-53 0 -105 27 -105 86c0 71 57 120 104 148c36 22 76 36 118 36z" fill="currentColor"/>
</g>
<g transform="translate(47.5475, 26.4235)">
<rect x="-0.0508" y="-3.0000" width="0.1015" height="3.3033" ry="0.0267" fill="currentColor"/>
</g>
<g transform="translate(13.5686, 25.2225)">
<polygon stroke-linejoin="round" stroke-linecap="round" stroke-width="0.0533" fill="currentColor" stroke="currentColor" points="2.2492 -0.8114 2.2492 -0.3848 0.0267 0.2133 0.0267 -0.2133"/>
</g>
<g transform="translate(62.6557, 26.4235)">
<rect x="-0.0508" y="-3.0000" width="0.1015" height="3.3033" ry="0.0267" fill="currentColor"/>
</g>
<g transform="translate(48.5854, 28.9235)">
<path transform="scale(0.0040, -0.0040)" d="M222 135c53 0 104 -27 104 -86c0 -71 -56 -120 -103 -148c-36 -22 -76 -36 -118 -36c-53 0 -105 27 -105 86c0 71 57 120 104 148c36 22 76 36 118 36z" fill="currentColor"/>
</g>
<g transform="translate(49.8404, 26.4235)">
<rect x="-0.0508" y="-1.0000" width="0.1015" height="3.3033" ry="0.0267" fill="currentColor"/>
</g>
<g transform="translate(51.3783, 27.9235)">
<path transform="scale(0.0040, -0.0040)" d="M222 135c53 0 104 -27 104 -86c0 -71 -56 -120 -103 -148c-36 -22 -76 -36 -118 -36c-53 0 -105 27 -105 86c0 71 57 120 104 148c36 22 76 36 118 36z" fill="currentColor"/>
</g>
<g transform="translate(71.9053, 28.4235)">
<path transform="scale(0.0040, -0.0040)" d="M316 67c0 25 -20 42 -42 42c-4 0 -9 -1 -13 -2c-31 -9 -79 -41 -117 -65s-86 -55 -107 -80c-7 -8 -10 -19 -10 -29c0 -25 20 -42 42 -42c4 0 9 1 13 2c31 9 79 41 117 65s86 55 107 80c7 8 10 19 10 29zM265 135c44 0 78 -21 78 -68c0 -19 -5 -39 -11 -57
c-12 -37 -33 -71 -65 -93c-53 -36 -114 -52 -189 -52c-44 0 -78 21 -78 68c0 19 5 39 11 57c12 37 33 71 65 93c53 36 114 52 189 52z" fill="currentColor"/>
</g>
<g transform="translate(73.7341, 27.9235)">
<path transform="scale(0.0040, -0.0040)" d="M0 0c0 32 25 57 57 57s57 -25 57 -57s-25 -57 -57 -57s-57 25 -57 57z" fill="currentColor"/>
</g>
<g transform="translate(73.2266, 26.4235)">
<rect x="-0.0508" y="-1.5000" width="0.1015" height="3.2316" ry="0.0267" fill="currentColor"/>
</g>
<g transform="translate(67.6907, 24.6244)">
<polygon stroke-linejoin="round" stroke-linecap="round" stroke-width="0.0533" fill="currentColor" stroke="currentColor" points="1.9992 -0.4143 1.9992 0.0124 0.0267 0.2133 0.0267 -0.2133"/>
</g>
<g transform="translate(63.6935, 28.9235)">
<path transform="scale(0.0040, -0.0040)" d="M222 135c53 0 104 -27 104 -86c0 -71 -56 -120 -103 -148c-36 -22 -76 -36 -118 -36c-53 0 -105 27 -105 86c0 71 57 120 104 148c36 22 76 36 118 36z" fill="currentColor"/>
</g>
<g transform="translate(38.5286, 28.6244)">
<polygon stroke-linejoin="round" stroke-linecap="round" stroke-width="0.0533" fill="currentColor" stroke="currentColor" points="1.7492 0.3848 1.7492 0.8114 0.0267 0.2133 0.0267 -0.2133"/>
</g>
<g transform="translate(64.9486, 26.4235)">
<rect x="-0.0508" y="-1.0000" width="0.1015" height="3.3033" ry="0.0267" fill="currentColor"/>
</g>
<g transform="translate(66.4864, 27.9235)">
<path transform="scale(0.0040, -0.0040)" d="M222 135c53 0 104 -27 104 -86c0 -71 -56 -120 -103 -148c-36 -22 -76 -36 -118 -36c-53 0 -105 27 -105 86c0 71 57 120 104 148c36 22 76 36 118 36z" fill="currentColor"/>
</g>
<g transform="translate(67.7414, 26.4235)">
<rect x="-0.0508" y="-1.8041" width="0.1015" height="3.1074" ry="0.0267" fill="currentColor"/>
</g>
<g transform="translate(52.5826, 24.6244)">
<polygon stroke-linejoin="round" stroke-linecap="round" stroke-width="0.0533" fill="currentColor" stroke="currentColor" points="1.9992 -0.4143 1.9992 0.0124 0.0267 0.2133 0.0267 -0.2133"/>
</g>
<g transform="translate(68.4107, 27.4235)">
<path transform="scale(0.0040, -0.0040)" d="M222 135c53 0 104 -27 104 -86c0 -71 -56 -120 -103 -148c-36 -22 -76 -36 -118 -36c-53 0 -105 27 -105 86c0 71 57 120 104 148c36 22 76 36 118 36z" fill="currentColor"/>
</g>
<g transform="translate(69.6658, 26.4235)">
<rect x="-0.0508" y="-1.9950" width="0.1015" height="2.7982" ry="0.0267" fill="currentColor"/>
</g>
<g transform="translate(22.8151, 27.9235)">
<path transform="scale(0.0040, -0.0040)" d="M222 135c53 0 104 -27 104 -86c0 -71 -56 -120 -103 -148c-36 -22 -76 -36 -118 -36c-53 0 -105 27 -105 86c0 71 57 120 104 148c36 22 76 36 118 36z" fill="currentColor"/>
</g>
<g transform="translate(21.8958, 26.4235)">
<rect x="-0.0508" y="-1.2143" width="0.1015" height="3.5176" ry="0.0267" fill="currentColor"/>
</g>
<g transform="translate(20.6408, 28.9235)">
<path transform="scale(0.0040, -0.0040)" d="M222 135c53 0 104 -27 104 -86c0 -71 -56 -120 -103 -148c-36 -22 -76 -36 -118 -36c-53 0 -105 27 -105 86c0 71 57 120 104 148c36 22 76 36 118 36z" fill="currentColor"/>
</g>
<g transform="translate(24.0702, 26.4235)">
<rect x="-0.0508" y="-1.7857" width="0.1015" height="3.0890" ry="0.0267" fill="currentColor"/>
</g>
<g transform="translate(25.0302, 25.4235)">
<path transform="scale(0.0040, -0.0040)" d="M316 67c0 25 -20 42 -42 42c-4 0 -9 -1 -13 -2c-31 -9 -79 -41 -117 -65s-86 -55 -107 -80c-7 -8 -10 -19 -10 -29c0 -25 20 -42 42 -42c4 0 9 1 13 2c31 9 79 41 117 65s86 55 107 80c7 8 10 19 10 29zM265 135c44 0 78 -21 78 -68c0 -19 -5 -39 -11 -57
c-12 -37 -33 -71 -65 -93c-53 -36 -114 -52 -189 -52c-44 0 -78 21 -78 68c0 19 5 39 11 57c12 37 33 71 65 93c53 36 114 52 189 52z" fill="currentColor"/>
</g>
<g transform="translate(25.0809, 26.4235)">
<rect x="-0.0508" y="-0.7316" width="0.1015" height="3.2316" ry="0.0267" fill="currentColor"/>
</g>
<g transform="translate(29.0818, 24.9235)">
<path transform="scale(0.0040, -0.0040)" d="M222 135c53 0 104 -27 104 -86c0 -71 -56 -120 -103 -148c-36 -22 -76 -36 -118 -36c-53 0 -105 27 -105 86c0 71 57 120 104 148c36 22 76 36 118 36z" fill="currentColor"/>
</g>
<g transform="translate(30.8444, 24.9235)">
<path transform="scale(0.0040, -0.0040)" d="M0 0c0 32 25 57 57 57s57 -25 57 -57s-25 -57 -57 -57s-57 25 -57 57z" fill="currentColor"/>
</g>
<g transform="translate(29.1325, 26.4235)">
<rect x="-0.0508" y="-1.3033" width="0.1015" height="3.3033" ry="0.0267" fill="currentColor"/>
</g>
<g transform="translate(12.3643, 28.9235)">
<path transform="scale(0.0040, -0.0040)" d="M222 135c53 0 104 -27 104 -86c0 -71 -56 -120 -103 -148c-36 -22 -76 -36 -118 -36c-53 0 -105 27 -105 86c0 71 57 120 104 148c36 22 76 36 118 36z" fill="currentColor"/>
</g>
<g transform="translate(4.5937, 27.4235)">
<path transform="scale(0.0040, -0.0040)" d="M374 260c5 0 10 1 15 1c154 0 254 -127 254 -259c0 -76 -33 -153 -107 -208c-22 -17 -47 -29 -73 -37c3 -36 5 -72 5 -108c0 -19 0 -37 -1 -56c-7 -120 -88 -226 -206 -226c-108 0 -195 87 -195 195c0 58 53 104 112 104c54 0 95 -48 95 -104c0 -52 -43 -95 -95 -95
c-12 0 -24 4 -35 9c26 -41 70 -70 121 -70c1 0 2 1 3 1c93 2 154 93 160 192c1 18 2 35 2 53c0 32 -2 64 -5 96c-29 -5 -58 -8 -89 -8c-188 0 -333 171 -333 372c0 178 133 306 251 440c-18 63 -35 126 -42 191c-6 51 -7 102 -7 154c0 116 55 226 150 295c5 4 11 4 16 0
c70 -84 132 -246 132 -359c0 -144 -87 -256 -183 -365c20 -69 39 -138 55 -208zM459 -205c69 24 117 96 117 166c0 92 -69 184 -179 193c25 -117 48 -235 62 -359zM71 31c0 -136 131 -251 267 -251c28 0 55 2 82 6c-15 128 -38 247 -64 367c-79 -9 -125 -62 -125 -121
c0 -44 26 -92 82 -124c4 -4 7 -9 7 -14c0 -11 -9 -21 -20 -21c-3 0 -6 1 -9 2c-80 43 -116 114 -116 184c0 88 57 173 158 196c-14 60 -30 119 -46 178c-108 -121 -216 -242 -216 -402zM411 1050c-99 -50 -161 -151 -161 -262c0 -76 15 -137 33 -200c82 97 149 198 149 325
c0 58 -4 84 -21 137z" fill="currentColor"/>
</g>
<g transform="translate(8.9303, 26.4235)">
<path transform="scale(0.0040, -0.0040)" d="M147 479c-28 0 -58 -9 -58 -33c0 -22 36 -25 36 -47c0 -32 -25 -57 -57 -57s-57 25 -57 57c0 63 66 101 136 101c90 0 165 -35 165 -115c0 -44 -3 -83 -41 -101c-8 -4 -13 -12 -13 -20s5 -16 13 -20c41 -19 55 -58 55 -104c0 -91 -77 -140 -175 -140
c-77 0 -151 41 -151 111c0 36 29 65 65 65s65 -29 65 -65c0 -25 -40 -28 -40 -53c0 -26 31 -37 61 -37c50 0 66 61 66 119c0 62 -1 110 -54 110h-82c-9 0 -13 7 -13 14s4 13 13 13h82c52 0 54 47 54 108c0 56 -18 94 -70 94z" fill="currentColor"/>
</g>
<g transform="translate(8.7937, 28.4493)">
<path transform="scale(0.0040, -0.0040)" d="M208 319c21 13 42 27 57 47c11 15 18 32 25 49c4 9 20 7 20 -7v-256h68c9 0 13 -7 13 -14s-4 -13 -13 -13h-68v-16c0 -45 26 -88 68 -88c7 0 10 -5 10 -10s-3 -11 -10 -11c-41 0 -82 13 -123 13s-82 -13 -123 -13c-7 0 -10 6 -10 11s3 10 10 10c42 0 68 43 68 88v16h-173
c-21 0 -29 13 -29 21c0 2 1 5 2 6c81 96 146 208 146 333c0 10 7 18 15 15c22 -7 44 -13 67 -13s45 6 67 13c12 4 21 -8 15 -15l-283 -333h173v147c0 8 2 16 8 20z" fill="currentColor"/>
</g>
<g transform="translate(8.7937, 23.0816)">
<rect x="1.0475" y="-2.6727" width="0.1158" height="2.4974" ry="0.0193" fill="currentColor"/>
</g>
<g transform="translate(8.7937, 23.0816)">
<path transform="scale(0.0036, -0.0036)" d="M222 135c53 0 104 -27 104 -86c0 -71 -56 -120 -103 -148c-36 -22 -76 -36 -118 -36c-53 0 -105 27 -105 86c0 71 57 120 104 148c36 22 76 36 118 36z" fill="currentColor"/>
</g>
<g transform="translate(9.9570, 23.5617)">
<text font-family="serif" font-size="2.2003" text-anchor="start" fill="currentColor">
<tspan> = 160</tspan>
</text>
</g>
<g transform="translate(13.6193, 26.4235)">
<rect x="-0.0508" y="-1.2143" width="0.1015" height="3.5176" ry="0.0267" fill="currentColor"/>
</g>
<g transform="translate(14.5386, 27.9235)">
<path transform="scale(0.0040, -0.0040)" d="M222 135c53 0 104 -27 104 -86c0 -71 -56 -120 -103 -148c-36 -22 -76 -36 -118 -36c-53 0 -105 27 -105 86c0 71 57 120 104 148c36 22 76 36 118 36z" fill="currentColor"/>
</g>
<g transform="translate(15.7937, 26.4235)">
<rect x="-0.0508" y="-1.7857" width="0.1015" height="3.0890" ry="0.0267" fill="currentColor"/>
</g>
<g transform="translate(16.7537, 25.4235)">
<path transform="scale(0.0040, -0.0040)" d="M316 67c0 25 -20 42 -42 42c-4 0 -9 -1 -13 -2c-31 -9 -79 -41 -117 -65s-86 -55 -107 -80c-7 -8 -10 -19 -10 -29c0 -25 20 -42 42 -42c4 0 9 1 13 2c31 9 79 41 117 65s86 55 107 80c7 8 10 19 10 29zM265 135c44 0 78 -21 78 -68c0 -19 -5 -39 -11 -57
c-12 -37 -33 -71 -65 -93c-53 -36 -114 -52 -189 -52c-44 0 -78 21 -78 68c0 19 5 39 11 57c12 37 33 71 65 93c53 36 114 52 189 52z" fill="currentColor"/>
</g>
<g transform="translate(16.8044, 26.4235)">
<rect x="-0.0508" y="-0.7316" width="0.1015" height="3.2316" ry="0.0267" fill="currentColor"/>
</g>
<g transform="translate(33.9616, 26.4235)">
<rect x="-0.0508" y="-1.3033" width="0.1015" height="2.3033" ry="0.0267" fill="currentColor"/>
</g>
<g transform="translate(35.8859, 26.4235)">
<rect x="-0.0508" y="-1.8033" width="0.1015" height="2.8033" ry="0.0267" fill="currentColor"/>
</g>
<g transform="translate(38.5286, 24.9235)">
<path transform="scale(0.0040, -0.0040)" d="M222 135c53 0 104 -27 104 -86c0 -71 -56 -120 -103 -148c-36 -22 -76 -36 -118 -36c-53 0 -105 27 -105 86c0 71 57 120 104 148c36 22 76 36 118 36z" fill="currentColor"/>
</g>
<g transform="translate(38.5794, 26.4235)">
<rect x="-0.0508" y="-1.3033" width="0.1015" height="3.5213" ry="0.0267" fill="currentColor"/>
</g>
<g transform="translate(35.8352, 24.4235)">
<path transform="scale(0.0040, -0.0040)" d="M222 135c53 0 104 -27 104 -86c0 -71 -56 -120 -103 -148c-36 -22 -76 -36 -118 -36c-53 0 -105 27 -105 86c0 71 57 120 104 148c36 22 76 36 118 36z" fill="currentColor"/>
</g>
<g transform="translate(40.2030, 25.9235)">
<path transform="scale(0.0040, -0.0040)" d="M222 135c53 0 104 -27 104 -86c0 -71 -56 -120 -103 -148c-36 -22 -76 -36 -118 -36c-53 0 -105 27 -105 86c0 71 57 120 104 148c36 22 76 36 118 36z" fill="currentColor"/>
</g>
<g transform="translate(40.2537, 26.4235)">
<rect x="-0.0508" y="-0.3033" width="0.1015" height="3.0852" ry="0.0267" fill="currentColor"/>
</g>
<g transform="translate(33.9108, 24.9235)">
<path transform="scale(0.0040, -0.0040)" d="M222 135c53 0 104 -27 104 -86c0 -71 -56 -120 -103 -148c-36 -22 -76 -36 -118 -36c-53 0 -105 27 -105 86c0 71 57 120 104 148c36 22 76 36 118 36z" fill="currentColor"/>
</g>
<g transform="translate(31.9865, 24.4235)">
<path transform="scale(0.0040, -0.0040)" d="M222 135c53 0 104 -27 104 -86c0 -71 -56 -120 -103 -148c-36 -22 -76 -36 -118 -36c-53 0 -105 27 -105 86c0 71 57 120 104 148c36 22 76 36 118 36z" fill="currentColor"/>
</g>
<g transform="translate(32.0372, 26.4235)">
<rect x="-0.0508" y="-1.8033" width="0.1015" height="2.8033" ry="0.0267" fill="currentColor"/>
</g>
<g transform="translate(3.7937, 43.7818)">
<line stroke-linejoin="round" stroke-linecap="round" stroke-width="0.0781" stroke="currentColor" x1="0.0390" y1="0" x2="72.0413" y2="0"/>
</g>
<g transform="translate(3.7937, 42.7818)">
<line stroke-linejoin="round" stroke-linecap="round" stroke-width="0.0781" stroke="currentColor" x1="0.0390" y1="0" x2="72.0413" y2="0"/>
</g>
<g transform="translate(3.7937, 41.7818)">
<line stroke-linejoin="round" stroke-linecap="round" stroke-width="0.0781" stroke="currentColor" x1="0.0390" y1="0" x2="72.0413" y2="0"/>
</g>
<g transform="translate(3.7937, 40.7818)">
<line stroke-linejoin="round" stroke-linecap="round" stroke-width="0.0781" stroke="currentColor" x1="0.0390" y1="0" x2="72.0413" y2="0"/>
</g>
<g transform="translate(3.7937, 39.7818)">
<line stroke-linejoin="round" stroke-linecap="round" stroke-width="0.0781" stroke="currentColor" x1="0.0390" y1="0" x2="72.0413" y2="0"/>
</g>
<g transform="translate(38.4568, 41.7818)">
<rect x="0.0000" y="-2.0000" width="0.1484" height="4.0000" ry="0.0000" fill="currentColor"/>
</g>
<g transform="translate(47.6117, 41.7818)">
<rect x="0.0000" y="-2.0000" width="0.1484" height="4.0000" ry="0.0000" fill="currentColor"/>
</g>
<g transform="translate(27.6500, 41.7818)">
<rect x="0.0000" y="-2.0000" width="0.1484" height="4.0000" ry="0.0000" fill="currentColor"/>
</g>
<g transform="translate(59.0461, 41.7818)">
<rect x="0.0000" y="-2.0000" width="0.1484" height="4.0000" ry="0.0000" fill="currentColor"/>
</g>
<g transform="translate(18.1565, 41.7818)">
<rect x="0.0000" y="-2.0000" width="0.1484" height="4.0000" ry="0.0000" fill="currentColor"/>
</g>
<g transform="translate(67.0527, 41.7818)">
<rect x="0.0000" y="-2.0000" width="0.1484" height="4.0000" ry="0.0000" fill="currentColor"/>
</g>
<g transform="translate(75.4054, 41.7818)">
<rect x="0.0000" y="-2.0000" width="0.4686" height="4.0000" ry="0.0000" fill="currentColor"/>
</g>
<g transform="translate(75.0228, 41.7818)">
<rect x="0.0000" y="-2.0000" width="0.1484" height="4.0000" ry="0.0000" fill="currentColor"/>
</g>
<g transform="translate(52.5466, 41.7818)">
<rect x="-0.0508" y="-1.0000" width="0.1015" height="3.3033" ry="0.0267" fill="currentColor"/>
</g>
<g transform="translate(51.2916, 44.2818)">
<path transform="scale(0.0040, -0.0040)" d="M222 135c53 0 104 -27 104 -86c0 -71 -56 -120 -103 -148c-36 -22 -76 -36 -118 -36c-53 0 -105 27 -105 86c0 71 57 120 104 148c36 22 76 36 118 36z" fill="currentColor"/>
</g>
<g transform="translate(20.2914, 40.5808)">
<polygon stroke-linejoin="round" stroke-linecap="round" stroke-width="0.0533" fill="currentColor" stroke="currentColor" points="2.4774 -0.8114 2.4774 -0.3848 0.0267 0.2133 0.0267 -0.2133"/>
</g>
<g transform="translate(54.5408, 43.2818)">
<path transform="scale(0.0040, -0.0040)" d="M222 135c53 0 104 -27 104 -86c0 -71 -56 -120 -103 -148c-36 -22 -76 -36 -118 -36c-53 0 -105 27 -105 86c0 71 57 120 104 148c36 22 76 36 118 36z" fill="currentColor"/>
</g>
<g transform="translate(55.7959, 41.7818)">
<rect x="-0.0508" y="-1.8036" width="0.1015" height="3.1068" ry="0.0267" fill="currentColor"/>
</g>
<g transform="translate(56.6934, 42.7818)">
<path transform="scale(0.0040, -0.0040)" d="M222 135c53 0 104 -27 104 -86c0 -71 -56 -120 -103 -148c-36 -22 -76 -36 -118 -36c-53 0 -105 27 -105 86c0 71 57 120 104 148c36 22 76 36 118 36z" fill="currentColor"/>
</g>
<g transform="translate(57.9484, 41.7818)">
<rect x="-0.0508" y="-1.9955" width="0.1015" height="2.7987" ry="0.0267" fill="currentColor"/>
</g>
<g transform="translate(41.5148, 41.7818)">
<rect x="-0.0508" y="-0.3033" width="0.1015" height="3.0872" ry="0.0267" fill="currentColor"/>
</g>
<g transform="translate(10.7980, 40.5808)">
<polygon stroke-linejoin="round" stroke-linecap="round" stroke-width="0.0533" fill="currentColor" stroke="currentColor" points="2.4774 -0.8114 2.4774 -0.3848 0.0267 0.2133 0.0267 -0.2133"/>
</g>
<g transform="translate(41.4640, 41.2818)">
<path transform="scale(0.0040, -0.0040)" d="M222 135c53 0 104 -27 104 -86c0 -71 -56 -120 -103 -148c-36 -22 -76 -36 -118 -36c-53 0 -105 27 -105 86c0 71 57 120 104 148c36 22 76 36 118 36z" fill="currentColor"/>
</g>
<g transform="translate(43.5401, 42.2818)">
<path transform="scale(0.0040, -0.0040)" d="M316 67c0 25 -20 42 -42 42c-4 0 -9 -1 -13 -2c-31 -9 -79 -41 -117 -65s-86 -55 -107 -80c-7 -8 -10 -19 -10 -29c0 -25 20 -42 42 -42c4 0 9 1 13 2c31 9 79 41 117 65s86 55 107 80c7 8 10 19 10 29zM265 135c44 0 78 -21 78 -68c0 -19 -5 -39 -11 -57
c-12 -37 -33 -71 -65 -93c-53 -36 -114 -52 -189 -52c-44 0 -78 21 -78 68c0 19 5 39 11 57c12 37 33 71 65 93c53 36 114 52 189 52z" fill="currentColor"/>
</g>
<g transform="translate(44.8614, 41.7818)">
<rect x="-0.0508" y="-3.0000" width="0.1015" height="3.2316" ry="0.0267" fill="currentColor"/>
</g>
<g transform="translate(48.5423, 42.2818)">
<path transform="scale(0.0040, -0.0040)" d="M222 135c53 0 104 -27 104 -86c0 -71 -56 -120 -103 -148c-36 -22 -76 -36 -118 -36c-53 0 -105 27 -105 86c0 71 57 120 104 148c36 22 76 36 118 36z" fill="currentColor"/>
</g>
<g transform="translate(49.7974, 41.7818)">
<rect x="-0.0508" y="-3.0000" width="0.1015" height="3.3033" ry="0.0267" fill="currentColor"/>
</g>
<g transform="translate(55.7451, 39.9827)">
<polygon stroke-linejoin="round" stroke-linecap="round" stroke-width="0.0533" fill="currentColor" stroke="currentColor" points="2.2274 -0.4143 2.2274 0.0124 0.0267 0.2133 0.0267 -0.2133"/>
</g>
<g transform="translate(70.9826, 41.7818)">
<path transform="scale(0.0040, -0.0040)" d="M367 0h-359c-4 0 -8 4 -8 8v140c0 4 4 8 8 8h359c4 0 8 -4 8 -8v-140c0 -4 -4 -8 -8 -8z" fill="currentColor"/>
</g>
<g transform="translate(59.9768, 42.2818)">
<path transform="scale(0.0040, -0.0040)" d="M316 67c0 25 -20 42 -42 42c-4 0 -9 -1 -13 -2c-31 -9 -79 -41 -117 -65s-86 -55 -107 -80c-7 -8 -10 -19 -10 -29c0 -25 20 -42 42 -42c4 0 9 1 13 2c31 9 79 41 117 65s86 55 107 80c7 8 10 19 10 29zM265 135c44 0 78 -21 78 -68c0 -19 -5 -39 -11 -57
c-12 -37 -33 -71 -65 -93c-53 -36 -114 -52 -189 -52c-44 0 -78 21 -78 68c0 19 5 39 11 57c12 37 33 71 65 93c53 36 114 52 189 52z" fill="currentColor"/>
</g>
<g transform="translate(61.2980, 41.7818)">
<rect x="-0.0508" y="-3.0000" width="0.1015" height="3.2316" ry="0.0267" fill="currentColor"/>
</g>
<g transform="translate(32.2492, 42.7818)">
<polygon stroke-linejoin="round" stroke-linecap="round" stroke-width="0.0533" fill="currentColor" stroke="currentColor" points="4.3799 -0.2133 4.3799 0.2133 0.0267 0.2133 0.0267 -0.2133"/>
</g>
<g transform="translate(39.5615, 43.9827)">
<polygon stroke-linejoin="round" stroke-linecap="round" stroke-width="0.0533" fill="currentColor" stroke="currentColor" points="1.9774 0.3848 1.9774 0.8114 0.0267 0.2133 0.0267 -0.2133"/>
</g>
<g transform="translate(63.8890, 42.2818)">
<path transform="scale(0.0040, -0.0040)" d="M222 135c53 0 104 -27 104 -86c0 -71 -56 -120 -103 -148c-36 -22 -76 -36 -118 -36c-53 0 -105 27 -105 86c0 71 57 120 104 148c36 22 76 36 118 36z" fill="currentColor"/>
</g>
<g transform="translate(65.1440, 41.7818)">
<rect x="-0.0508" y="-3.0000" width="0.1015" height="3.3033" ry="0.0267" fill="currentColor"/>
</g>
<g transform="translate(67.9834, 44.2818)">
<path transform="scale(0.0040, -0.0040)" d="M222 135c53 0 104 -27 104 -86c0 -71 -56 -120 -103 -148c-36 -22 -76 -36 -118 -36c-53 0 -105 27 -105 86c0 71 57 120 104 148c36 22 76 36 118 36z" fill="currentColor"/>
</g>
<g transform="translate(69.2384, 41.7818)">
<rect x="-0.0508" y="-1.0000" width="0.1015" height="3.3033" ry="0.0267" fill="currentColor"/>
</g>
<g transform="translate(14.4902, 41.7818)">
<rect x="-0.0508" y="-0.7316" width="0.1015" height="3.2316" ry="0.0267" fill="currentColor"/>
</g>
<g transform="translate(19.0872, 44.2818)">
<path transform="scale(0.0040, -0.0040)" d="M222 135c53 0 104 -27 104 -86c0 -71 -56 -120 -103 -148c-36 -22 -76 -36 -118 -36c-53 0 -105 27 -105 86c0 71 57 120 104 148c36 22 76 36 118 36z" fill="currentColor"/>
</g>
<g transform="translate(20.3422, 41.7818)">
<rect x="-0.0508" y="-1.2131" width="0.1015" height="3.5163" ry="0.0267" fill="currentColor"/>
</g>
<g transform="translate(14.4395, 40.7818)">
<path transform="scale(0.0040, -0.0040)" d="M316 67c0 25 -20 42 -42 42c-4 0 -9 -1 -13 -2c-31 -9 -79 -41 -117 -65s-86 -55 -107 -80c-7 -8 -10 -19 -10 -29c0 -25 20 -42 42 -42c4 0 9 1 13 2c31 9 79 41 117 65s86 55 107 80c7 8 10 19 10 29zM265 135c44 0 78 -21 78 -68c0 -19 -5 -39 -11 -57
c-12 -37 -33 -71 -65 -93c-53 -36 -114 -52 -189 -52c-44 0 -78 21 -78 68c0 19 5 39 11 57c12 37 33 71 65 93c53 36 114 52 189 52z" fill="currentColor"/>
</g>
<g transform="translate(21.4897, 43.2818)">
<path transform="scale(0.0040, -0.0040)" d="M222 135c53 0 104 -27 104 -86c0 -71 -56 -120 -103 -148c-36 -22 -76 -36 -118 -36c-53 0 -105 27 -105 86c0 71 57 120 104 148c36 22 76 36 118 36z" fill="currentColor"/>
</g>
<g transform="translate(22.7447, 41.7818)">
<rect x="-0.0508" y="-1.7869" width="0.1015" height="3.0902" ry="0.0267" fill="currentColor"/>
</g>
<g transform="translate(23.9329, 40.7818)">
<path transform="scale(0.0040, -0.0040)" d="M316 67c0 25 -20 42 -42 42c-4 0 -9 -1 -13 -2c-31 -9 -79 -41 -117 -65s-86 -55 -107 -80c-7 -8 -10 -19 -10 -29c0 -25 20 -42 42 -42c4 0 9 1 13 2c31 9 79 41 117 65s86 55 107 80c7 8 10 19 10 29zM265 135c44 0 78 -21 78 -68c0 -19 -5 -39 -11 -57
c-12 -37 -33 -71 -65 -93c-53 -36 -114 -52 -189 -52c-44 0 -78 21 -78 68c0 19 5 39 11 57c12 37 33 71 65 93c53 36 114 52 189 52z" fill="currentColor"/>
</g>
<g transform="translate(23.9837, 41.7818)">
<rect x="-0.0508" y="-0.7316" width="0.1015" height="3.2316" ry="0.0267" fill="currentColor"/>
</g>
<g transform="translate(4.5937, 42.7818)">
<path transform="scale(0.0040, -0.0040)" d="M374 260c5 0 10 1 15 1c154 0 254 -127 254 -259c0 -76 -33 -153 -107 -208c-22 -17 -47 -29 -73 -37c3 -36 5 -72 5 -108c0 -19 0 -37 -1 -56c-7 -120 -88 -226 -206 -226c-108 0 -195 87 -195 195c0 58 53 104 112 104c54 0 95 -48 95 -104c0 -52 -43 -95 -95 -95
c-12 0 -24 4 -35 9c26 -41 70 -70 121 -70c1 0 2 1 3 1c93 2 154 93 160 192c1 18 2 35 2 53c0 32 -2 64 -5 96c-29 -5 -58 -8 -89 -8c-188 0 -333 171 -333 372c0 178 133 306 251 440c-18 63 -35 126 -42 191c-6 51 -7 102 -7 154c0 116 55 226 150 295c5 4 11 4 16 0
c70 -84 132 -246 132 -359c0 -144 -87 -256 -183 -365c20 -69 39 -138 55 -208zM459 -205c69 24 117 96 117 166c0 92 -69 184 -179 193c25 -117 48 -235 62 -359zM71 31c0 -136 131 -251 267 -251c28 0 55 2 82 6c-15 128 -38 247 -64 367c-79 -9 -125 -62 -125 -121
c0 -44 26 -92 82 -124c4 -4 7 -9 7 -14c0 -11 -9 -21 -20 -21c-3 0 -6 1 -9 2c-80 43 -116 114 -116 184c0 88 57 173 158 196c-14 60 -30 119 -46 178c-108 -121 -216 -242 -216 -402zM411 1050c-99 -50 -161 -151 -161 -262c0 -76 15 -137 33 -200c82 97 149 198 149 325
c0 58 -4 84 -21 137z" fill="currentColor"/>
</g>
<g transform="translate(2.6784, 38.7427)">
<text font-family="serif" font-size="1.7461" text-anchor="start" fill="currentColor">
<tspan>9</tspan>
</text>
</g>
<g transform="translate(9.5937, 44.2818)">
<path transform="scale(0.0040, -0.0040)" d="M222 135c53 0 104 -27 104 -86c0 -71 -56 -120 -103 -148c-36 -22 -76 -36 -118 -36c-53 0 -105 27 -105 86c0 71 57 120 104 148c36 22 76 36 118 36z" fill="currentColor"/>
</g>
<g transform="translate(10.8487, 41.7818)">
<rect x="-0.0508" y="-1.2131" width="0.1015" height="3.5163" ry="0.0267" fill="currentColor"/>
</g>
<g transform="translate(11.9962, 43.2818)">
<path transform="scale(0.0040, -0.0040)" d="M222 135c53 0 104 -27 104 -86c0 -71 -56 -120 -103 -148c-36 -22 -76 -36 -118 -36c-53 0 -105 27 -105 86c0 71 57 120 104 148c36 22 76 36 118 36z" fill="currentColor"/>
</g>
<g transform="translate(13.2513, 41.7818)">
<rect x="-0.0508" y="-1.7869" width="0.1015" height="3.0902" ry="0.0267" fill="currentColor"/>
</g>
<g transform="translate(32.3000, 41.7818)">
<rect x="-0.0508" y="-1.8033" width="0.1015" height="2.8033" ry="0.0267" fill="currentColor"/>
</g>
<g transform="translate(34.4017, 40.2818)">
<path transform="scale(0.0040, -0.0040)" d="M222 135c53 0 104 -27 104 -86c0 -71 -56 -120 -103 -148c-36 -22 -76 -36 -118 -36c-53 0 -105 27 -105 86c0 71 57 120 104 148c36 22 76 36 118 36z" fill="currentColor"/>
</g>
<g transform="translate(34.4525, 41.7818)">
<rect x="-0.0508" y="-1.3033" width="0.1015" height="2.3033" ry="0.0267" fill="currentColor"/>
</g>
<g transform="translate(32.2492, 39.7818)">
<path transform="scale(0.0040, -0.0040)" d="M222 135c53 0 104 -27 104 -86c0 -71 -56 -120 -103 -148c-36 -22 -76 -36 -118 -36c-53 0 -105 27 -105 86c0 71 57 120 104 148c36 22 76 36 118 36z" fill="currentColor"/>
</g>
<g transform="translate(36.5543, 39.7818)">
<path transform="scale(0.0040, -0.0040)" d="M222 135c53 0 104 -27 104 -86c0 -71 -56 -120 -103 -148c-36 -22 -76 -36 -118 -36c-53 0 -105 27 -105 86c0 71 57 120 104 148c36 22 76 36 118 36z" fill="currentColor"/>
</g>
<g transform="translate(36.6050, 41.7818)">
<rect x="-0.0508" y="-1.8033" width="0.1015" height="2.8033" ry="0.0267" fill="currentColor"/>
</g>
<g transform="translate(39.5615, 40.2818)">
<path transform="scale(0.0040, -0.0040)" d="M222 135c53 0 104 -27 104 -86c0 -71 -56 -120 -103 -148c-36 -22 -76 -36 -118 -36c-53 0 -105 27 -105 86c0 71 57 120 104 148c36 22 76 36 118 36z" fill="currentColor"/>
</g>
<g transform="translate(39.6122, 41.7818)">
<rect x="-0.0508" y="-1.3033" width="0.1015" height="3.5194" ry="0.0267" fill="currentColor"/>
</g>
<g transform="translate(28.7547, 40.2818)">
<path transform="scale(0.0040, -0.0040)" d="M222 135c53 0 104 -27 104 -86c0 -71 -56 -120 -103 -148c-36 -22 -76 -36 -118 -36c-53 0 -105 27 -105 86c0 71 57 120 104 148c36 22 76 36 118 36z" fill="currentColor"/>
</g>
<g transform="translate(30.5172, 40.2818)">
<path transform="scale(0.0040, -0.0040)" d="M0 0c0 32 25 57 57 57s57 -25 57 -57s-25 -57 -57 -57s-57 25 -57 57z" fill="currentColor"/>
</g>
<g transform="translate(28.8054, 41.7818)">
<rect x="-0.0508" y="-1.3033" width="0.1015" height="3.3033" ry="0.0267" fill="currentColor"/>
</g>
</svg>
