<svg xmlns="http://www.w3.org/2000/svg" xmlns:xlink="http://www.w3.org/1999/xlink" version="1.2" width="210.00mm" height="297.00mm" viewBox="0 0 79.6677 112.6729">
<style type="text/css">
<![CDATA[
tspan { white-space: pre; }
]]>
</style>
<!-- Page: 1/1 -->
<g transform="translate(25.0726, 5.5600)">
<text font-family="serif" font-weight="bold" font-size="3.4925" text-anchor="start" fill="currentColor">
<tspan>Zelda’s Lullaby</tspan>
</text>
</g>
<g transform="translate(63.7873, 9.0600)">
<text font-family="serif" font-size="2.2003" text-anchor="start" fill="currentColor">
<tspan>Kōji Kondo</tspan>
</text>
</g>
<g transform="translate(3.7937, 11.7680)">
<text font-family="serif" font-size="2.2003" text-anchor="start" fill="currentColor">
<tspan>The Legend of Zelda: Ocarina of Time</tspan>
</text>
</g>
<g transform="translate(3.7937, 25.2833)">
<line stroke-linejoin="round" stroke-linecap="round" stroke-width="0.0781" stroke="currentColor" x1="0.0390" y1="0" x2="72.0413" y2="0"/>
</g>
<g transform="translate(3.7937, 24.2833)">
<line stroke-linejoin="round" stroke-linecap="round" stroke-width="0.0781" stroke="currentColor" x1="0.0390" y1="0" x2="72.0413" y2="0"/>
</g>
<g transform="translate(3.7937, 23.2833)">
<line stroke-linejoin="round" stroke-linecap="round" stroke-width="0.0781" stroke="currentColor" x1="0.0390" y1="0" x2="72.0413" y2="0"/>
</g>
<g transform="translate(3.7937, 22.2833)">
<line stroke-linejoin="round" stroke-linecap="round" stroke-width="0.0781" stroke="currentColor" x1="0.0390" y1="0" x2="72.0413" y2="0"/>
</g>
<g transform="translate(3.7937, 21.2833)">
<line stroke-linejoin="round" stroke-linecap="round" stroke-width="0.0781" stroke="currentColor" x1="0.0390" y1="0" x2="72.0413" y2="0"/>
</g>
<g transform="translate(30.9525, 23.2833)">
<rect x="0.0000" y="-2.0000" width="0.1484" height="4.0000" ry="0.0000" fill="currentColor"/>
</g>
<g transform="translate(20.6281, 23.2833)">
<rect x="0.0000" y="-2.0000" width="0.1484" height="4.0000" ry="0.0000" fill="currentColor"/>
</g>
<g transform="translate(47.3223, 23.2833)">
<rect x="0.0000" y="-2.0000" width="0.1484" height="4.0000" ry="0.0000" fill="currentColor"/>
</g>
<g transform="translate(65.3655, 23.2833)">
<rect x="0.0000" y="-2.0000" width="0.1484" height="4.0000" ry="0.0000" fill="currentColor"/>
</g>
<g transform="translate(75.7256, 23.2833)">
<rect x="0.0000" y="-2.0000" width="0.1484" height="4.0000" ry="0.0000" fill="currentColor"/>
</g>
<g transform="translate(56.5768, 23.2833)">
<rect x="0.0000" y="-2.0000" width="0.1484" height="4.0000" ry="0.0000" fill="currentColor"/>
</g>
<g transform="translate(40.2070, 23.2833)">
<rect x="0.0000" y="-2.0000" width="0.1484" height="4.0000" ry="0.0000" fill="currentColor"/>
</g>
<g transform="translate(3.7937, 26.2833)">
<rect x="21.9521" y="-0.0890" width="1.9587" height="0.1781" ry="0.0890" fill="currentColor"/>
</g>
<g transform="translate(53.0165, 24.2833)">
<path transform="scale(0.0040, -0.0040)" d="M222 135c53 0 104 -27 104 -86c0 -71 -56 -120 -103 -148c-36 -22 -76 -36 -118 -36c-53 0 -105 27 -105 86c0 71 57 120 104 148c36 22 76 36 118 36z" fill="currentColor"/>
</g>
<g transform="translate(54.2716, 23.2833)">
<rect x="-0.0508" y="-2.5000" width="0.1015" height="3.3033" ry="0.0267" fill="currentColor"/>
</g>
<g transform="translate(57.7165, 22.2833)">
<path transform="scale(0.0040, -0.0040)" d="M316 67c0 25 -20 42 -42 42c-4 0 -9 -1 -13 -2c-31 -9 -79 -41 -117 -65s-86 -55 -107 -80c-7 -8 -10 -19 -10 -29c0 -25 20 -42 42 -42c4 0 9 1 13 2c31 9 79 41 117 65s86 55 107 80c7 8 10 19 10 29zM265 135c44 0 78 -21 78 -68c0 -19 -5 -39 -11 -57
c-12 -37 -33 -71 -65 -93c-53 -36 -114 -52 -189 -52c-44 0 -78 21 -78 68c0 19 5 39 11 57c12 37 33 71 65 93c53 36 114 52 189 52z" fill="currentColor"/>
</g>
<g transform="translate(57.7673, 23.2833)">
<rect x="-0.0508" y="-0.7316" width="0.1015" height="3.2316" ry="0.0267" fill="currentColor"/>
</g>
<g transform="translate(27.2766, 23.2833)">
<polygon stroke-linejoin="round" stroke-linecap="round" stroke-width="0.0533" fill="currentColor" stroke="currentColor" points="2.4078 -0.4143 2.4078 0.0124 0.0267 0.2133 0.0267 -0.2133"/>
</g>
<g transform="translate(48.3131, 25.2833)">
<path transform="scale(0.0040, -0.0040)" d="M316 67c0 25 -20 42 -42 42c-4 0 -9 -1 -13 -2c-31 -9 -79 -41 -117 -65s-86 -55 -107 -80c-7 -8 -10 -19 -10 -29c0 -25 20 -42 42 -42c4 0 9 1 13 2c31 9 79 41 117 65s86 55 107 80c7 8 10 19 10 29zM265 135c44 0 78 -21 78 -68c0 -19 -5 -39 -11 -57
c-12 -37 -33 -71 -65 -93c-53 -36 -114 -52 -189 -52c-44 0 -78 21 -78 68c0 19 5 39 11 57c12 37 33 71 65 93c53 36 114 52 189 52z" fill="currentColor"/>
</g>
<g transform="translate(49.6343, 23.2833)">
<rect x="-0.0508" y="-1.5000" width="0.1015" height="3.2316" ry="0.0267" fill="currentColor"/>
</g>
<g transform="translate(72.0648, 23.2833)">
<rect x="-0.0508" y="-1.1968" width="0.1015" height="2.5000" ry="0.0267" fill="currentColor"/>
</g>
<g transform="translate(73.1427, 25.2833)">
<path transform="scale(0.0040, -0.0040)" d="M222 135c53 0 104 -27 104 -86c0 -71 -56 -120 -103 -148c-36 -22 -76 -36 -118 -36c-53 0 -105 27 -105 86c0 71 57 120 104 148c36 22 76 36 118 36z" fill="currentColor"/>
</g>
<g transform="translate(74.3977, 23.2833)">
<rect x="-0.0508" y="-1.0042" width="0.1015" height="2.8075" ry="0.0267" fill="currentColor"/>
</g>
<g transform="translate(70.8097, 24.7833)">
<path transform="scale(0.0040, -0.0040)" d="M222 135c53 0 104 -27 104 -86c0 -71 -56 -120 -103 -148c-36 -22 -76 -36 -118 -36c-53 0 -105 27 -105 86c0 71 57 120 104 148c36 22 76 36 118 36z" fill="currentColor"/>
</g>
<g transform="translate(72.0140, 22.0824)">
<polygon stroke-linejoin="round" stroke-linecap="round" stroke-width="0.0533" fill="currentColor" stroke="currentColor" points="2.4078 -0.0124 2.4078 0.4143 0.0267 0.2133 0.0267 -0.2133"/>
</g>
<g transform="translate(62.1700, 22.7833)">
<path transform="scale(0.0040, -0.0040)" d="M222 135c53 0 104 -27 104 -86c0 -71 -56 -120 -103 -148c-36 -22 -76 -36 -118 -36c-53 0 -105 27 -105 86c0 71 57 120 104 148c36 22 76 36 118 36z" fill="currentColor"/>
</g>
<g transform="translate(62.2207, 23.2833)">
<rect x="-0.0508" y="-0.3033" width="0.1015" height="3.3033" ry="0.0267" fill="currentColor"/>
</g>
<g transform="translate(66.3563, 24.2833)">
<path transform="scale(0.0040, -0.0040)" d="M316 67c0 25 -20 42 -42 42c-4 0 -9 -1 -13 -2c-31 -9 -79 -41 -117 -65s-86 -55 -107 -80c-7 -8 -10 -19 -10 -29c0 -25 20 -42 42 -42c4 0 9 1 13 2c31 9 79 41 117 65s86 55 107 80c7 8 10 19 10 29zM265 135c44 0 78 -21 78 -68c0 -19 -5 -39 -11 -57
c-12 -37 -33 -71 -65 -93c-53 -36 -114 -52 -189 -52c-44 0 -78 21 -78 68c0 19 5 39 11 57c12 37 33 71 65 93c53 36 114 52 189 52z" fill="currentColor"/>
</g>
<g transform="translate(67.6775, 23.2833)">
<rect x="-0.0508" y="-2.5000" width="0.1015" height="3.2316" ry="0.0267" fill="currentColor"/>
</g>
<g transform="translate(21.6188, 25.7833)">
<path transform="scale(0.0040, -0.0040)" d="M316 67c0 25 -20 42 -42 42c-4 0 -9 -1 -13 -2c-31 -9 -79 -41 -117 -65s-86 -55 -107 -80c-7 -8 -10 -19 -10 -29c0 -25 20 -42 42 -42c4 0 9 1 13 2c31 9 79 41 117 65s86 55 107 80c7 8 10 19 10 29zM265 135c44 0 78 -21 78 -68c0 -19 -5 -39 -11 -57
c-12 -37 -33 -71 -65 -93c-53 -36 -114 -52 -189 -52c-44 0 -78 21 -78 68c0 19 5 39 11 57c12 37 33 71 65 93c53 36 114 52 189 52z" fill="currentColor"/>
</g>
<g transform="translate(22.9401, 23.2833)">
<rect x="-0.0508" y="-1.0000" width="0.1015" height="3.2316" ry="0.0267" fill="currentColor"/>
</g>
<g transform="translate(26.0723, 26.2833)">
<path transform="scale(0.0040, -0.0040)" d="M222 135c53 0 104 -27 104 -86c0 -71 -56 -120 -103 -148c-36 -22 -76 -36 -118 -36c-53 0 -105 27 -105 86c0 71 57 120 104 148c36 22 76 36 118 36z" fill="currentColor"/>
</g>
<g transform="translate(12.3643, 25.2833)">
<path transform="scale(0.0040, -0.0040)" d="M316 67c0 25 -20 42 -42 42c-4 0 -9 -1 -13 -2c-31 -9 -79 -41 -117 -65s-86 -55 -107 -80c-7 -8 -10 -19 -10 -29c0 -25 20 -42 42 -42c4 0 9 1 13 2c31 9 79 41 117 65s86 55 107 80c7 8 10 19 10 29zM265 135c44 0 78 -21 78 -68c0 -19 -5 -39 -11 -57
c-12 -37 -33 -71 -65 -93c-53 -36 -114 -52 -189 -52c-44 0 -78 21 -78 68c0 19 5 39 11 57c12 37 33 71 65 93c53 36 114 52 189 52z" fill="currentColor"/>
</g>
<g transform="translate(4.5937, 24.2833)">
<path transform="scale(0.0040, -0.0040)" d="M374 260c5 0 10 1 15 1c154 0 254 -127 254 -259c0 -76 -33 -153 -107 -208c-22 -17 -47 -29 -73 -37c3 -36 5 -72 5 -108c0 -19 0 -37 -1 -56c-7 -120 -88 -226 -206 -226c-108 0 -195 87 -195 195c0 58 53 104 112 104c54 0 95 -48 95 -104c0 -52 -43 -95 -95 -95
c-12 0 -24 4 -35 9c26 -41 70 -70 121 -70c1 0 2 1 3 1c93 2 154 93 160 192c1 18 2 35 2 53c0 32 -2 64 -5 96c-29 -5 -58 -8 -89 -8c-188 0 -333 171 -333 372c0 178 133 306 251 440c-18 63 -35 126 -42 191c-6 51 -7 102 -7 154c0 116 55 226 150 295c5 4 11 4 16 0
c70 -84 132 -246 132 -359c0 -144 -87 -256 -183 -365c20 -69 39 -138 55 -208zM459 -205c69 24 117 96 117 166c0 92 -69 184 -179 193c25 -117 48 -235 62 -359zM71 31c0 -136 131 -251 267 -251c28 0 55 2 82 6c-15 128 -38 247 -64 367c-79 -9 -125 -62 -125 -121
c0 -44 26 -92 82 -124c4 -4 7 -9 7 -14c0 -11 -9 -21 -20 -21c-3 0 -6 1 -9 2c-80 43 -116 114 -116 184c0 88 57 173 158 196c-14 60 -30 119 -46 178c-108 -121 -216 -242 -216 -402zM411 1050c-99 -50 -161 -151 -161 -262c0 -76 15 -137 33 -200c82 97 149 198 149 325
c0 58 -4 84 -21 137z" fill="currentColor"/>
</g>
<g transform="translate(8.9303, 23.2833)">
<path transform="scale(0.0040, -0.0040)" d="M147 479c-28 0 -58 -9 -58 -33c0 -22 36 -25 36 -47c0 -32 -25 -57 -57 -57s-57 25 -57 57c0 63 66 101 136 101c90 0 165 -35 165 -115c0 -44 -3 -83 -41 -101c-8 -4 -13 -12 -13 -20s5 -16 13 -20c41 -19 55 -58 55 -104c0 -91 -77 -140 -175 -140
c-77 0 -151 41 -151 111c0 36 29 65 65 65s65 -29 65 -65c0 -25 -40 -28 -40 -53c0 -26 31 -37 61 -37c50 0 66 61 66 119c0 62 -1 110 -54 110h-82c-9 0 -13 7 -13 14s4 13 13 13h82c52 0 54 47 54 108c0 56 -18 94 -70 94z" fill="currentColor"/>
</g>
<g transform="translate(8.7937, 25.3092)">
<path transform="scale(0.0040, -0.0040)" d="M208 319c21 13 42 27 57 47c11 15 18 32 25 49c4 9 20 7 20 -7v-256h68c9 0 13 -7 13 -14s-4 -13 -13 -13h-68v-16c0 -45 26 -88 68 -88c7 0 10 -5 10 -10s-3 -11 -10 -11c-41 0 -82 13 -123 13s-82 -13 -123 -13c-7 0 -10 6 -10 11s3 10 10 10c42 0 68 43 68 88v16h-173
c-21 0 -29 13 -29 21c0 2 1 5 2 6c81 96 146 208 146 333c0 10 7 18 15 15c22 -7 44 -13 67 -13s45 6 67 13c12 4 21 -8 15 -15l-283 -333h173v147c0 8 2 16 8 20z" fill="currentColor"/>
</g>
<g transform="translate(8.7937, 19.9414)">
<rect x="1.0475" y="-2.6727" width="0.1158" height="2.4974" ry="0.0193" fill="currentColor"/>
</g>
<g transform="translate(8.7937, 19.9414)">
<path transform="scale(0.0036, -0.0036)" d="M222 135c53 0 104 -27 104 -86c0 -71 -56 -120 -103 -148c-36 -22 -76 -36 -118 -36c-53 0 -105 27 -105 86c0 71 57 120 104 148c36 22 76 36 118 36z" fill="currentColor"/>
</g>
<g transform="translate(9.9570, 20.4215)">
<text font-family="serif" font-size="2.2003" text-anchor="start" fill="currentColor">
<tspan> = 104</tspan>
</text>
</g>
<g transform="translate(13.6856, 23.2833)">
<rect x="-0.0508" y="-1.5000" width="0.1015" height="3.2316" ry="0.0267" fill="currentColor"/>
</g>
<g transform="translate(27.3273, 23.2833)">
<rect x="-0.0508" y="-0.0042" width="0.1015" height="2.8075" ry="0.0267" fill="currentColor"/>
</g>
<g transform="translate(17.0677, 24.2833)">
<path transform="scale(0.0040, -0.0040)" d="M222 135c53 0 104 -27 104 -86c0 -71 -56 -120 -103 -148c-36 -22 -76 -36 -118 -36c-53 0 -105 27 -105 86c0 71 57 120 104 148c36 22 76 36 118 36z" fill="currentColor"/>
</g>
<g transform="translate(18.3228, 23.2833)">
<rect x="-0.0508" y="-2.5000" width="0.1015" height="3.3033" ry="0.0267" fill="currentColor"/>
</g>
<g transform="translate(36.6467, 24.2833)">
<path transform="scale(0.0040, -0.0040)" d="M222 135c53 0 104 -27 104 -86c0 -71 -56 -120 -103 -148c-36 -22 -76 -36 -118 -36c-53 0 -105 27 -105 86c0 71 57 120 104 148c36 22 76 36 118 36z" fill="currentColor"/>
</g>
<g transform="translate(37.9017, 23.2833)">
<rect x="-0.0508" y="-2.5000" width="0.1015" height="3.3033" ry="0.0267" fill="currentColor"/>
</g>
<g transform="translate(42.0537, 25.7833)">
<path transform="scale(0.0040, -0.0040)" d="M316 67c0 25 -20 42 -42 42c-4 0 -9 -1 -13 -2c-31 -9 -79 -41 -117 -65s-86 -55 -107 -80c-7 -8 -10 -19 -10 -29c0 -25 20 -42 42 -42c4 0 9 1 13 2c31 9 79 41 117 65s86 55 107 80c7 8 10 19 10 29zM265 135c44 0 78 -21 78 -68c0 -19 -5 -39 -11 -57
c-12 -37 -33 -71 -65 -93c-53 -36 -114 -52 -189 -52c-44 0 -78 21 -78 68c0 19 5 39 11 57c12 37 33 71 65 93c53 36 114 52 189 52z" fill="currentColor"/>
</g>
<g transform="translate(43.8825, 25.7833)">
<path transform="scale(0.0040, -0.0040)" d="M0 0c0 32 25 57 57 57s57 -25 57 -57s-25 -57 -57 -57s-57 25 -57 57z" fill="currentColor"/>
</g>
<g transform="translate(43.3750, 23.2833)">
<rect x="-0.0508" y="-1.0000" width="0.1015" height="3.2316" ry="0.0267" fill="currentColor"/>
</g>
<g transform="translate(28.4052, 25.7833)">
<path transform="scale(0.0040, -0.0040)" d="M222 135c53 0 104 -27 104 -86c0 -71 -56 -120 -103 -148c-36 -22 -76 -36 -118 -36c-53 0 -105 27 -105 86c0 71 57 120 104 148c36 22 76 36 118 36z" fill="currentColor"/>
</g>
<g transform="translate(29.6603, 23.2833)">
<rect x="-0.0508" y="-0.1968" width="0.1015" height="2.5000" ry="0.0267" fill="currentColor"/>
</g>
<g transform="translate(31.9432, 25.2833)">
<path transform="scale(0.0040, -0.0040)" d="M316 67c0 25 -20 42 -42 42c-4 0 -9 -1 -13 -2c-31 -9 -79 -41 -117 -65s-86 -55 -107 -80c-7 -8 -10 -19 -10 -29c0 -25 20 -42 42 -42c4 0 9 1 13 2c31 9 79 41 117 65s86 55 107 80c7 8 10 19 10 29zM265 135c44 0 78 -21 78 -68c0 -19 -5 -39 -11 -57
c-12 -37 -33 -71 -65 -93c-53 -36 -114 -52 -189 -52c-44 0 -78 21 -78 68c0 19 5 39 11 57c12 37 33 71 65 93c53 36 114 52 189 52z" fill="currentColor"/>
</g>
<g transform="translate(33.2645, 23.2833)">
<rect x="-0.0508" y="-1.5000" width="0.1015" height="3.2316" ry="0.0267" fill="currentColor"/>
</g>
<g transform="translate(3.7937, 40.6416)">
<line stroke-linejoin="round" stroke-linecap="round" stroke-width="0.0781" stroke="currentColor" x1="0.0390" y1="0" x2="72.0413" y2="0"/>
</g>
<g transform="translate(3.7937, 39.6416)">
<line stroke-linejoin="round" stroke-linecap="round" stroke-width="0.0781" stroke="currentColor" x1="0.0390" y1="0" x2="72.0413" y2="0"/>
</g>
<g transform="translate(3.7937, 38.6416)">
<line stroke-linejoin="round" stroke-linecap="round" stroke-width="0.0781" stroke="currentColor" x1="0.0390" y1="0" x2="72.0413" y2="0"/>
</g>
<g transform="translate(3.7937, 37.6416)">
<line stroke-linejoin="round" stroke-linecap="round" stroke-width="0.0781" stroke="currentColor" x1="0.0390" y1="0" x2="72.0413" y2="0"/>
</g>
<g transform="translate(3.7937, 36.6416)">
<line stroke-linejoin="round" stroke-linecap="round" stroke-width="0.0781" stroke="currentColor" x1="0.0390" y1="0" x2="72.0413" y2="0"/>
</g>
<g transform="translate(14.8420, 38.6416)">
<rect x="0.0000" y="-2.0000" width="0.1484" height="4.0000" ry="0.0000" fill="currentColor"/>
</g>
<g transform="translate(68.6563, 38.6416)">
<rect x="0.0000" y="-2.0000" width="0.1484" height="4.0000" ry="0.0000" fill="currentColor"/>
</g>
<g transform="translate(50.6736, 38.6416)">
<rect x="0.0000" y="-2.0000" width="0.1484" height="4.0000" ry="0.0000" fill="currentColor"/>
</g>
<g transform="translate(43.5852, 38.6416)">
<rect x="0.0000" y="-2.0000" width="0.1484" height="4.0000" ry="0.0000" fill="currentColor"/>
</g>
<g transform="translate(34.3607, 38.6416)">
<rect x="0.0000" y="-2.0000" width="0.1484" height="4.0000" ry="0.0000" fill="currentColor"/>
</g>
<g transform="translate(75.7256, 38.6416)">
<rect x="0.0000" y="-2.0000" width="0.1484" height="4.0000" ry="0.0000" fill="currentColor"/>
</g>
<g transform="translate(59.8980, 38.6416)">
<rect x="0.0000" y="-2.0000" width="0.1484" height="4.0000" ry="0.0000" fill="currentColor"/>
</g>
<g transform="translate(3.7937, 41.6416)">
<rect x="25.3717" y="-0.0890" width="1.9587" height="0.1781" ry="0.0890" fill="currentColor"/>
</g>
<g transform="translate(24.0665, 38.6416)">
<rect x="0.0000" y="-2.0000" width="0.1484" height="4.0000" ry="0.0000" fill="currentColor"/>
</g>
<g transform="translate(52.9838, 38.6416)">
<rect x="-0.0508" y="-1.5000" width="0.1015" height="3.2316" ry="0.0267" fill="currentColor"/>
</g>
<g transform="translate(61.0356, 37.6416)">
<path transform="scale(0.0040, -0.0040)" d="M316 67c0 25 -20 42 -42 42c-4 0 -9 -1 -13 -2c-31 -9 -79 -41 -117 -65s-86 -55 -107 -80c-7 -8 -10 -19 -10 -29c0 -25 20 -42 42 -42c4 0 9 1 13 2c31 9 79 41 117 65s86 55 107 80c7 8 10 19 10 29zM265 135c44 0 78 -21 78 -68c0 -19 -5 -39 -11 -57
c-12 -37 -33 -71 -65 -93c-53 -36 -114 -52 -189 -52c-44 0 -78 21 -78 68c0 19 5 39 11 57c12 37 33 71 65 93c53 36 114 52 189 52z" fill="currentColor"/>
</g>
<g transform="translate(40.0361, 39.6416)">
<path transform="scale(0.0040, -0.0040)" d="M222 135c53 0 104 -27 104 -86c0 -71 -56 -120 -103 -148c-36 -22 -76 -36 -118 -36c-53 0 -105 27 -105 86c0 71 57 120 104 148c36 22 76 36 118 36z" fill="currentColor"/>
</g>
<g transform="translate(56.3490, 39.6416)">
<path transform="scale(0.0040, -0.0040)" d="M222 135c53 0 104 -27 104 -86c0 -71 -56 -120 -103 -148c-36 -22 -76 -36 -118 -36c-53 0 -105 27 -105 86c0 71 57 120 104 148c36 22 76 36 118 36z" fill="currentColor"/>
</g>
<g transform="translate(57.6040, 38.6416)">
<rect x="-0.0508" y="-2.5000" width="0.1015" height="3.3033" ry="0.0267" fill="currentColor"/>
</g>
<g transform="translate(30.6961, 38.6416)">
<polygon stroke-linejoin="round" stroke-linecap="round" stroke-width="0.0533" fill="currentColor" stroke="currentColor" points="2.4022 -0.4143 2.4022 0.0124 0.0267 0.2133 0.0267 -0.2133"/>
</g>
<g transform="translate(41.2912, 38.6416)">
<rect x="-0.0508" y="-2.5000" width="0.1015" height="3.3033" ry="0.0267" fill="currentColor"/>
</g>
<g transform="translate(45.4253, 41.1416)">
<path transform="scale(0.0040, -0.0040)" d="M316 67c0 25 -20 42 -42 42c-4 0 -9 -1 -13 -2c-31 -9 -79 -41 -117 -65s-86 -55 -107 -80c-7 -8 -10 -19 -10 -29c0 -25 20 -42 42 -42c4 0 9 1 13 2c31 9 79 41 117 65s86 55 107 80c7 8 10 19 10 29zM265 135c44 0 78 -21 78 -68c0 -19 -5 -39 -11 -57
c-12 -37 -33 -71 -65 -93c-53 -36 -114 -52 -189 -52c-44 0 -78 21 -78 68c0 19 5 39 11 57c12 37 33 71 65 93c53 36 114 52 189 52z" fill="currentColor"/>
</g>
<g transform="translate(47.2541, 41.1416)">
<path transform="scale(0.0040, -0.0040)" d="M0 0c0 32 25 57 57 57s57 -25 57 -57s-25 -57 -57 -57s-57 25 -57 57z" fill="currentColor"/>
</g>
<g transform="translate(46.7465, 38.6416)">
<rect x="-0.0508" y="-1.0000" width="0.1015" height="3.2316" ry="0.0267" fill="currentColor"/>
</g>
<g transform="translate(51.6625, 40.6416)">
<path transform="scale(0.0040, -0.0040)" d="M316 67c0 25 -20 42 -42 42c-4 0 -9 -1 -13 -2c-31 -9 -79 -41 -117 -65s-86 -55 -107 -80c-7 -8 -10 -19 -10 -29c0 -25 20 -42 42 -42c4 0 9 1 13 2c31 9 79 41 117 65s86 55 107 80c7 8 10 19 10 29zM265 135c44 0 78 -21 78 -68c0 -19 -5 -39 -11 -57
c-12 -37 -33 -71 -65 -93c-53 -36 -114 -52 -189 -52c-44 0 -78 21 -78 68c0 19 5 39 11 57c12 37 33 71 65 93c53 36 114 52 189 52z" fill="currentColor"/>
</g>
<g transform="translate(61.0863, 38.6416)">
<rect x="-0.0508" y="-0.7316" width="0.1015" height="3.2316" ry="0.0267" fill="currentColor"/>
</g>
<g transform="translate(65.4721, 38.1416)">
<path transform="scale(0.0040, -0.0040)" d="M222 135c53 0 104 -27 104 -86c0 -71 -56 -120 -103 -148c-36 -22 -76 -36 -118 -36c-53 0 -105 27 -105 86c0 71 57 120 104 148c36 22 76 36 118 36z" fill="currentColor"/>
</g>
<g transform="translate(65.5228, 38.6416)">
<rect x="-0.0508" y="-0.3033" width="0.1015" height="3.3033" ry="0.0267" fill="currentColor"/>
</g>
<g transform="translate(70.4965, 39.6416)">
<path transform="scale(0.0040, -0.0040)" d="M316 67c0 25 -20 42 -42 42c-4 0 -9 -1 -13 -2c-31 -9 -79 -41 -117 -65s-86 -55 -107 -80c-7 -8 -10 -19 -10 -29c0 -25 20 -42 42 -42c4 0 9 1 13 2c31 9 79 41 117 65s86 55 107 80c7 8 10 19 10 29zM265 135c44 0 78 -21 78 -68c0 -19 -5 -39 -11 -57
c-12 -37 -33 -71 -65 -93c-53 -36 -114 -52 -189 -52c-44 0 -78 21 -78 68c0 19 5 39 11 57c12 37 33 71 65 93c53 36 114 52 189 52z" fill="currentColor"/>
</g>
<g transform="translate(72.3253, 39.1416)">
<path transform="scale(0.0040, -0.0040)" d="M0 0c0 32 25 57 57 57s57 -25 57 -57s-25 -57 -57 -57s-57 25 -57 57z" fill="currentColor"/>
</g>
<g transform="translate(71.8177, 38.6416)">
<rect x="-0.0508" y="-2.5000" width="0.1015" height="3.2316" ry="0.0267" fill="currentColor"/>
</g>
<g transform="translate(17.1522, 38.6416)">
<rect x="-0.0508" y="-1.5000" width="0.1015" height="3.2316" ry="0.0267" fill="currentColor"/>
</g>
<g transform="translate(15.8309, 40.6416)">
<path transform="scale(0.0040, -0.0040)" d="M316 67c0 25 -20 42 -42 42c-4 0 -9 -1 -13 -2c-31 -9 -79 -41 -117 -65s-86 -55 -107 -80c-7 -8 -10 -19 -10 -29c0 -25 20 -42 42 -42c4 0 9 1 13 2c31 9 79 41 117 65s86 55 107 80c7 8 10 19 10 29zM265 135c44 0 78 -21 78 -68c0 -19 -5 -39 -11 -57
c-12 -37 -33 -71 -65 -93c-53 -36 -114 -52 -189 -52c-44 0 -78 21 -78 68c0 19 5 39 11 57c12 37 33 71 65 93c53 36 114 52 189 52z" fill="currentColor"/>
</g>
<g transform="translate(20.5174, 39.6416)">
<path transform="scale(0.0040, -0.0040)" d="M222 135c53 0 104 -27 104 -86c0 -71 -56 -120 -103 -148c-36 -22 -76 -36 -118 -36c-53 0 -105 27 -105 86c0 71 57 120 104 148c36 22 76 36 118 36z" fill="currentColor"/>
</g>
<g transform="translate(21.7725, 38.6416)">
<rect x="-0.0508" y="-2.5000" width="0.1015" height="3.3033" ry="0.0267" fill="currentColor"/>
</g>
<g transform="translate(26.3766, 38.6416)">
<rect x="-0.0508" y="-1.0000" width="0.1015" height="3.2316" ry="0.0267" fill="currentColor"/>
</g>
<g transform="translate(2.6784, 35.6026)">
<text font-family="serif" font-size="1.7461" text-anchor="start" fill="currentColor">
<tspan>8</tspan>
</text>
</g>
<g transform="translate(4.5937, 39.6416)">
<path transform="scale(0.0040, -0.0040)" d="M374 260c5 0 10 1 15 1c154 0 254 -127 254 -259c0 -76 -33 -153 -107 -208c-22 -17 -47 -29 -73 -37c3 -36 5 -72 5 -108c0 -19 0 -37 -1 -56c-7 -120 -88 -226 -206 -226c-108 0 -195 87 -195 195c0 58 53 104 112 104c54 0 95 -48 95 -104c0 -52 -43 -95 -95 -95
c-12 0 -24 4 -35 9c26 -41 70 -70 121 -70c1 0 2 1 3 1c93 2 154 93 160 192c1 18 2 35 2 53c0 32 -2 64 -5 96c-29 -5 -58 -8 -89 -8c-188 0 -333 171 -333 372c0 178 133 306 251 440c-18 63 -35 126 -42 191c-6 51 -7 102 -7 154c0 116 55 226 150 295c5 4 11 4 16 0
c70 -84 132 -246 132 -359c0 -144 -87 -256 -183 -365c20 -69 39 -138 55 -208zM459 -205c69 24 117 96 117 166c0 92 -69 184 -179 193c25 -117 48 -235 62 -359zM71 31c0 -136 131 -251 267 -251c28 0 55 2 82 6c-15 128 -38 247 -64 367c-79 -9 -125 -62 -125 -121
c0 -44 26 -92 82 -124c4 -4 7 -9 7 -14c0 -11 -9 -21 -20 -21c-3 0 -6 1 -9 2c-80 43 -116 114 -116 184c0 88 57 173 158 196c-14 60 -30 119 -46 178c-108 -121 -216 -242 -216 -402zM411 1050c-99 -50 -161 -151 -161 -262c0 -76 15 -137 33 -200c82 97 149 198 149 325
c0 58 -4 84 -21 137z" fill="currentColor"/>
</g>
<g transform="translate(25.0553, 41.1416)">
<path transform="scale(0.0040, -0.0040)" d="M316 67c0 25 -20 42 -42 42c-4 0 -9 -1 -13 -2c-31 -9 -79 -41 -117 -65s-86 -55 -107 -80c-7 -8 -10 -19 -10 -29c0 -25 20 -42 42 -42c4 0 9 1 13 2c31 9 79 41 117 65s86 55 107 80c7 8 10 19 10 29zM265 135c44 0 78 -21 78 -68c0 -19 -5 -39 -11 -57
c-12 -37 -33 -71 -65 -93c-53 -36 -114 -52 -189 -52c-44 0 -78 21 -78 68c0 19 5 39 11 57c12 37 33 71 65 93c53 36 114 52 189 52z" fill="currentColor"/>
</g>
<g transform="translate(9.5937, 41.1416)">
<path transform="scale(0.0040, -0.0040)" d="M316 67c0 25 -20 42 -42 42c-4 0 -9 -1 -13 -2c-31 -9 -79 -41 -117 -65s-86 -55 -107 -80c-7 -8 -10 -19 -10 -29c0 -25 20 -42 42 -42c4 0 9 1 13 2c31 9 79 41 117 65s86 55 107 80c7 8 10 19 10 29zM265 135c44 0 78 -21 78 -68c0 -19 -5 -39 -11 -57
c-12 -37 -33 -71 -65 -93c-53 -36 -114 -52 -189 -52c-44 0 -78 21 -78 68c0 19 5 39 11 57c12 37 33 71 65 93c53 36 114 52 189 52z" fill="currentColor"/>
</g>
<g transform="translate(11.4225, 41.1416)">
<path transform="scale(0.0040, -0.0040)" d="M0 0c0 32 25 57 57 57s57 -25 57 -57s-25 -57 -57 -57s-57 25 -57 57z" fill="currentColor"/>
</g>
<g transform="translate(10.9150, 38.6416)">
<rect x="-0.0508" y="-1.0000" width="0.1015" height="3.2316" ry="0.0267" fill="currentColor"/>
</g>
<g transform="translate(31.8191, 41.1416)">
<path transform="scale(0.0040, -0.0040)" d="M222 135c53 0 104 -27 104 -86c0 -71 -56 -120 -103 -148c-36 -22 -76 -36 -118 -36c-53 0 -105 27 -105 86c0 71 57 120 104 148c36 22 76 36 118 36z" fill="currentColor"/>
</g>
<g transform="translate(33.0742, 38.6416)">
<rect x="-0.0508" y="-0.1968" width="0.1015" height="2.5000" ry="0.0267" fill="currentColor"/>
</g>
<g transform="translate(35.3496, 40.6416)">
<path transform="scale(0.0040, -0.0040)" d="M316 67c0 25 -20 42 -42 42c-4 0 -9 -1 -13 -2c-31 -9 -79 -41 -117 -65s-86 -55 -107 -80c-7 -8 -10 -19 -10 -29c0 -25 20 -42 42 -42c4 0 9 1 13 2c31 9 79 41 117 65s86 55 107 80c7 8 10 19 10 29zM265 135c44 0 78 -21 78 -68c0 -19 -5 -39 -11 -57
c-12 -37 -33 -71 -65 -93c-53 -36 -114 -52 -189 -52c-44 0 -78 21 -78 68c0 19 5 39 11 57c12 37 33 71 65 93c53 36 114 52 189 52z" fill="currentColor"/>
</g>
<g transform="translate(36.6709, 38.6416)">
<rect x="-0.0508" y="-1.5000" width="0.1015" height="3.2316" ry="0.0267" fill="currentColor"/>
</g>
<g transform="translate(29.4918, 41.6416)">
<path transform="scale(0.0040, -0.0040)" d="M222 135c53 0 104 -27 104 -86c0 -71 -56 -120 -103 -148c-36 -22 -76 -36 -118 -36c-53 0 -105 27 -105 86c0 71 57 120 104 148c36 22 76 36 118 36z" fill="currentColor"/>
</g>
<g transform="translate(30.7469, 38.6416)">
<rect x="-0.0508" y="-0.0042" width="0.1015" height="2.8075" ry="0.0267" fill="currentColor"/>
</g>
<g transform="translate(3.7937, 55.9999)">
<line stroke-linejoin="round" stroke-linecap="round" stroke-width="0.0781" stroke="currentColor" x1="0.0390" y1="0" x2="72.0413" y2="0"/>
</g>
<g transform="translate(3.7937, 54.9999)">
<line stroke-linejoin="round" stroke-linecap="round" stroke-width="0.0781" stroke="currentColor" x1="0.0390" y1="0" x2="72.0413" y2="0"/>
</g>
<g transform="translate(3.7937, 53.9999)">
<line stroke-linejoin="round" stroke-linecap="round" stroke-width="0.0781" stroke="currentColor" x1="0.0390" y1="0" x2="72.0413" y2="0"/>
</g>
<g transform="translate(3.7937, 52.9999)">
<line stroke-linejoin="round" stroke-linecap="round" stroke-width="0.0781" stroke="currentColor" x1="0.0390" y1="0" x2="72.0413" y2="0"/>
</g>
<g transform="translate(3.7937, 51.9999)">
<line stroke-linejoin="round" stroke-linecap="round" stroke-width="0.0781" stroke="currentColor" x1="0.0390" y1="0" x2="72.0413" y2="0"/>
</g>
<g transform="translate(56.9421, 53.9999)">
<rect x="0.0000" y="-2.0000" width="0.1484" height="4.0000" ry="0.0000" fill="currentColor"/>
</g>
<g transform="translate(18.3366, 53.9999)">
<rect x="0.0000" y="-2.0000" width="0.1484" height="4.0000" ry="0.0000" fill="currentColor"/>
</g>
<g transform="translate(27.7071, 53.9999)">
<rect x="0.0000" y="-2.0000" width="0.1484" height="4.0000" ry="0.0000" fill="currentColor"/>
</g>
<g transform="translate(68.7614, 53.9999)">
<rect x="0.0000" y="-2.0000" width="0.1484" height="4.0000" ry="0.0000" fill="currentColor"/>
</g>
<g transform="translate(47.2502, 53.9999)">
<rect x="0.0000" y="-2.0000" width="0.1484" height="4.0000" ry="0.0000" fill="currentColor"/>
</g>
<g transform="translate(75.4054, 53.9999)">
<rect x="0.0000" y="-2.0000" width="0.4686" height="4.0000" ry="0.0000" fill="currentColor"/>
</g>
<g transform="translate(75.0228, 53.9999)">
<rect x="0.0000" y="-2.0000" width="0.1484" height="4.0000" ry="0.0000" fill="currentColor"/>
</g>
<g transform="translate(37.3990, 53.9999)">
<rect x="0.0000" y="-2.0000" width="0.1484" height="4.0000" ry="0.0000" fill="currentColor"/>
</g>
<g transform="translate(3.7937, 56.9999)">
<rect x="57.9363" y="-0.0890" width="1.9587" height="0.1781" ry="0.0890" fill="currentColor"/>
</g>
<g transform="translate(3.7937, 56.9999)">
<rect x="19.3142" y="-0.0890" width="2.0580" height="0.1781" ry="0.0890" fill="currentColor"/>
</g>
<g transform="translate(52.2768, 55.4999)">
<path transform="scale(0.0040, -0.0040)" d="M222 135c53 0 104 -27 104 -86c0 -71 -56 -120 -103 -148c-36 -22 -76 -36 -118 -36c-53 0 -105 27 -105 86c0 71 57 120 104 148c36 22 76 36 118 36z" fill="currentColor"/>
</g>
<g transform="translate(53.5319, 53.9999)">
<rect x="-0.0508" y="-1.1965" width="0.1015" height="2.4998" ry="0.0267" fill="currentColor"/>
</g>
<g transform="translate(14.8756, 52.7990)">
<polygon stroke-linejoin="round" stroke-linecap="round" stroke-width="0.0533" fill="currentColor" stroke="currentColor" points="2.2825 -0.0124 2.2825 0.4143 0.0267 0.2133 0.0267 -0.2133"/>
</g>
<g transform="translate(54.4845, 55.9999)">
<path transform="scale(0.0040, -0.0040)" d="M222 135c53 0 104 -27 104 -86c0 -71 -56 -120 -103 -148c-36 -22 -76 -36 -118 -36c-53 0 -105 27 -105 86c0 71 57 120 104 148c36 22 76 36 118 36z" fill="currentColor"/>
</g>
<g transform="translate(55.7395, 53.9999)">
<rect x="-0.0508" y="-1.0044" width="0.1015" height="2.8077" ry="0.0267" fill="currentColor"/>
</g>
<g transform="translate(57.8911, 55.4999)">
<path transform="scale(0.0040, -0.0040)" d="M222 135c53 0 104 -27 104 -86c0 -71 -56 -120 -103 -148c-36 -22 -76 -36 -118 -36c-53 0 -105 27 -105 86c0 71 57 120 104 148c36 22 76 36 118 36z" fill="currentColor"/>
</g>
<g transform="translate(59.1462, 53.9999)">
<rect x="-0.0508" y="-1.1965" width="0.1015" height="2.4998" ry="0.0267" fill="currentColor"/>
</g>
<g transform="translate(49.5205, 53.9999)">
<rect x="-0.0508" y="-2.5000" width="0.1015" height="3.2316" ry="0.0267" fill="currentColor"/>
</g>
<g transform="translate(41.8107, 53.9999)">
<rect x="-0.0508" y="-1.0044" width="0.1015" height="2.8077" ry="0.0267" fill="currentColor"/>
</g>
<g transform="translate(43.0133, 54.4999)">
<path transform="scale(0.0040, -0.0040)" d="M316 67c0 25 -20 42 -42 42c-4 0 -9 -1 -13 -2c-31 -9 -79 -41 -117 -65s-86 -55 -107 -80c-7 -8 -10 -19 -10 -29c0 -25 20 -42 42 -42c4 0 9 1 13 2c31 9 79 41 117 65s86 55 107 80c7 8 10 19 10 29zM265 135c44 0 78 -21 78 -68c0 -19 -5 -39 -11 -57
c-12 -37 -33 -71 -65 -93c-53 -36 -114 -52 -189 -52c-44 0 -78 21 -78 68c0 19 5 39 11 57c12 37 33 71 65 93c53 36 114 52 189 52z" fill="currentColor"/>
</g>
<g transform="translate(44.3345, 53.9999)">
<rect x="-0.0508" y="-3.0000" width="0.1015" height="3.2316" ry="0.0267" fill="currentColor"/>
</g>
<g transform="translate(48.1992, 54.9999)">
<path transform="scale(0.0040, -0.0040)" d="M316 67c0 25 -20 42 -42 42c-4 0 -9 -1 -13 -2c-31 -9 -79 -41 -117 -65s-86 -55 -107 -80c-7 -8 -10 -19 -10 -29c0 -25 20 -42 42 -42c4 0 9 1 13 2c31 9 79 41 117 65s86 55 107 80c7 8 10 19 10 29zM265 135c44 0 78 -21 78 -68c0 -19 -5 -39 -11 -57
c-12 -37 -33 -71 -65 -93c-53 -36 -114 -52 -189 -52c-44 0 -78 21 -78 68c0 19 5 39 11 57c12 37 33 71 65 93c53 36 114 52 189 52z" fill="currentColor"/>
</g>
<g transform="translate(40.5556, 55.9999)">
<path transform="scale(0.0040, -0.0040)" d="M222 135c53 0 104 -27 104 -86c0 -71 -56 -120 -103 -148c-36 -22 -76 -36 -118 -36c-53 0 -105 27 -105 86c0 71 57 120 104 148c36 22 76 36 118 36z" fill="currentColor"/>
</g>
<g transform="translate(59.0954, 52.7990)">
<polygon stroke-linejoin="round" stroke-linecap="round" stroke-width="0.0533" fill="currentColor" stroke="currentColor" points="2.2825 -0.0124 2.2825 0.4143 0.0267 0.2133 0.0267 -0.2133"/>
</g>
<g transform="translate(53.4811, 52.7990)">
<polygon stroke-linejoin="round" stroke-linecap="round" stroke-width="0.0533" fill="currentColor" stroke="currentColor" points="2.2825 -0.0124 2.2825 0.4143 0.0267 0.2133 0.0267 -0.2133"/>
</g>
<g transform="translate(39.5522, 52.7990)">
<polygon stroke-linejoin="round" stroke-linecap="round" stroke-width="0.0533" fill="currentColor" stroke="currentColor" points="2.2825 -0.0124 2.2825 0.4143 0.0267 0.2133 0.0267 -0.2133"/>
</g>
<g transform="translate(33.9379, 52.7990)">
<polygon stroke-linejoin="round" stroke-linecap="round" stroke-width="0.0533" fill="currentColor" stroke="currentColor" points="2.2825 -0.0124 2.2825 0.4143 0.0267 0.2133 0.0267 -0.2133"/>
</g>
<g transform="translate(20.4899, 52.7990)">
<polygon stroke-linejoin="round" stroke-linecap="round" stroke-width="0.0533" fill="currentColor" stroke="currentColor" points="2.2825 -0.0124 2.2825 0.4143 0.0267 0.2133 0.0267 -0.2133"/>
</g>
<g transform="translate(63.3115, 53.9999)">
<rect x="-0.0508" y="-0.5000" width="0.1015" height="3.3033" ry="0.0267" fill="currentColor"/>
</g>
<g transform="translate(60.0988, 55.9999)">
<path transform="scale(0.0040, -0.0040)" d="M222 135c53 0 104 -27 104 -86c0 -71 -56 -120 -103 -148c-36 -22 -76 -36 -118 -36c-53 0 -105 27 -105 86c0 71 57 120 104 148c36 22 76 36 118 36z" fill="currentColor"/>
</g>
<g transform="translate(61.3538, 53.9999)">
<rect x="-0.0508" y="-1.0044" width="0.1015" height="2.8077" ry="0.0267" fill="currentColor"/>
</g>
<g transform="translate(62.0564, 56.9999)">
<path transform="scale(0.0040, -0.0040)" d="M222 135c53 0 104 -27 104 -86c0 -71 -56 -120 -103 -148c-36 -22 -76 -36 -118 -36c-53 0 -105 27 -105 86c0 71 57 120 104 148c36 22 76 36 118 36z" fill="currentColor"/>
</g>
<g transform="translate(65.4160, 55.4999)">
<path transform="scale(0.0040, -0.0040)" d="M222 135c53 0 104 -27 104 -86c0 -71 -56 -120 -103 -148c-36 -22 -76 -36 -118 -36c-53 0 -105 27 -105 86c0 71 57 120 104 148c36 22 76 36 118 36z" fill="currentColor"/>
</g>
<g transform="translate(66.6710, 53.9999)">
<rect x="-0.0508" y="-2.0000" width="0.1015" height="3.3033" ry="0.0267" fill="currentColor"/>
</g>
<g transform="translate(70.5770, 53.4999)">
<path transform="scale(0.0040, -0.0040)" d="M316 67c0 25 -20 42 -42 42c-4 0 -9 -1 -13 -2c-31 -9 -79 -41 -117 -65s-86 -55 -107 -80c-7 -8 -10 -19 -10 -29c0 -25 20 -42 42 -42c4 0 9 1 13 2c31 9 79 41 117 65s86 55 107 80c7 8 10 19 10 29zM265 135c44 0 78 -21 78 -68c0 -19 -5 -39 -11 -57
c-12 -37 -33 -71 -65 -93c-53 -36 -114 -52 -189 -52c-44 0 -78 21 -78 68c0 19 5 39 11 57c12 37 33 71 65 93c53 36 114 52 189 52z" fill="currentColor"/>
</g>
<g transform="translate(72.4059, 53.4999)">
<path transform="scale(0.0040, -0.0040)" d="M0 0c0 32 25 57 57 57s57 -25 57 -57s-25 -57 -57 -57s-57 25 -57 57z" fill="currentColor"/>
</g>
<g transform="translate(70.6278, 53.9999)">
<rect x="-0.0508" y="-0.2316" width="0.1015" height="3.2316" ry="0.0267" fill="currentColor"/>
</g>
<g transform="translate(19.2856, 55.4999)">
<path transform="scale(0.0040, -0.0040)" d="M222 135c53 0 104 -27 104 -86c0 -71 -56 -120 -103 -148c-36 -22 -76 -36 -118 -36c-53 0 -105 27 -105 86c0 71 57 120 104 148c36 22 76 36 118 36z" fill="currentColor"/>
</g>
<g transform="translate(20.5406, 53.9999)">
<rect x="-0.0508" y="-1.1965" width="0.1015" height="2.4998" ry="0.0267" fill="currentColor"/>
</g>
<g transform="translate(17.1340, 53.9999)">
<rect x="-0.0508" y="-1.0044" width="0.1015" height="2.8077" ry="0.0267" fill="currentColor"/>
</g>
<g transform="translate(21.4933, 55.9999)">
<path transform="scale(0.0040, -0.0040)" d="M222 135c53 0 104 -27 104 -86c0 -71 -56 -120 -103 -148c-36 -22 -76 -36 -118 -36c-53 0 -105 27 -105 86c0 71 57 120 104 148c36 22 76 36 118 36z" fill="currentColor"/>
</g>
<g transform="translate(23.4509, 56.9999)">
<path transform="scale(0.0040, -0.0040)" d="M316 67c0 25 -20 42 -42 42c-4 0 -9 -1 -13 -2c-31 -9 -79 -41 -117 -65s-86 -55 -107 -80c-7 -8 -10 -19 -10 -29c0 -25 20 -42 42 -42c4 0 9 1 13 2c31 9 79 41 117 65s86 55 107 80c7 8 10 19 10 29zM265 135c44 0 78 -21 78 -68c0 -19 -5 -39 -11 -57
c-12 -37 -33 -71 -65 -93c-53 -36 -114 -52 -189 -52c-44 0 -78 21 -78 68c0 19 5 39 11 57c12 37 33 71 65 93c53 36 114 52 189 52z" fill="currentColor"/>
</g>
<g transform="translate(1.5630, 50.9609)">
<text font-family="serif" font-size="1.7461" text-anchor="start" fill="currentColor">
<tspan>16</tspan>
</text>
</g>
<g transform="translate(4.5937, 54.9999)">
<path transform="scale(0.0040, -0.0040)" d="M374 260c5 0 10 1 15 1c154 0 254 -127 254 -259c0 -76 -33 -153 -107 -208c-22 -17 -47 -29 -73 -37c3 -36 5 -72 5 -108c0 -19 0 -37 -1 -56c-7 -120 -88 -226 -206 -226c-108 0 -195 87 -195 195c0 58 53 104 112 104c54 0 95 -48 95 -104c0 -52 -43 -95 -95 -95
c-12 0 -24 4 -35 9c26 -41 70 -70 121 -70c1 0 2 1 3 1c93 2 154 93 160 192c1 18 2 35 2 53c0 32 -2 64 -5 96c-29 -5 -58 -8 -89 -8c-188 0 -333 171 -333 372c0 178 133 306 251 440c-18 63 -35 126 -42 191c-6 51 -7 102 -7 154c0 116 55 226 150 295c5 4 11 4 16 0
c70 -84 132 -246 132 -359c0 -144 -87 -256 -183 -365c20 -69 39 -138 55 -208zM459 -205c69 24 117 96 117 166c0 92 -69 184 -179 193c25 -117 48 -235 62 -359zM71 31c0 -136 131 -251 267 -251c28 0 55 2 82 6c-15 128 -38 247 -64 367c-79 -9 -125 -62 -125 -121
c0 -44 26 -92 82 -124c4 -4 7 -9 7 -14c0 -11 -9 -21 -20 -21c-3 0 -6 1 -9 2c-80 43 -116 114 -116 184c0 88 57 173 158 196c-14 60 -30 119 -46 178c-108 -121 -216 -242 -216 -402zM411 1050c-99 -50 -161 -151 -161 -262c0 -76 15 -137 33 -200c82 97 149 198 149 325
c0 58 -4 84 -21 137z" fill="currentColor"/>
</g>
<g transform="translate(22.7483, 53.9999)">
<rect x="-0.0508" y="-1.0044" width="0.1015" height="2.8077" ry="0.0267" fill="currentColor"/>
</g>
<g transform="translate(9.5937, 54.9999)">
<path transform="scale(0.0040, -0.0040)" d="M316 67c0 25 -20 42 -42 42c-4 0 -9 -1 -13 -2c-31 -9 -79 -41 -117 -65s-86 -55 -107 -80c-7 -8 -10 -19 -10 -29c0 -25 20 -42 42 -42c4 0 9 1 13 2c31 9 79 41 117 65s86 55 107 80c7 8 10 19 10 29zM265 135c44 0 78 -21 78 -68c0 -19 -5 -39 -11 -57
c-12 -37 -33 -71 -65 -93c-53 -36 -114 -52 -189 -52c-44 0 -78 21 -78 68c0 19 5 39 11 57c12 37 33 71 65 93c53 36 114 52 189 52z" fill="currentColor"/>
</g>
<g transform="translate(10.9150, 53.9999)">
<rect x="-0.0508" y="-2.5000" width="0.1015" height="3.2316" ry="0.0267" fill="currentColor"/>
</g>
<g transform="translate(13.6713, 55.4999)">
<path transform="scale(0.0040, -0.0040)" d="M222 135c53 0 104 -27 104 -86c0 -71 -56 -120 -103 -148c-36 -22 -76 -36 -118 -36c-53 0 -105 27 -105 86c0 71 57 120 104 148c36 22 76 36 118 36z" fill="currentColor"/>
</g>
<g transform="translate(14.9263, 53.9999)">
<rect x="-0.0508" y="-1.1965" width="0.1015" height="2.4998" ry="0.0267" fill="currentColor"/>
</g>
<g transform="translate(15.8789, 55.9999)">
<path transform="scale(0.0040, -0.0040)" d="M222 135c53 0 104 -27 104 -86c0 -71 -56 -120 -103 -148c-36 -22 -76 -36 -118 -36c-53 0 -105 27 -105 86c0 71 57 120 104 148c36 22 76 36 118 36z" fill="currentColor"/>
</g>
<g transform="translate(24.7722, 53.9999)">
<rect x="-0.0508" y="-0.5000" width="0.1015" height="3.2316" ry="0.0267" fill="currentColor"/>
</g>
<g transform="translate(33.9887, 53.9999)">
<rect x="-0.0508" y="-1.1965" width="0.1015" height="2.4998" ry="0.0267" fill="currentColor"/>
</g>
<g transform="translate(34.9413, 55.9999)">
<path transform="scale(0.0040, -0.0040)" d="M222 135c53 0 104 -27 104 -86c0 -71 -56 -120 -103 -148c-36 -22 -76 -36 -118 -36c-53 0 -105 27 -105 86c0 71 57 120 104 148c36 22 76 36 118 36z" fill="currentColor"/>
</g>
<g transform="translate(36.1963, 53.9999)">
<rect x="-0.0508" y="-1.0044" width="0.1015" height="2.8077" ry="0.0267" fill="currentColor"/>
</g>
<g transform="translate(32.7336, 55.4999)">
<path transform="scale(0.0040, -0.0040)" d="M222 135c53 0 104 -27 104 -86c0 -71 -56 -120 -103 -148c-36 -22 -76 -36 -118 -36c-53 0 -105 27 -105 86c0 71 57 120 104 148c36 22 76 36 118 36z" fill="currentColor"/>
</g>
<g transform="translate(38.3479, 55.4999)">
<path transform="scale(0.0040, -0.0040)" d="M222 135c53 0 104 -27 104 -86c0 -71 -56 -120 -103 -148c-36 -22 -76 -36 -118 -36c-53 0 -105 27 -105 86c0 71 57 120 104 148c36 22 76 36 118 36z" fill="currentColor"/>
</g>
<g transform="translate(39.6030, 53.9999)">
<rect x="-0.0508" y="-1.1965" width="0.1015" height="2.4998" ry="0.0267" fill="currentColor"/>
</g>
<g transform="translate(28.6561, 54.9999)">
<path transform="scale(0.0040, -0.0040)" d="M316 67c0 25 -20 42 -42 42c-4 0 -9 -1 -13 -2c-31 -9 -79 -41 -117 -65s-86 -55 -107 -80c-7 -8 -10 -19 -10 -29c0 -25 20 -42 42 -42c4 0 9 1 13 2c31 9 79 41 117 65s86 55 107 80c7 8 10 19 10 29zM265 135c44 0 78 -21 78 -68c0 -19 -5 -39 -11 -57
c-12 -37 -33 -71 -65 -93c-53 -36 -114 -52 -189 -52c-44 0 -78 21 -78 68c0 19 5 39 11 57c12 37 33 71 65 93c53 36 114 52 189 52z" fill="currentColor"/>
</g>
<g transform="translate(29.9773, 53.9999)">
<rect x="-0.0508" y="-2.5000" width="0.1015" height="3.2316" ry="0.0267" fill="currentColor"/>
</g>
</svg>
